<?xml version="1.0" encoding="UTF-8" standalone="no"?>
<!-- Created with Inkscape (http://www.inkscape.org/) -->

<svg
   version="1.1"
   id="svg1"
   width="107.36743"
   height="72.255402"
   viewBox="0 0 107.36743 72.255402"
   sodipodi:docname="11.svg"
   inkscape:version="1.4.3 (0d15f75, 2025-12-25)"
   inkscape:export-filename="..\Documents\zazemli-brand\doodles\10.svg"
   inkscape:export-xdpi="96"
   inkscape:export-ydpi="96"
   xmlns:inkscape="http://www.inkscape.org/namespaces/inkscape"
   xmlns:sodipodi="http://sodipodi.sourceforge.net/DTD/sodipodi-0.dtd"
   xmlns="http://www.w3.org/2000/svg"
   xmlns:svg="http://www.w3.org/2000/svg">
  <defs
     id="defs1" />
  <sodipodi:namedview
     id="namedview1"
     pagecolor="#ffffff"
     bordercolor="#000000"
     borderopacity="0.25"
     inkscape:showpageshadow="2"
     inkscape:pageopacity="0.0"
     inkscape:pagecheckerboard="0"
     inkscape:deskcolor="#d1d1d1"
     inkscape:zoom="1.1844758"
     inkscape:cx="-105.95404"
     inkscape:cy="-331.79234"
     inkscape:window-width="2401"
     inkscape:window-height="1368"
     inkscape:window-x="-7"
     inkscape:window-y="0"
     inkscape:window-maximized="0"
     inkscape:current-layer="g1">
    <inkscape:page
       x="0"
       y="0"
       inkscape:label="1"
       id="page1"
       width="107.36743"
       height="72.255402"
       margin="0"
       bleed="0" />
  </sodipodi:namedview>
  <g
     id="g1"
     inkscape:groupmode="layer"
     inkscape:label="1"
     transform="translate(-70.209114,-625.48694)">
    <path
       id="path9"
       d="m 87.158623,220.75269 v 0 l 3.944519,1.72409 3.028084,2.3777 1.094352,0.47607 1.239685,1.05411 1.800393,1.97006 0.844482,0.53668 1.393952,1.56073 0.8543,-0.01 1.54276,-0.53215 1.2925,-0.94813 0.31756,0.18992 1.04027,-0.67003 4.05104,-1.86963 1.55009,-0.52645 0.66178,0.005 0.32071,0.21721 1.55433,-0.53767 2.63161,0.52575 5.22705,1.56977 0.81222,0.79461 1.17155,0.54987 0.18299,0.33643 1.00792,0.54028 1.28829,1.28857 0.93557,1.55231 0.83615,4.35603 -0.006,1.93132 -0.34351,0.38959 -0.77215,2.34953 -0.3775,0.72413 0.005,0.34295 1.59365,1.01013 0.5047,0.48789 2.70624,1.45418 0.91362,1.50572 0.8478,2.4928 -0.18107,0.58677 0.50882,0.48534 -0.50884,0.59901 0.22057,0.56905 2.4e-4,1.58304 -0.57365,1.26137 0.19742,0.3265 -0.33281,0.40445 -0.7793,1.71311 -1.0869,0.91885 -1.16682,1.33749 -1.3366,1.00992 -2.67028,1.3898 -0.65231,-0.20733 -0.16189,0.24203 -2.99764,0.90933 -0.32889,-0.20043 -0.30894,0.20675 -1.59308,0.042 -0.63545,-0.24865 -0.30897,0.20654 -0.65088,-3.7e-4 -0.62591,-0.52337 -0.30912,0.20654 -0.65087,-3.4e-4 -0.94309,-0.84057 -0.30869,0.20355 -0.33379,-0.004 0.071,-0.34207 -0.99606,-0.51285 -0.97884,0.007 -0.0998,0.43444 0.25739,0.62571 -0.2605,0.6261 -0.0804,1.16891 -0.44875,0.57541 0.12129,0.81845 -0.70442,1.65271 -0.76393,2.68939 -0.93489,1.2518 -1.92206,1.92191 -3.70995,1.7677 -0.32619,-0.19727 -0.63551,0.24872 H 99.7547 l -0.62722,-0.26544 -0.641472,-0.0418 -0.635491,0.24841 -0.317215,-0.18985 -0.635444,0.24872 -2.851586,3.1e-4 -2.21331,-0.89069 -0.335083,0.20456 -2.111046,-1.121 -0.893173,-0.88446 -1.578659,-1.89441 -0.687592,-0.5101 -0.814003,-1.30143 -2.402183,-2.41873 -0.536705,-0.84448 -1.117584,-1.17117 -0.423539,0.46704 -1.565864,0.93222 -3.311676,1.52145 -3.898918,0.93323 -1.60318,-0.0375 -1.495819,-0.47867 -4.728348,-2.24249 -0.918903,-1.08899 -1.301384,-0.81396 -0.668374,-0.66916 -0.565906,-1.32669 -0.563946,-3.00876 0.488396,-1.18503 0.670242,-1.0383 -0.197307,-0.3264 0.998767,-1.98103 0.75953,-2.03554 0.40995,-0.35628 -3.551712,-1.71182 -1.36002,-1.0356 -1.663784,-1.81642 -0.179035,0.12932 -0.635815,-0.79877 -1.086784,-2.02078 -0.978451,-1.36762 0.160565,-0.24954 -0.626561,-0.47839 -0.822994,-2.11051 -0.03924,-2.23547 1.185864,-2.76996 1.370437,-2.19052 1.825394,-1.32049 2.104149,-0.80442 0.328972,0.20053 0.635483,-0.24873 h 2.535228 l 0.952656,0.30263 0.971539,-0.26503 2.829399,0.54442 0.850845,-0.48972 0.820541,-1.75505 3.159775,-4.74599 0.668511,-0.66688 0.629966,-0.32605 3.697335,-1.43003 0.340667,0.21129 2.569558,-0.59215 5.961593,-0.58302 0.654465,0.21172 m 0.253624,0.77672 v 0 l -3.761749,0.51426 2.131332,0.075 0.575363,0.44875 0.485306,-0.16029 0.967384,0.039 0.555405,0.28984 2.262459,0.57504 0.431824,-0.11336 -0.183388,-0.23967 m -9.411934,-0.505 v 0 l -3.023048,0.52916 -1.978371,0.60954 -2.842774,1.57375 -1.851661,1.84459 -0.411934,0.72363 -0.748139,2.02443 -1.290741,2.24567 1.040139,0.53829 -0.126023,0.37333 0.559281,0.54136 -0.116967,0.63126 -0.660301,0.006 -0.874923,-0.51467 -0.679139,0.54917 -0.34127,-0.0411 -0.184158,-0.63191 -0.577462,-0.37747 -3.966346,-0.80097 -2.177014,0.48545 -1.188518,0.48382 -1.979748,1.78465 -1.415268,2.98418 -0.332767,0.40441 0.19942,0.32821 -0.537529,1.23931 0.0042,0.66111 0.20662,0.30898 -0.197155,0.32612 1.119407,2.42601 1.29052,1.29184 1.713112,0.77932 0.835163,0.81773 3.557751,2.60605 1.436058,-0.11527 0.926513,0.53417 0.180466,-0.27455 2.59462,-1.17572 0.395805,-0.34615 0.441292,0.11171 -0.625015,0.69612 0.191932,0.40579 -0.941673,0.63155 -0.794555,1.10854 -1.645676,1.33795 -0.574593,0.88232 -1.019584,0.71192 -0.914769,1.08453 -0.695926,0.52618 -0.507237,1.47365 0.0051,1.93067 0.814052,1.16207 1.935093,1.93424 3.288544,1.72015 0.504593,0.48773 1.184066,0.50837 2.205101,-0.53568 0.338578,0.20892 2.19757,-0.83047 2.147629,-1.03168 2.552956,-0.55368 0.16526,-0.22464 -0.189155,-0.31647 0.403411,-0.42547 0.478142,0.10773 0.347,0.51883 0.752167,0.54635 0.343666,-0.005 2.375649,-2.32931 0.477447,-0.10745 0.223557,0.18878 0.518226,1.4859 -0.210006,0.65396 0.34655,0.4195 0.779319,1.7131 1.438279,1.45447 1.440818,2.26358 0.945969,1.05896 1.27076,0.9527 1.576484,0.941 0.798195,0.28577 5.790924,1.17478 1.163184,-0.51175 3.75564,-2.14521 1.66377,-0.73706 1.27081,-1.89315 1.4312,-4.01359 -0.21118,-0.34069 0.50791,-1.49353 0.46477,-0.47889 0.56258,-1.32678 0.33037,-0.0448 0.60262,-0.88992 0.41186,0.20969 0.49846,1.11508 2.03066,0.77948 0.40541,0.33325 0.30907,-0.20676 0.95872,-0.042 0.63546,0.24872 0.31721,-0.18985 0.30887,0.20673 0.64045,0.0421 5.70098,-0.65875 0.9618,-0.54166 0.31761,0.18994 2.73786,-1.5466 0.53957,-0.70758 0.83689,-0.52954 1.12623,-1.12622 0.53672,-0.84447 1.29538,-1.36683 -0.20369,-0.30867 -3e-5,-0.33457 0.21512,-0.32074 -0.8251,-3.07753 -1.11725,-1.13386 -0.76894,-1.38503 -0.45077,-0.28261 -0.54026,-0.70916 -1.37853,-0.76171 -1.35122,-0.99917 -0.51022,-0.0694 -0.44549,-0.92086 -0.44677,-1.09682 0.001,-0.67001 0.50027,-0.83614 0.80382,-0.81985 0.51102,-1.16271 -0.26784,-0.97153 0.0417,-0.64148 0.20673,-0.30909 -0.67,-1.04024 -1.07809,-2.34843 -0.5015,-0.51979 -0.76908,-1.70229 -0.96892,-0.65236 -2.43378,-1.14673 -1.60196,-0.0389 -0.63544,0.24872 -0.31723,-0.18987 -0.30783,0.20354 -0.34621,0.007 -1.87113,-0.53903 -0.34207,0.21318 -2.26907,-0.56729 -0.88991,-0.58605 -0.30871,0.20374 h -0.33456 l -0.32077,-0.21509 -1.89137,0.50505 -2.4506,1.26744 -3.38375,2.25639 0.0112,0.53559 0.84384,1.25087 -0.18986,0.31741 0.2067,0.30887 -3.4e-4,0.96819 -0.42766,0.40313 -0.2317,-0.17477 -0.7849,-2.03519 -0.26243,-0.27092 -2.429844,-1.80501 -3.973015,-4.12111 -0.249397,0.1605 -1.479393,-1.1073 -0.49141,-0.63913 -0.249496,0.16057 -1.794991,-1.10634 -0.514495,-0.8153 -3.697548,-1.14346 -0.661164,0.004 -0.321174,0.21786 m 5.411224,0.11887 v 0 l -0.0084,0.18813 m -16.484962,-0.18813 v 0 l -0.0084,0.18813 m -1.04216,-0.10291 v 0 l 0.188126,0.008 m 17.996177,0.21509 v 0 l -0.426757,0.0996 0.421585,0.10547 m 0.633568,0.43775 v 0 l -0.0084,0.18814 m 1.594345,0.12904 v 0 l -0.0084,0.18813 m -2.846191,-0.18813 v 0 l -0.0084,0.18813 m 2.545868,0.44623 v 0 l -0.0084,0.18809 m 1.277146,0.12909 v 0 l -0.0084,0.18814 m 21.160458,0.84862 v 0 l 0.18812,0.008 m -1.04059,-0.0936 v 0 l -0.008,0.18814 m -2.21182,-0.18814 v 0 l -0.008,0.18814 m -1.2603,-0.18814 v 0 l -0.008,0.18814 m -0.62595,0.12904 v 0 l -0.008,0.1881 m -15.216257,0.12909 v 0 l -0.0084,0.18812 m 19.372907,0.11035 v 0 l -1.94296,-0.004 -0.42246,0.31474 1.01432,0.34731 2.57649,0.51991 0.97149,-0.26488 0.63458,0.24373 0.37714,-0.31935 m 1.30066,-0.72015 v 0 l -0.18811,-0.008 m 1.13964,0.32558 v 0 l -0.1881,-0.008 m -23.467496,0.3118 v 0 l 0.18811,0.008 m 0.228112,0.22356 v 0 l -0.0084,0.18809 m -0.624382,-0.18782 v 0 l -0.113746,0.41552 0.105423,0.0893 0.105224,-0.42264 m 0.853089,0.23471 v 0 l -0.0084,0.18813 m 24.431346,0.12904 v 0 l -0.008,0.18814 m -24.204931,-0.10904 v 0 l 0.09055,0.4366 0.422661,-0.10473 -0.262176,-0.31857 m -13.332955,-0.0143 v 0 l 0.260544,0.24821 4.269821,1.74784 1.28888,1.28807 0.811096,1.16174 -2.3e-5,0.33461 -0.416473,0.41684 -0.343827,0.005 -0.835579,-0.49904 -0.271537,-0.42082 -1.085244,-0.61171 -0.427635,-0.41719 -1.185318,-0.60866 -1.888504,-0.56439 -2.235351,0.0393 -1.798516,0.82862 -0.820137,0.80383 -0.846359,0.48796 -0.155373,-0.41966 0.275635,-0.79122 -1.511536,-0.79875 1.154427,-1.18516 1.499519,-0.5457 0.951836,0.30281 1.593048,-0.0421 0.30069,-0.2234 0.851623,-0.0804 m 38.811104,0.1 v 0 l -0.008,0.18813 m -0.54072,-0.40627 v 0 l -0.18813,-0.008 m 0.95541,0.62897 v 0 l 0.18812,0.008 m -38.88387,0.30719 v 0 l 0.415512,0.11375 0.08936,-0.10542 -0.422684,-0.10519 m -0.617767,0.33041 v 0 l -0.0084,0.18814 m -3.154609,-0.20041 v 0 l -0.666039,-0.0106 -0.684364,0.50075 0.160507,0.24922 -0.189804,0.31831 0.412506,0.14674 0.469971,-0.14775 0.589889,-0.62628 m -16.69387,-0.33298 v 0 l 0.188118,0.008 m 60.478574,0.0906 v 0 l 0.008,-0.18815 m -57.8205,0.40629 v 0 l 0.188125,0.008 m -6.436924,-0.10442 v 0 l -0.01235,0.2083 0.422669,-0.10523 m 25.820858,0.31009 v 0 l 0.188118,0.008 m -21.764557,-0.0138 v 0 l 0.09042,0.43837 1.026673,-0.0396 -1.009369,-0.4911 m -1.903599,0.0126 v 0 l -0.0084,0.18812 m -3.790428,-0.19874 v 0 l -0.744419,0.10284 0.737526,0.10678 m 39.96434,0.11817 v 0 l -0.0084,0.18814 m -34.881439,-0.18814 v 0 l -0.0084,0.18814 m -6.650841,-0.24265 v 0 l -0.476776,0.14446 -0.261367,0.32101 0.429733,0.11104 0.685024,-0.48979 m 65.912603,0.60216 v 0 l -0.008,0.18812 m -24.32926,-0.40626 v 0 l -0.188127,-0.008 m -42.716461,0.22655 v 0 l -0.0084,0.18812 m 67.891038,0.12058 v 0 l -0.42676,0.0996 0.42159,0.10547 m -68.505825,-0.20509 v 0 l -0.426754,0.0996 0.421566,0.10547 m 1.585129,0.12056 v 0 l -0.0084,0.18814 m -0.776692,0.215 v 0 l -1.223148,1.20666 -1.371327,0.88468 -0.548233,0.75241 -0.03903,3.18776 0.386486,0.69735 1.347496,-4.00808 0.707188,-1.34566 0.992779,-1.04308 -0.107987,-0.42205 m -1.494159,-0.21408 v 0 l -0.188134,-0.008 m 69.567015,0.54403 v 0 l -0.11375,0.41549 0.10541,0.0893 0.10524,-0.42268 m -0.33044,-0.30057 v 0 l -0.18812,-0.008 m -69.469444,0.31601 v 0 l 0.208283,0.0124 -0.105236,-0.4227 m 70.105247,0.95554 v 0 l -0.11375,0.41553 0.10542,0.0893 0.10522,-0.42265 m 0.22028,0.55217 v 0 l -0.11375,0.41548 0.10543,0.0893 0.10522,-0.42263 m 0.2203,0.86934 v 0 l -0.15634,0.40666 0.14786,0.41543 0.14826,-0.41288 m -72.774134,-0.40921 v 0 l -0.113755,0.41548 0.105427,0.0894 0.105217,-0.42266 m 0.854652,4.67551 v 0 l -0.113758,0.41548 0.105431,0.0894 0.105217,-0.42265 m 0.218742,1.50343 v 0 l -0.0084,0.1881 m 0.642804,0.44627 v 0 l -0.0084,0.18813 m 69.788147,0.44623 v 0 l -0.008,0.18812 m -69.136937,1.71497 v 0 l -0.0084,0.18808 m 1.837379,0.16517 v 0 l -0.344673,0.3734 0.276722,0.51795 0.869381,0.6831 1.468636,0.81479 0.342888,-0.008 -0.106881,-0.3526 -0.844146,-0.53761 m 69.777821,-1.20952 v 0 l -0.008,0.1881 m 0.32562,0.12909 v 0 l -0.008,0.18812 m -70.086933,-0.18785 v 0 l -0.113754,0.41548 0.105411,0.0894 0.105236,-0.42269 m 61.57896,0.31993 v 0 l 0.2775,0.31427 0.0419,0.32834 -0.0417,0.64133 -0.20672,0.30905 0.90163,0.80731 0.57787,1.07711 7e-4,2.25798 -0.5189,1.48608 -0.92586,1.24185 -0.76235,0.49838 0.19444,0.38897 -0.52863,0.35583 -0.86015,1.2085 -0.5303,-0.0131 -0.40311,-0.42797 0.82462,-0.95322 -0.42112,-0.10684 -0.3003,0.22021 -0.96868,-0.003 -0.11666,-0.6269 0.69066,-0.53128 0.69628,-1.28197 0.64988,-5.5e-4 0.30914,0.20657 0.5553,-0.50047 0.81762,-2.12103 -0.1993,-0.32799 0.20375,-0.30855 -1.3e-4,-0.33449 -0.2204,-0.30029 -0.0791,-0.84778 -0.56983,-0.5412 0.0146,-0.84774 0.2605,-0.62615 -0.24371,-0.63452 0.41209,-0.41196 m 9.71655,0.59474 v 0 l -0.52028,-0.27775 -0.10657,0.42097 0.29065,0.50934 0.76279,0.53587 0.11943,-0.43678 m -9.93847,-0.39203 v 0 l -0.008,0.1881 m 0.008,0.44627 v 0 l -0.008,0.18813 m 9.20668,0.12904 v 0 l -0.008,0.1881 m 1.04517,0.54532 v 0 l -0.18811,-0.008 m -9.72968,0.22659 v 0 l -0.008,0.18808 m -53.05976,-0.1029 v 0 l 0.188117,0.008 m -6.763713,-0.22658 v 0 l 0.0084,-0.1881 m 59.635356,0.95542 v 0 l -0.008,0.18809 m -57.395278,-0.19658 v 0 l -0.426754,0.0996 0.421573,0.10547 m -1.273746,-0.20741 v 0 l -0.01235,0.20831 0.422668,-0.10524 m 3.400086,0.5421 v 0 l -0.0084,0.18808 m -0.308746,0.12909 v 0 l -0.0084,0.18809 M 64.5596,250.84922 v 0 l -0.0084,0.18809 m 57.74267,0.43625 v 0 l -0.42758,0.0995 0.41492,0.41517 m -56.770041,-0.18742 v 0 l -0.0084,0.18808 m -0.322608,0.37372 v 0 l 0.01598,-0.2576 -0.335396,-9.3e-4 -0.09545,0.43114 m -0.52282,0.5343 v 0 l -0.0084,0.18814 M 119.7491,228.01225 v 0 l -0.008,0.18814 m 1.59435,25.18631 v 0 l -0.008,0.1881 m 0.95999,0.12909 v 0 l -0.008,0.18812 m -0.94309,1.0806 v 0 l -0.008,0.18809 m -58.669954,-0.18809 v 0 l -0.0084,0.18809 m 68.202254,0.12909 v 0 l -0.008,0.1881 m -10.77571,0.44626 v 0 l -0.008,0.18811 m 11.4285,0.12933 v 0 l -0.11376,0.4155 0.10543,0.0893 0.10522,-0.42267 m -0.7328,0.23475 v 0 l -0.008,0.18808 m -0.30267,0.12051 v 0 l -0.43656,0.0905 0.10472,0.42267 0.31856,-0.2622 m -11.09411,-0.24244 v 0 l -0.008,0.18812 m 10.15821,0.76342 v 0 l -0.008,0.18811 m -0.30875,0.12909 v 0 l -0.008,0.18808 m -0.30266,0.12046 v 0 l -0.48165,0.099 -0.58118,0.56791 -1.57661,0.96048 -3.69777,1.44311 -0.65375,-0.20999 -0.30855,0.20367 -0.33447,-1.2e-4 -0.29917,-0.21716 -0.34661,-0.008 -3.40147,0.52915 -0.17549,0.21423 0.004,0.33151 4.91806,-0.45477 2.38773,-0.55008 3.48256,-1.60678 1.05135,-1.05063 m -1.57868,0.0742 v 0 l -0.008,0.18811 m 1.91152,0.12909 v 0 l -0.008,0.18808 m -67.86664,-0.1878 v 0 l -0.113754,0.41546 0.105423,0.0894 0.105224,-0.4227 M 126.41549,234.6729 v 0 l -0.008,0.18814 m 1.59434,25.18631 v 0 l -0.008,0.18808 m -66.280739,0.12936 v 0 l -0.113755,0.4155 0.105423,0.0894 0.105225,-0.42269 m 49.383806,0.18039 v 0 l -0.47738,0.14431 -0.27405,0.33255 0.58145,3.59326 0.63226,-1.70532 -0.0454,-2.22702 m 14.17138,0.23377 v 0 l -0.008,0.18811 m -6.33516,-0.18811 v 0 l -0.008,0.18811 m -5.06644,-0.18811 v 0 l -0.008,0.18811 m -29.897525,-0.14621 v 0 l -0.327774,0.36758 0.189354,0.3183 -0.09341,0.0934 -0.327278,-0.19677 -0.691696,0.48019 0.239143,0.11365 0.451691,0.95514 1.040268,3.2221 0.97287,1.29044 1.385696,0.76883 2.302673,1.63141 0.342888,-0.008 -0.008,-0.2547 -0.702851,-1.02029 -0.815109,-0.83087 -2.856842,-3.81006 -0.804794,-1.7901 0.20861,-0.33871 m -21.982628,-1.03202 v 0 l -0.121769,0.426 0.51141,1.16388 0.642067,0.64212 3.067528,1.46301 1.037003,-0.056 -2.057709,-1.24731 -1.095284,-0.47693 m 51.951628,-1.29795 v 0 l -0.65261,-0.0442 -0.41544,0.15128 0.42113,0.4209 m 7.29345,-0.19422 v 0 l -0.008,0.18812 m -1.57748,0.12908 v 0 l -0.008,0.18808 m -56.766907,-0.18808 v 0 l -0.0084,0.18808 m -2.846196,-0.18808 v 0 l -0.0084,0.18808 m 57.735293,0.12909 v 0 l -0.008,0.18808 m -1.89464,-0.18808 v 0 l -0.008,0.18808 m -35.517266,0.12894 v 0 l -0.424194,0.41782 0.418754,0.51858 0.418831,-0.51871 m -2.935203,-0.43396 v 0 l -0.674141,-0.009 -1.872063,0.54071 -0.329628,-0.2013 -0.721603,0.64985 -1.604638,0.66906 -3.12815,0.7594 3.253463,0.0363 2.429734,-0.83014 1.270965,-0.63547 m -12.59404,-0.96335 v 0 l -0.0084,0.18811 m 17.136177,0.76343 v 0 l -0.0084,0.18811 m -0.307197,0.12937 v 0 l -0.113747,0.41546 0.105415,0.0894 0.10524,-0.4227 m -3.904625,0.23474 v 0 l -0.0084,0.18811 m 4.131767,0.12909 v 0 l -0.0084,0.18808 m -4.749267,-0.18808 v 0 l -0.0084,0.18808 m -9.818207,-0.19656 v 0 l -0.42675,0.0996 0.42157,0.10546 m 10.148995,0.12058 v 0 l -0.0084,0.18808 m 31.155598,0.15613 v 0 l -1.1014,2.51513 -0.34612,0.39582 0.10675,0.42126 1.38183,-1.35568 M 84.2347,265.43957 v 0 l -0.0084,0.18811 m -6.969551,-0.18811 v 0 l -0.0084,0.18811 m 33.631151,0.12936 v 0 l -0.11378,0.41547 0.10543,0.0894 0.10522,-0.42266 m -34.353952,-0.0824 v 0 l -0.0084,0.18808 m -6.00019,-0.2081 v 0 l -1.310417,-0.003 -0.68155,0.50055 1.638253,0.67127 0.328949,-0.20053 0.635498,0.24875 1.593055,-0.0422 0.627266,-0.2651 0.641488,0.0416 0.309204,0.20593 0.121109,-0.10394 m -6.140931,-1.03381 v 0 l -0.0084,0.18808 m 6.992363,0.1206 v 0 l -0.426758,0.0996 0.42157,0.10547 m 34.571913,2.34082 v 0 l -0.008,0.18811 m -1.57748,0.12906 v 0 l -0.008,0.18811 m 1.27715,0.12909 v 0 l -0.008,0.18808 m -0.3088,0.12848 v 0 l -1.17715,0.79587 -0.27148,0.42087 -1.08526,0.61169 -0.40797,0.3992 -1.77401,0.60168 -4.5747,0.89771 -0.934373,0.54822 4.843183,0.0557 1.02062,-0.66894 1.16343,-0.51337 0.53722,-0.0746 0.53916,-0.70002 0.8369,-0.52954 1.2783,-1.28201 0.10442,-0.47879 m -18.494734,-0.0831 v 0 l -0.0084,0.18811 m 15.233104,0.12909 v 0 l -0.008,0.18808 m -15.527469,0.12061 v 0 l -0.42675,0.0996 0.421585,0.10547 m -2.855423,-0.19662 v 0 l -0.0084,0.18808 m 19.039257,0.12909 v 0 l -0.008,0.18811 m -1.57748,-0.18811 v 0 l -0.008,0.18811 m -14.264688,-0.18811 v 0 l -0.0084,0.18811 m 13.647188,0.12909 v 0 l -0.008,0.18808 m -12.995994,-0.18808 v 0 l -0.0084,0.18808 m -1.894654,-0.18808 v 0 l -0.0084,0.18808 m 13.965938,0.12936 v 0 l -0.11376,0.4155 0.10543,0.0894 0.10522,-0.4227 m -11.834145,-0.0824 v 0 l -0.0084,0.18811 m 13.330015,0.12906 v 0 l -0.008,0.18811 m -15.199817,0.11062 v 0 l -0.436241,0.10727 0.196266,0.2525 2.453499,1.24396 1.550071,0.52652 3.189881,0.0369 0.413635,-0.15186 -0.412316,-0.41376 -0.317367,0.18989 -0.308907,-0.20679 -0.851753,-0.0803 -0.491646,-0.50904 -0.569038,0.22058 -1.276032,-0.0423 -0.385032,-0.34006 m 5.792419,1.08801 v 0 l -0.0084,0.18811"
       style="fill:#C03A30;fill-opacity:1;fill-rule:nonzero;stroke:none"
       transform="matrix(1.3333336,0,0,-1.3333336,0,992.00014)" />
  </g>
</svg>
