<?xml version="1.0" encoding="UTF-8" standalone="no"?>
<!-- Created with Inkscape (http://www.inkscape.org/) -->

<svg
   version="1.1"
   id="svg1"
   width="64.220375"
   height="54.918194"
   viewBox="0 0 64.220375 54.918194"
   sodipodi:docname="14.svg"
   inkscape:version="1.4.3 (0d15f75, 2025-12-25)"
   inkscape:export-filename="..\Documents\zazemli-brand\doodles\13.svg"
   inkscape:export-xdpi="96"
   inkscape:export-ydpi="96"
   xmlns:inkscape="http://www.inkscape.org/namespaces/inkscape"
   xmlns:sodipodi="http://sodipodi.sourceforge.net/DTD/sodipodi-0.dtd"
   xmlns="http://www.w3.org/2000/svg"
   xmlns:svg="http://www.w3.org/2000/svg">
  <defs
     id="defs1" />
  <sodipodi:namedview
     id="namedview1"
     pagecolor="#ffffff"
     bordercolor="#000000"
     borderopacity="0.25"
     inkscape:showpageshadow="2"
     inkscape:pageopacity="0.0"
     inkscape:pagecheckerboard="0"
     inkscape:deskcolor="#d1d1d1"
     inkscape:zoom="1.1844758"
     inkscape:cx="-463.9183"
     inkscape:cy="-332.6366"
     inkscape:window-width="2401"
     inkscape:window-height="1368"
     inkscape:window-x="-7"
     inkscape:window-y="0"
     inkscape:window-maximized="0"
     inkscape:current-layer="g1">
    <inkscape:page
       x="0"
       y="0"
       inkscape:label="1"
       id="page1"
       width="64.220375"
       height="54.918194"
       margin="0"
       bleed="0" />
  </sodipodi:namedview>
  <g
     id="g1"
     inkscape:groupmode="layer"
     inkscape:label="1"
     transform="translate(-427.62186,-828.95258)">
    <path
       id="path15"
       d="m 349.15161,81.190315 v 0 l 0.84808,0.528893 1.21058,1.217926 0.64526,1.254005 1.16205,3.722771 -0.0393,3.186829 -0.823,2.110458 -0.62655,0.478477 0.16052,0.249428 -0.64945,0.72097 -0.77853,1.565346 -0.36389,-0.375603 -0.005,-0.979148 0.944,-2.775879 0.53202,-2.206559 0.29394,-0.326156 -0.39099,-0.531838 0.12064,-0.5028 -1.45191,-4.640159 -1.30234,-0.98468 -1.78198,-0.815957 -1.29565,0.0046 -0.62522,0.523163 -0.25113,-0.161224 -0.5968,0.559715 -0.80581,1.309845 -2.08597,2.103409 -1.45084,3.054565 -0.001,0.987244 0.83008,2.114174 0.65704,1.030144 -0.41131,0.437439 -0.65079,-0.0028 -0.17349,-0.309509 -1.01886,-0.848938 -0.50031,-0.836006 -0.0388,-0.336235 0.0419,-0.640862 0.21948,-0.321983 -0.89585,-6.011177 0.52893,-1.510636 0.64423,-1.093795 0.18036,0.129631 0.49194,-0.637772 0.83893,-0.481033 0.15537,0.419708 -0.14768,0.46965 -0.52225,0.348931 -1.17935,2.018852 0.003,1.294197 0.20673,0.308899 -0.18988,0.317413 0.34586,0.383385 0.76828,-1.23558 1.35244,-1.676812 1.21772,-1.210411 1.56506,-0.932419 1.82559,-0.557388 m -5.70434,0.696312 v 0 l -0.008,0.188171 m 3.08118,1.16581 v 0 l 0.18811,0.0084 m -0.72342,-0.0937 v 0 l -0.008,0.188171 m -0.62595,0.44619 v 0 l -0.008,0.188171 m -3.48056,0.129013 v 0 l -0.008,0.188172 m 0.64279,3.300811 v 0 l -0.008,0.188172 m 13.01285,1.080551 v 0 l -0.008,0.188171 m -12.6788,0.129013 v 0 l -0.008,0.188172 m 12.69565,0.763367 v 0 l -0.008,0.188171 m -23.71176,-0.17408 v 0 l 4.28549,1.11602 1.58505,0.633042 1.25107,0.934661 1.36636,1.358552 0.74979,1.093521 -0.003,0.659759 -0.4285,0.40387 -1.58609,-1.527123 -0.18182,-0.35466 -1.18924,-1.002113 -2.09024,-0.906471 -4.14008,-1.166581 -0.31964,0.216126 -0.64267,0.04615 -0.64264,-0.04631 -0.30075,-0.223168 -0.65966,-0.0033 -0.83609,0.500321 -0.97028,0.970512 -0.58966,1.44017 -0.54828,2.266106 0.21564,0.321091 -0.21439,0.654846 1.13663,3.072678 2.54529,2.54531 2.74865,1.14703 2.87146,0.038 2.13459,-0.86779 0.72412,-0.6703 0.6983,0.49819 0.89642,-1.25052 0.72532,0.24025 -0.60209,1.14505 -0.87085,0.68504 -3.69223,1.44036 -0.32894,-0.20056 -0.31727,0.18996 -0.33016,-0.20243 -2.83832,0.53672 -2.13697,-0.80201 -1.25497,-0.6466 -0.28238,-0.45053 -0.70911,-0.5402 -1.90383,-3.47055 -1.12717,-2.747451 10e-4,-2.256035 0.81671,-1.468865 1.6257,-2.25991 1.46121,-0.807587 0.66355,0.218529 1.55493,-0.539269 m 2.56357,0.658753 v 0 l -0.008,0.188171 m 0.32563,0.129013 v 0 l -0.008,0.188172 m 1.59433,0.129005 v 0 l -0.008,0.188171 m 2.94827,1.179673 v 0 l -0.18811,-0.0084 m -11.31561,0.543686 v 0 l -0.008,0.188171 m -0.61853,0.75338 v 0 l -0.42762,0.09951 0.41495,0.415139 m -0.31033,0.130012 v 0 l -0.16672,0.726395 0.005,1.267364 0.15347,0.414253 0.15827,-0.730232 -0.005,-1.267402 m 24.26956,-0.119256 v 0 l 1.46945,0.934273 0.7511,0.863999 0.31686,-0.189408 0.15021,0.09506 0.34879,0.518013 0.7619,0.591225 -0.0872,0.477668 0.59033,0.616593 0.56235,1.907417 -0.20129,0.32946 0.24441,0.64904 -0.5336,0.68558 0.49546,0.56022 0.0375,0.32546 -0.86252,1.81585 -0.30932,0.31243 -2.44617,0.52652 -2.25864,-0.001 -1.16382,-0.51352 -0.97686,-0.66007 -1.56861,-2.20405 -0.31405,-0.86113 -0.51548,-1.884194 3.7e-4,-0.672958 0.54489,-1.538903 1.21848,-1.823982 2.14013,-0.857918 m -22.17651,0.02447 v 0 l -0.008,0.188095 m -1.26032,0.129089 v 0 l -0.008,0.188126 m 25.70007,0.129051 v 0 l -0.008,0.188095 m -0.54071,-0.406235 v 0 l -0.18814,-0.0084 m -0.8465,0.172608 v 0 l -0.42315,0.144768 0.73876,0.108253 -9.7e-4,-0.214424 m -0.86591,-0.202767 v 0 l -0.18811,-0.0084 m -0.31332,0.31176 v 0 l 0.18811,0.0084 m 1.39807,0.30719 v 0 l 0.4155,0.113755 0.0893,-0.105431 -0.42267,-0.105194 m -2.20367,0.01325 v 0 l -0.008,0.188125 m -0.72498,-0.102951 v 0 l 0.18811,0.0084 m -0.50531,0.308739 v 0 l 0.18814,0.0084 m 2.13715,0.21508 v 0 l -0.42676,0.09963 0.42157,0.105468 m 2.93906,-0.09757 v 0 l -0.18814,-0.0084 m -0.53144,0.543762 v 0 l -0.008,0.188126 m -1.56079,-0.2071 v 0 l -1.93503,-3.89e-4 -0.5329,0.498535 -0.5014,2.731581 0.41501,0.52212 0.0882,0.48258 -0.18991,0.31737 0.59604,0.83771 1.05725,0.63053 1.92655,0.54485 0.94683,-0.57868 0.89209,-0.89854 0.50034,-0.83605 -0.003,-2.245773 -0.52887,-0.558899 m -5.91931,-1.110794 v 0 l -0.008,0.188133 m -20.92548,-0.188133 v 0 l -0.008,0.188133 m 28.23749,0.129051 v 0 l -0.008,0.188088 m -7.60391,-0.188088 v 0 l -0.008,0.188088 m 7.20453,0.214271 v 0 l 0.18811,0.0084 m -0.63822,-0.311759 v 0 l -0.18814,-0.0084 m 12.55057,0.565018 v 0 l 2.66776,1.088173 1.21194,1.202901 0.25363,0.31641 -0.16049,0.24939 0.90082,0.56857 1.95569,2.1421 0.84774,2.43306 -0.53524,1.17076 -0.7562,0.9002 -1.14633,1.95388 -1.29883,1.2987 -0.84411,0.48792 -0.33713,-0.20687 -1.23905,0.53598 -0.65316,-0.20924 -0.6355,0.24865 -1.58298,2.4e-4 -2.84778,-1.25719 -1.14218,-1.31805 -1.65289,-1.48322 -1.01962,-1.3369 0.0948,-0.46792 -0.20355,-0.30854 0.004,-0.33372 0.25549,0.008 0.47488,0.42533 0.42118,-0.10656 -0.19,-0.32032 0.25607,0.0108 0.85898,2.11193 0.78433,0.48417 0.8349,0.81742 4.01254,1.43664 0.64304,-0.25074 0.62619,0.26035 0.65957,0.003 1.7995,-0.82938 0.93964,-0.62287 0.28049,-0.44955 0.71002,-0.54152 0.31784,-0.61264 0.49197,-1.16352 0.038,-0.96839 -0.53998,-1.17278 -1.93262,-2.56695 -0.84442,-0.53671 -0.73056,-0.72078 -2.44104,-1.133282 -0.3175,0.211092 -0.33448,-1.2e-4 -0.62686,-0.262471 h -4.12112 l -0.96137,0.262281 -0.40338,-0.425672 0.48853,-0.545929 1.80716,-0.522537 1.29651,0.0051 0.30889,0.206719 0.63547,-0.248688 m -16.17041,0.06168 v 0 l -0.008,0.188087 m -0.40781,0.214272 v 0 l 0.18814,0.0084 m -0.72345,-0.09362 v 0 l -0.008,0.188096 m 18.08771,0.129089 v 0 l -0.008,0.188125 m -3.48057,-0.188125 v 0 l -0.008,0.188125 m -6.34903,1.264818 v 0 l 0.008,-0.18809 m 0.6398,0.63823 v 0 l -0.008,0.18813 m 14.28153,0.12905 v 0 l -0.008,0.18813 M 349.6967,101.96 v 0 l 0.008,-0.18813 m -0.22654,0.4201 v 0 l -0.18814,-0.008 m 0.7891,0.56711 v 0 l -1.3368,1.50382 -0.93432,0.62573 -0.0154,0.26654 0.66049,0.009 1.16296,-0.51255 0.40421,-0.40414 -0.0948,-0.46795 0.2066,-0.30898 m -25.47918,-0.73468 v 0 l -0.008,0.1881 m 0.32563,0.12909 v 0 l -0.008,0.18808 m 0.32559,0.12909 v 0 l -0.008,0.1881 m 24.43134,-4.945804 v 0 l -0.008,0.188125 m -0.85818,4.670179 v 0 l -0.41553,-0.11376 -0.0893,0.10543 0.4227,0.10523 m -22.52259,0.43687 v 0 l -0.008,0.18809 m 23.79697,0.44627 v 0 l -0.008,0.18809 m 18.08774,0.44627 v 0 l -0.008,0.18809 m -0.62592,-0.18809 v 0 l -0.008,0.18809 m -21.15747,-0.40623 v 0 l -0.18814,-0.008 m -4.83365,1.89723 v 0 l 0.26779,0.32319 -0.096,0.15185 -0.51794,0.3487 -1.16269,1.40377 0.27862,0.52699 0.51764,0.49064 -1.76098,2.80186 0.51736,4.05791 -0.47613,0.4278 0.22253,0.10853 1.22104,2.62878 0.82635,0.49102 1.91919,0.0389 0.63547,-0.24873 0.31784,0.18937 0.16541,-0.25085 1.94977,-0.85928 0.807,-1.1063 1.12226,-1.13929 1.13409,-3.3887 -0.19922,-0.32795 0.20673,-0.30893 0.0424,-0.9577 -0.57904,-3.47814 0.41616,-0.43865 0.54987,0.17946 1.16168,4.98441 -9.7e-4,2.57554 -0.83008,2.11414 -0.62287,0.94082 -1.61596,1.61595 -0.95755,0.63812 -2.09674,0.8154 -1.30759,6.2e-4 -2.12875,-0.52649 -1.87281,-0.92545 -0.95541,-0.63656 -1.61856,-1.62021 -0.81436,-1.78174 0.22308,-0.97899 -0.22028,-0.30038 -0.006,-0.66224 0.55481,-2.63486 0.82977,-1.93383 0.63644,-0.96281 1.16983,-0.86063 1.53156,-1.51842 0.48001,-0.10806 m 26.95706,0.33387 v 0 l -0.008,0.1881 m -14.58188,-0.1881 v 0 l -0.008,0.1881 m 0.96594,0.1206 v 0 l -0.42676,0.0996 0.42157,0.10547 m 1.26795,1.38928 v 0 l -0.008,0.1881 m -16.59915,-0.10853 v 0 l -1.42193,2.33092 -0.79542,2.11131 0.19928,0.32803 -0.24871,0.63548 0.0378,1.92055 0.54904,1.23109 0.0745,0.53706 1.07999,0.84607 0.11414,-0.43241 -0.58716,-2.51967 1.5e-4,-3.16793 0.9729,-2.11426 0.5166,-0.49149 -0.17529,-0.24269 -2.5e-4,-0.33379 0.20371,-0.3087 -0.26178,-0.31675 m 27.13415,0.22479 v 0 l -0.008,0.1881 m -2.52899,1.71499 v 0 l -0.008,0.18809 m -2.8462,-0.18809 v 0 l -0.008,0.18809 m -2.84619,-0.18809 v 0 l -0.008,0.18809 m 4.76614,0.12909 v 0 l -0.008,0.1881 m -3.15744,-0.19658 v 0 l -0.42676,0.0996 0.4216,0.10547 m -10.15057,0.75493 v 0 l -0.008,0.18809 m -13.31317,2.03218 v 0 l -0.008,0.18809 m 13.3316,0.12936 v 0 l -0.15634,0.40666 0.14783,0.41544 0.14825,-0.41289 m 0.49305,0.22487 v 0 l -0.008,0.1881 m -0.88934,0.47047 v 0 l -0.4798,0.696 0.0945,0.11061 0.4331,-0.0956 m -0.41879,0.53354 v 0 l -0.008,0.18809 m -0.30875,0.12851 v 0 l -0.43237,0.40132 0.10662,0.42105 0.42716,-0.4037 m -0.72968,0.52486 v 0 l -0.43658,0.0906 0.10474,0.42265 0.31854,-0.2622 m -0.62717,0.39194 v 0 l -0.008,0.1881 m -0.30875,0.12909 v 0 l -0.008,0.18809 m -0.30875,0.12908 v 0 l -0.008,0.1881 m -0.61981,0.12045 v 0 l -0.48117,0.099 -0.26154,0.32059 0.42121,0.10674 0.40457,-0.42822 m -1.67508,0.22715 v 0 l -0.32273,0.25907 -0.009,0.25542 0.43112,-0.0954"
       style="fill:#BE3A6B;fill-opacity:1;fill-rule:nonzero;stroke:none"
       transform="matrix(1.3333336,0,0,-1.3333336,0,992.00014)" />
  </g>
</svg>
