<?xml version="1.0" encoding="UTF-8" standalone="no"?>
<!-- Created with Inkscape (http://www.inkscape.org/) -->

<svg
   version="1.1"
   id="svg1"
   width="59.024105"
   height="110.69154"
   viewBox="0 0 59.024105 110.69154"
   sodipodi:docname="3.svg"
   inkscape:version="1.4.3 (0d15f75, 2025-12-25)"
   inkscape:export-filename="..\Documents\zazemli-brand\doodles\2.svg"
   inkscape:export-xdpi="96"
   inkscape:export-ydpi="96"
   xmlns:inkscape="http://www.inkscape.org/namespaces/inkscape"
   xmlns:sodipodi="http://sodipodi.sourceforge.net/DTD/sodipodi-0.dtd"
   xmlns="http://www.w3.org/2000/svg"
   xmlns:svg="http://www.w3.org/2000/svg">
  <defs
     id="defs1" />
  <sodipodi:namedview
     id="namedview1"
     pagecolor="#ffffff"
     bordercolor="#000000"
     borderopacity="0.25"
     inkscape:showpageshadow="2"
     inkscape:pageopacity="0.0"
     inkscape:pagecheckerboard="0"
     inkscape:deskcolor="#d1d1d1"
     inkscape:zoom="1.1844758"
     inkscape:cx="115.24085"
     inkscape:cy="66.696171"
     inkscape:window-width="1278"
     inkscape:window-height="1368"
     inkscape:window-x="0"
     inkscape:window-y="0"
     inkscape:window-maximized="0"
     inkscape:current-layer="g1">
    <inkscape:page
       x="0"
       y="0"
       inkscape:label="1"
       id="page1"
       width="59.024105"
       height="110.69154"
       margin="0"
       bleed="0" />
  </sodipodi:namedview>
  <g
     id="g1"
     inkscape:groupmode="layer"
     inkscape:label="1"
     transform="translate(-294.82843,-227.18909)">
    <path
       id="path4"
       d="m 239.00252,492.40933 v 0 l -0.008,-0.18814 m 0.31274,0.63855 v 0 l 0.007,0.24109 -0.31022,0.27924 -0.73797,-0.10971 0.41231,-0.41373 0.31722,0.18976 m -7.02088,-0.31491 v 0 l 0.13784,-0.41449 -0.24855,-0.63526 0.045,-0.95932 0.57571,-0.13287 2.17684,7.74176 -0.20133,0.32947 0.18994,0.3172 -0.18974,0.31829 0.30708,0.1868 0.31086,0.48169 1.16905,4.39316 -0.42339,0.42429 -0.46516,-0.25803 -0.59255,-1.72729 0.17341,-0.26493 -0.39124,-0.53393 0.007,-0.3161 -0.54912,-0.56431 -0.51884,-1.48608 0.005,-0.66174 0.2061,-0.3096 -0.25133,-0.16568 -0.58293,-1.40787 0.20045,-0.32889 -0.18995,-0.31726 0.1992,-0.32788 m -0.42831,-2.75177 v 0 l 0.008,-0.18811 m 6.41002,0.66971 v 0 l -0.68538,0.49026 -0.42941,-0.11075 0.40426,-0.43017 m 0.11061,1.04843 v 0 l -0.19717,0.64893 0.20361,0.30841 v 0.33447 l -0.20369,0.3085 0.24867,0.6355 -0.0278,3.37161 -0.69226,0.51331 -0.69871,-0.83005 -0.11246,0.44165 0.2036,0.30872 -0.40338,0.42535 -0.33379,-0.004 0.10286,-0.42191 -0.18986,-0.3172 0.20648,-0.30816 0.08,-0.53537 0.50959,-0.49158 -0.17514,-0.24222 -0.006,-0.34454 0.54592,-1.23108 -0.22112,-0.6658 0.59709,-2.03488 m 0.15691,1.94686 v 0 l -0.42674,0.0996 0.42157,0.10547 m -0.31796,0.75492 v 0 l -0.008,0.18814 m -0.0906,1.48297 v 0 l 0.18811,0.008 m -2.94369,1.80945 v 0 l -0.008,0.18811 m 0.95996,2.9837 v 0 l -0.008,0.18811 m 2.64606,7.18335 v 0 l 0.0858,1.80597 1.38376,0.89832 0.7124,1.01922 0.4527,0.28266 0.42071,0.61651 1.51494,3.09192 1.11134,2.68079 2.45813,2.47113 0.18193,0.35449 0.76068,0.53577 0.63442,-0.52789 0.64418,0.2033 0.52165,-0.54217 3.27027,-0.61188 0.34292,0.21454 4.4289,-0.89032 0.63403,0.24353 0.16733,-0.25366 1.16821,-0.41846 4.0451,-1.11249 0.31928,0.21308 0.64304,-0.20368 0.3172,0.18988 0.31738,-0.18994 0.38312,0.34436 -0.87186,0.55866 -0.61279,1.08453 -1.68628,1.69672 -0.76841,1.38525 -0.49911,0.51581 -1.08853,1.70709 -1.76611,2.09906 -0.45417,0.75482 -0.4494,0.2804 -2.72046,3.37372 0.16901,0.26013 -0.53229,0.92395 1.46167,6.66931 0.3414,0.95026 -0.20866,0.33874 0.48069,1.17078 1.12458,2.01959 0.48797,1.30096 0.23398,-0.15637 0.10449,0.0871 0.005,0.65021 -0.20657,0.30908 0.51044,0.5661 0.7922,0.49139 1.75821,2.74024 v 0.65094 l -0.42853,0.40387 -0.39776,-0.32709 -2.69782,-1.09332 -5.60818,-2.80176 -1.2957,-0.93964 -3.23491,-1.6734 -0.71327,-0.66626 -0.32544,-0.0374 -0.47002,0.14801 -0.79791,0.72961 -0.24947,-0.16052 -0.49141,0.6391 -1.26553,0.9472 -1.70226,0.76911 -0.57324,0.87463 -0.40802,-0.0582 -1.08835,1.55365 -0.88319,0.8991 0.0948,0.46808 -0.79843,1.16992 -0.24797,0.19263 -0.25041,-0.16077 -1.33531,1.42927 -0.23232,-0.17573 -0.48678,-1.24871 -0.5412,0.48748 -0.3338,-0.004 0.10289,-0.42193 -0.19741,-0.3263 0.53452,-0.92517 -0.003,-0.97705 -0.21422,-0.31799 0.52173,-0.93268 -0.16684,-0.25324 0.49738,-0.39086 -0.44052,-0.4668 0.11666,-0.49347 -0.21321,-0.31934 0.53749,-1.23932 -0.004,-0.66113 -0.20661,-0.30914 0.50701,-0.63403 -0.20658,-0.30909 0.005,-0.6502 0.5289,0.0155 -0.10398,-0.47772 -0.41282,-0.48157 0.24371,-0.63452 -0.30212,-0.95166 0.0283,-0.52619 0.50901,-0.49188 -0.1613,-0.25116 0.24331,-0.63373 -0.26049,-0.6261 -0.0418,-0.64147 0.24791,-0.63495 -0.89861,-0.63678 -2.91459,-1.34632 -0.49176,-0.47546 -3.25415,-1.66864 -1.94291,-0.8158 -0.49173,-0.51648 -0.26004,0.16895 -2.06236,-1.24512 -1.9526,-0.82892 -0.53081,-0.86554 0.006,-0.65966 0.85565,-0.7425 0.52178,0.21125 0.40766,-0.33472 2.79485,-0.82941 2.18695,-0.94244 0.70277,0.49432 -0.16085,0.25092 0.0872,0.1048 3.8213,-1.3e-4 2e-5,-0.21405 -0.32584,-0.0464 -2.73715,-0.0377 -0.51541,-0.69971 0.70741,-0.47998 0.326,0.19702 0.30855,-0.20374 0.33446,1.3e-4 0.29992,0.2174 0.33452,1.3e-4 0.32077,-0.21515 1.89003,0.53552 1.97084,-0.81006 -0.2158,-0.57068 0.2576,-0.9602 -0.20371,-0.30872 0.50702,-0.63421 -0.51874,-0.64673 0.29195,-1.47486 0.55734,-5.16009 -0.26208,-0.64893 0.0454,-1.27521 0.2554,-0.15454 0.91917,-2.35778 0.0758,-0.53553 0.85564,-0.75119 -0.18942,-0.31686 0.095,-0.15003 0.31708,-0.26193 m 0.007,0.32001 v 0 l -0.008,0.18811 m -0.30874,-13.1925 v 0 l -0.008,0.18811 m -0.30875,16.62246 v 0 l -0.008,0.18811 m -0.9431,0.44623 v 0 l -0.008,0.18811 m 2.0553,1.55786 v 0 l -0.90188,4.67029 0.005,0.66205 0.21782,0.32117 -0.90194,5.29077 -0.25966,0.71301 0.21692,0.53497 -2.63962,1.16571 -0.31966,-0.21612 -0.97702,-0.003 -1.55972,0.85162 -0.32619,-0.19733 -0.31721,0.18988 -0.30892,-0.20672 -0.85124,-0.0803 -0.48592,-0.52423 -2.21965,0.80555 2.04215,1.41058 1.49495,0.55212 1.14335,0.80799 2.90427,1.34295 0.50262,0.48664 1.70655,1.08801 1.68539,1.4306 0.63159,-0.34485 0.95298,0.91559 -0.0948,0.4679 0.18991,0.31714 -0.18986,0.3172 0.24408,0.6333 -0.57486,6.01587 0.10135,0.11785 0.5251,0.0194 1.00082,-1.17736 1.08583,-2.01984 0.56626,-0.51178 0.23834,0.15741 0.5513,-1.00556 0.79538,-0.16272 1.16484,0.53217 0.49142,0.6391 0.24947,-0.16052 0.14989,0.0946 1.21837,1.2016 1.38522,0.76837 1.78451,1.76789 2.11325,1.44543 0.96892,-0.21722 0.30036,0.22027 0.65132,-0.003 0.10544,-0.44446 -0.55274,-1.08179 -2.66566,-4.39123 -1.33963,-2.60718 -0.73548,-1.72278 0.19939,-0.328 -0.18993,-0.31738 0.52346,-0.62592 3.3e-4,-0.65088 -0.20656,-0.30908 2.41008,-3.17145 -0.2061,-0.30841 -0.0145,-0.52691 2.44417,-2.2685 0.84447,-0.53668 2.86418,-2.86786 0.10541,-0.47894 -0.43207,-0.0993 -0.14389,0.10767 -2.05896,2.01233 -0.48682,-0.11591 -0.62945,-0.9367 -0.47746,-0.15644 -2.21224,0.88562 -0.33679,-0.20648 -2.76766,0.82721 -0.3851,0.33991 -0.65088,1.8e-4 -0.30035,-0.22021 -0.33452,1.8e-4 -0.87456,0.84118 -0.48787,0.84412 0.25618,0.64459 -0.15202,1.04572 -0.52289,-0.27942 -1.14421,-2.26593 -1.10978,-1.12628 -1.74572,-4.26673 -2.08444,-3.97918 m 0.80393,-2.45783 v 0 l 0.18811,0.008 m -1.04062,0.54077 v 0 l -0.008,0.18811 m -3.16337,1.39776 v 0 l -0.008,0.18817 m 23.47979,2.98365 v 0 l -0.008,0.18817 m -22.51138,0.44623 v 0 l -0.008,0.18811 m 21.89389,0.12903 v 0 l -0.008,0.18817 M 243.132,523.94171 v 0 l -0.008,0.18817 m 17.77054,0.12902 v 0 l -0.008,0.18812 m -0.62595,0.12908 v 0 l -0.008,0.18812 m -9.18981,-0.18812 v 0 l -0.008,0.18812 m -7.28672,0.44622 v 0 l -0.008,0.18811 m -1.26029,-0.18811 v 0 l -0.008,0.18811 m 1.59435,0.12909 v 0 l -0.008,0.18811 m -7.92108,-0.18811 v 0 l -0.008,0.18811 m -1.48581,0.85279 v 0 l -0.48511,1.01953 -0.042,-0.70789 0.43132,-0.40491 m 20.92418,0.18811 v 0 l 0.008,-0.18811 m -4.85134,0.40625 v 0 l 0.18812,0.008 m -17.534,-29.90857 v 0 l -0.008,0.18811 m 3.18023,30.89557 v 0 l -0.008,0.18817 m 11.64507,0.21423 v 0 l 0.18813,0.008 m -11.82476,0.54072 v 0 l -0.008,0.18811 m -8.55545,-0.18811 v 0 l -0.008,0.18811 m 16.819,0.12909 v 0 l -0.008,0.18811 m -11.0929,-0.18811 v 0 l -0.008,0.18811 m 12.27942,-4.8606 v 0 l 0.18811,0.008 m -11.50159,4.97278 v 0 l -0.42676,0.0996 0.42157,0.10547 m -1.36827,0.20422 v 0 l 0.40667,0.15631 0.41545,-0.14782 -0.41291,-0.14832 m -1.04385,0.14136 v 0 l 0.18811,0.008 m -5.48114,-0.0936 v 0 l -0.008,0.18811 m 29.50621,0.76343 v 0 l -0.008,0.18811 M 245.35867,530.918 v 0 l -0.008,0.18811 m -14.26861,-0.2016 v 0 l -0.0124,0.21332 0.32797,0.0455 0.72887,-0.1532 -0.41405,-0.15307 m -1.57205,0.0524 v 0 l -0.42676,0.0997 0.42157,0.10547 m -6.33577,0.43176 v 0 l -0.13013,0.30243 0.59795,0.4201 3.15303,1.59394 1.73799,1.06817 0.54405,0.0768 0.49182,0.50964 0.25118,-0.16132 0.30835,0.20618 0.71095,-0.0529 -1.42361,-0.92999 -2.35135,-1.09961 -0.90371,-0.75958 m -3.6295,-1.16785 v 0 l -0.008,0.18811 m -1.26029,0.12903 v 0 l -0.008,0.18811 m 33.94675,0.12909 v 0 l -0.008,0.18811 m -3.26244,3.38611 v 0 l 0.18813,0.008 m -20.69985,-0.10211 v 0 l -0.42674,0.0996 0.42157,0.10547 m 0.31639,0.12054 v 0 l -0.008,0.18811 m 0.96152,0.1294 v 0 l -0.11374,0.41546 0.1054,0.0894 0.10523,-0.42267 m 0.62112,0.0166 v 0 l -0.18812,-0.008 m 16.91348,1.4953 v 0 l -0.008,0.18811 m -14.89907,0.44623 v 0 l -0.008,0.18811 m -2.84621,-44.59342 v 0 l -0.008,0.18811 m 3.8998,45.90213 v 0 l -0.18811,-0.008 m 17.86502,0.54376 v 0 l -0.008,0.18811 m -18.06871,-0.24225 v 0 l -0.43304,0.13556 0.0977,0.43403 0.47837,-0.10535 0.26035,-0.31952 m 17.25757,0.62897 v 0 l 0.18812,0.008 m 0.54529,1.49225 v 0 l -0.008,0.18817 m -19.0224,0.44623 v 0 l -0.008,0.18811 m 19.67362,0.44623 v 0 l -0.008,0.18811 m -2.31088,-0.10291 v 0 l 0.18811,0.008 m -9.28574,0.22382 v 0 l -0.11375,0.41553 0.10541,0.0894 0.10524,-0.42267 m -0.73282,-0.0824 v 0 l -0.008,0.18811 m 2.22868,0.12902 v 0 l -0.008,0.18818 m -1.97142,0.16735 v 0 l -0.99009,1.31379 0.10659,0.4212 0.30995,-0.20685 0.5269,-0.0789 0.5406,-0.7608 m -1.05156,-0.72675 v 0 l -0.008,0.18811 m -5.06645,-0.18811 v 0 l -0.008,0.18811 m 15.7684,0.2143 v 0 l 0.18813,0.008 m -6.66466,-0.31177 v 0 l -0.18812,-0.008 m -1.48298,0.22656 v 0 l -0.008,0.18811 m -8.55543,-0.18811 v 0 l -0.008,0.18811 m 7.30358,0.44623 v 0 l -0.008,0.18811 m -7.60391,-0.18811 v 0 l -0.008,0.18811 m 19.67363,0.44629 v 0 l -0.008,0.18811 m -10.77572,-0.18811 v 0 l -0.008,0.18811 m -0.63113,0.0141 v 0 l -0.42,0.51654 0.4183,0.4198 0.4188,-0.42029 m -2.94777,-0.40081 v 0 l -0.11376,0.41552 0.10543,0.0893 0.10522,-0.42267 m -5.80615,-0.0821 v 0 l -0.11374,0.41552 0.10541,0.0893 0.10522,-0.42267 m 11.32005,0.23474 v 0 l -0.008,0.18811 m -4.74928,-0.18811 v 0 l -0.008,0.18811 m 0.41081,-25.1463 v 0 l -0.18813,-0.008 m 0.73728,25.28381 v 0 l -0.008,0.18811 m -2.21183,-0.18811 v 0 l -0.008,0.18811 m -6.33519,-0.18811 v 0 l -0.008,0.18811 m 7.93794,0.12903 v 0 l -0.008,0.18817 m -1.25874,-0.18787 v 0 l -0.11376,0.41553 0.10543,0.0893 0.10522,-0.42267 m -5.80771,-0.0825 v 0 l -0.008,0.18817 m 6.35203,0.12903 v 0 l -0.008,0.18811 m -1.32146,-0.14594 v 0 l -0.054,0.69336 0.43284,0.0953 0.045,-0.20099 m -3.44923,-0.84796 v 0 l -0.18813,-0.008 m -2.75171,0.22656 v 0 l -0.008,0.18811 m 19.35645,0.44629 v 0 l -0.008,0.18811 m -15.21027,-0.1966 v 0 l -0.42676,0.0996 0.42157,0.10547 m -1.58668,-0.19659 v 0 l -0.008,0.18811 m -2.52903,-0.18811 v 0 l -0.008,0.18811 m 21.57671,0.12903 v 0 l -0.008,0.18811 m -2.8462,-0.18811 v 0 l -0.008,0.18811 m -11.72724,-0.18811 v 0 l -0.008,0.18811 m -1.57747,-0.18811 v 0 l -0.008,0.18811 m 0.64277,0.12909 v 0 l -0.008,0.18811 m -0.94312,-0.18811 v 0 l -0.008,0.18811 m -1.26029,-0.18811 v 0 l -0.008,0.18811 m -2.84621,-0.18811 v 0 l -0.008,0.18811 m 4.44896,0.12909 v 0 l -0.008,0.18811 m -1.89467,-0.18811 v 0 l -0.008,0.18811 m -3.1618,-0.18787 v 0 l -0.15633,0.40668 0.14783,0.41546 0.14827,-0.4129 m 19.52385,-0.0924 v 0 l -0.008,0.18811 m -15.21624,-0.18811 v 0 l -0.008,0.18811 m 16.50183,0.12909 v 0 l -0.008,0.18811 m 0.32563,1.71497 v 0 l -0.008,0.18811 m -0.62594,-0.18811 v 0 l -0.008,0.18811 m -21.55985,-0.18811 v 0 l -0.008,0.18811 m -0.30874,0.12909 v 0 l -0.008,0.18811 m 2.22869,0.44623 v 0 l -0.008,0.18811 m 21.89389,0.12909 v 0 l -0.008,0.18811 m -23.1458,0.12848 v 0 l -0.43528,0.40173 0.1096,0.73785 0.4301,-0.40423 m -0.73874,-0.73474 v 0 l -0.008,0.18811 m -0.30876,0.76343 v 0 l -0.008,0.18811 m 13.73233,6.24127 v 0 l -0.18808,0.32208 0.20783,0.3103 0.042,1.27594 -0.24867,0.63544 0.24436,0.64899 -0.5336,0.6856 0.49559,0.56012 0.0423,0.32666 1e-5,1.58368 -0.26229,0.96137 0.53714,0.61731 0.042,0.32672 -0.0418,0.64142 -0.26049,0.6261 0.24373,0.63433 -0.18988,0.3172 0.18991,0.3172 -0.18988,0.3172 0.24346,0.63428 -0.14675,0.41254 -0.31808,-0.18964 -0.23252,0.15607 -0.49061,-1.27454 0.4761,-0.45447 -0.54243,-4.36132 1.8e-4,-5.07093 0.096,-0.41571 0.49245,-0.65277 m 2.19867,1.33179 v 0 l 0.54562,0.51935 -0.11306,0.49334 0.43133,0.0994 0.24207,-0.17462 0.37516,0.55108 0.72297,1.64795 0.6633,0.71302 -0.0996,0.43444 -0.65139,0.003 -0.54669,-0.51593 -0.77936,-1.71313 -0.98085,-1.0539 0.20371,-0.30871 -0.203,-0.64368 m -2.21819,-0.006 v 0 l 0.18813,0.008 m -0.0891,3.39532 v 0 l -0.008,0.18817 m 4.76613,0.12903 v 0 l -0.008,0.18811 m 0.74452,0.84125 v 0 l 2.54184,4.43738 -0.17987,0.58551 0.49686,0.70032 -0.10447,0.10614 -0.47776,-0.10498 -0.2735,-0.30927 0.1745,-0.57477 -0.6391,-0.49121 -0.696,-1.01288 0.0664,-0.3988 -0.63978,-0.49255 -1.12509,-2.09595 0.1042,-0.44318 m -4.42329,1.9198 v 0 l -0.11376,0.41547 0.10542,0.0894 0.10523,-0.42266 m 5.61079,0.23474 v 0 l -0.008,0.18811 m -5.70082,2.3493 v 0 l -0.008,0.18817"
       style="fill:#C47A10;fill-opacity:1;fill-rule:nonzero;stroke:none"
       transform="matrix(1.3333336,0,0,-1.3333336,0,992.00014)" />
  </g>
</svg>
