<?xml version="1.0" encoding="UTF-8" standalone="no"?>
<!-- Created with Inkscape (http://www.inkscape.org/) -->

<svg
   version="1.1"
   id="svg1"
   width="149.99796"
   height="132.12256"
   viewBox="0 0 149.99795 132.12256"
   sodipodi:docname="13.svg"
   inkscape:version="1.4.3 (0d15f75, 2025-12-25)"
   inkscape:export-filename="..\Documents\zazemli-brand\doodles\12.svg"
   inkscape:export-xdpi="96"
   inkscape:export-ydpi="96"
   xmlns:inkscape="http://www.inkscape.org/namespaces/inkscape"
   xmlns:sodipodi="http://sodipodi.sourceforge.net/DTD/sodipodi-0.dtd"
   xmlns="http://www.w3.org/2000/svg"
   xmlns:svg="http://www.w3.org/2000/svg">
  <defs
     id="defs1" />
  <sodipodi:namedview
     id="namedview1"
     pagecolor="#ffffff"
     bordercolor="#000000"
     borderopacity="0.25"
     inkscape:showpageshadow="2"
     inkscape:pageopacity="0.0"
     inkscape:pagecheckerboard="0"
     inkscape:deskcolor="#d1d1d1"
     inkscape:zoom="1.1844758"
     inkscape:cx="-187.84681"
     inkscape:cy="-276.91575"
     inkscape:window-width="2401"
     inkscape:window-height="1368"
     inkscape:window-x="-7"
     inkscape:window-y="0"
     inkscape:window-maximized="0"
     inkscape:current-layer="g1">
    <inkscape:page
       x="0"
       y="0"
       inkscape:label="1"
       id="page1"
       width="149.99796"
       height="132.12256"
       margin="0"
       bleed="0" />
  </sodipodi:namedview>
  <g
     id="g1"
     inkscape:groupmode="layer"
     inkscape:label="1"
     transform="translate(-152.33226,-840.79724)">
    <path
       id="path12"
       d="m 140.45705,14.310271 v 0 l 0.0999,0.657283 0.68299,0.731854 0.28082,0.550188 1.43321,3.998211 0.75238,0.940158 0.70841,0.539036 0.52954,0.836935 1.18599,1.343527 0.2494,-0.160526 0.6334,0.506592 0.30905,-0.206757 0.9682,3.87e-4 1.16208,0.814015 0.83285,0.816183 2.8412,1.594497 1.09447,0.455174 0.49182,0.47546 1.26091,0.627315 3.92481,1.242007 2.63667,0.54647 0.9715,-0.264911 0.95265,0.302624 2.53415,4.63e-4 5.21834,-0.625532 3.2313,-0.98786 0.61649,-0.961454 0.76881,-0.541205 0.93392,0.537411 0.64317,-0.221703 0.96895,0.217211 0.38879,-0.340412 1.96221,-0.713346 1.78752,-0.866284 2.66605,-0.862877 0.90097,-0.748502 2.74137,-1.438929 0.25992,0.170206 2.15369,-2.487267 0.67299,-0.491334 0.4228,-0.05064 0.50893,0.290619 0.54822,0.752374 1.2e-4,1.302872 -1.93144,3.868427 -0.71828,2.277954 -0.73918,1.757117 0.20778,0.337856 -1.79781,6.636711 0.21187,0.341263 -0.85541,3.140365 0.21045,0.65403 -0.18986,0.317181 0.18986,0.317181 -0.24373,0.634361 0.24376,0.634361 -0.19916,0.327946 1.05669,3.926815 1.04315,3.023979 1.30295,2.702847 1.52738,2.290191 0.81515,0.831051 0.49139,0.792175 0.83669,0.529435 1.06067,1.05043 1.38522,0.768402 1.15015,1.133442 0.84448,0.536713 0.74147,0.731933 0.84415,0.487927 0.31791,-0.214268 0.96828,3.89e-4 4.20123,2.568577 1.09618,0.477783 0.93208,0.615311 0.4912,0.639083 0.24139,-0.177482 0.65021,2.29e-4 1.03214,0.686401 2.43086,1.125542 0.54402,0.07681 0.49178,0.509689 0.26181,-0.170899 9.1736,2.731575 2.03852,0.970597 -0.11314,0.633896 -1.16592,0.08216 -0.54136,0.559784 -0.84016,-0.270096 -4.12019,-3.89e-4 -2.5416,0.625534 -0.85847,-0.03353 -0.34647,-0.30355 -0.69031,0.618103 -0.31471,-0.229599 -0.66206,-0.0053 -3.13312,0.867836 -0.66176,-0.0048 -0.30897,-0.206681 -0.31717,0.189873 -0.31786,-0.189331 -0.16653,0.252365 -1.2692,0.46183 -6.09537,1.686341 -2.85383,0.950454 -0.39836,0.327408 -0.32642,-0.197387 -2.51753,1.158294 -0.32822,-0.199318 -0.97513,0.631188 -3.3627,1.432419 -0.66966,0.668899 -0.88437,1.96743 -0.88286,5.545242 0.86466,6.005951 -0.22171,0.666153 0.82817,2.823296 0.662,1.586911 -0.004,0.66108 -0.26062,0.62538 0.57066,1.57583 -0.19941,0.32826 0.33282,0.40445 0.77928,1.71309 0.36014,0.41096 -0.21094,0.65221 0.65775,1.03115 1.08417,3.29295 0.41522,0.73306 0.5912,0.63428 -0.10768,0.47814 -0.32086,0.28071 -1.36412,-1.31627 -0.84546,-0.54315 0.0969,-0.8017 -0.42207,0.10283 -0.15055,-0.0951 -1.28384,-1.27724 -2.69812,-3.32947 -0.84393,-0.53628 -1.1481,-1.13228 -0.75501,-0.45363 -1.46526,-1.44945 -0.9398,-0.62232 -4.54222,-2.308669 -2.96503,-1.059288 -0.8052,0.115067 -0.25983,0.317802 0.18991,0.317414 -0.1974,0.326278 0.52205,0.933346 -0.21619,0.54662 0.35034,0.41917 -0.30571,0.37135 0.29793,0.33429 0.51186,1.81648 -0.4321,0.11881 -0.31034,-0.20392 -0.10524,0.73716 0.42551,-0.10226 -0.0686,0.34688 0.45187,0.44646 -0.32528,0.32198 -0.36937,-0.30695 -0.72129,1.25245 -0.23819,-0.15738 -0.3081,0.20617 -0.96746,-0.005 0.0155,-0.52897 -0.47771,0.10396 -0.47349,0.42928 -0.32448,0.0378 -2.2089,-0.57261 -0.32945,0.20129 -0.31721,-0.18991 -0.3172,0.18988 -0.3089,-0.20676 -0.95987,-0.0464 -0.64261,0.0464 -0.30887,0.20672 -0.63435,-0.24373 -0.63437,0.24373 -0.30779,-0.2035 -0.34665,-0.008 -4.30407,0.55941 -0.85918,-1.06851 0.002,-0.33449 0.85311,-0.74211 0.4533,0.18236 0.62238,-0.78672 0.50189,-1.17158 -0.21321,-0.3193 0.20409,-0.6449 -0.4211,-0.10682 -0.30983,0.20331 0.106,-0.73693 -0.52661,0.0158 0.19965,-0.64226 -0.18962,-0.31827 0.29478,-0.11418 0.67171,0.81135 0.50093,-1.002038 -0.17131,-0.263436 0.45372,-0.4393 -0.59163,-0.06865 -0.54114,0.568779 -0.62863,-0.116622 0.10551,-0.478981 0.41286,-0.481545 -0.18986,-0.317566 0.52046,-0.624992 0.005,-0.343704 -0.89405,-1.690362 -5.93588,0.582596 -7.21942,1.521279 -0.88065,0.315826 -0.50796,0.489708 -2.00388,1.200653 -0.54026,0.709125 -2.33214,1.39728 -0.83092,0.81509 -0.75499,0.45363 -1.61716,1.61803 -0.76892,1.385 -0.4541,0.28466 -0.86093,1.20739 -0.36009,0.015 -0.59403,-1.38739 0.005,-0.66166 0.22011,-0.30038 -0.10628,-0.42067 -0.75154,1.02921 -0.0761,0.85223 -0.74318,0.54654 -0.4861,-0.11154 -0.23244,-0.25245 0.93621,-1.02468 -0.24207,-0.45583 0.4355,-0.47956 0.0803,-0.53543 0.50963,-0.49181 -0.16131,-0.25136 0.52314,-0.62518 3.4e-4,-0.96823 -0.21736,-0.32063 0.50784,-1.49348 0.34059,-0.38908 -0.22383,-0.851883 0.49931,-0.491875 -0.17535,-0.24292 -2.7e-4,-0.333793 0.20373,-0.30851 -0.18983,-0.317215 0.2487,-0.635483 v -1.583664 l -0.24867,-0.635483 0.20669,-0.308891 0.042,-1.275925 -0.3026,-0.952629 0.25748,-0.625686 -0.21736,-0.634362 0.21089,-0.651939 -0.69128,-1.660088 -1.083,-3.960266 -2.95128,-5.989647 -1.0177,-0.849403 -1.20265,-2.005455 -0.70759,-0.539581 -0.80661,-1.153725 -0.0792,-0.527268 -0.70005,-0.539192 -0.52953,-0.836937 -1.36644,-1.375892 -0.44631,-0.747109 -0.7922,-0.491417 -1.85238,-1.708404 -1.09015,-0.593552 -2.44886,-1.819687 -0.84446,-0.875809 -0.073,-0.501636 -1.9479,-0.855286 -0.50045,-0.555454 0.40386,-0.428535 0.65978,-0.0035 0.92526,0.534466 0.32645,-0.197384 0.8007,0.729221 0.40287,-0.06714 0.44699,0.451611 0.24478,-0.178879 0.6408,-0.04182 0.97212,0.268628 4.96954,-1.757115 1.4339,-0.809135 3.00429,-1.109589 3.1618,-1.899601 0.93358,-0.748115 0.69132,-0.837479 0.35972,0.295654 1.13176,-1.179439 0.35465,-0.18182 0.91385,-1.08659 0.32646,-0.173306 0.53032,-0.997074 1.13203,-0.831127 1.08797,-1.70655 1.13484,-1.152256 1.25406,-2.521416 1.13628,-2.757366 -0.20885,-0.338864 0.50105,-1.170684 0.34906,-0.396012 2e-4,-0.650856 -0.2232,-0.300766 -0.0418,-0.641483 0.2484,-0.635525 -0.18985,-0.317181 0.20674,-0.308895 0.0424,-1.274837 -0.58573,-5.128399 -1.61135,-10.562208 -0.92767,-2.055092 0.004,-0.667814 0.48632,0.401199 0.0542,-0.71172 -0.42835,-0.403909 -0.30777,0.205904 -0.46087,0.03817 -0.93239,-4.253054 0.27995,-0.654572 m 1.43381,4.023532 v 0 l -0.42676,0.09966 0.42159,0.105469 m -0.55022,1.155742 v 0 l -0.41551,0.113755 -0.0894,-0.105469 0.42267,-0.105236 m 52.33206,1.281963 v 0 l -0.008,0.188172 m -51.05764,0.129087 v 0 l -0.008,0.188093 m 50.44014,0.446268 v 0 l -0.008,0.188094 m 0.85243,0.208305 v 0 l 0.0996,0.426752 0.1055,-0.421564 m -1.68773,-0.09517 v 0 l -0.0124,0.208227 0.42269,-0.105236 m -49.56907,-0.0923 v 0 l -0.008,0.188171 m 48.85425,0.129009 v 0 l -0.008,0.188172 m 1.17809,0.214268 v 0 l 0.18812,0.0084 m -48.30052,0.22356 v 0 l -0.008,0.188093 m -1.25873,-0.187862 v 0 l -0.11375,0.415525 0.10542,0.08936 0.10521,-0.422727 m 47.88103,0.01665 v 0 l -0.18813,-0.0084 m 0.74503,0.533769 v 0 l -2.53116,0.836318 -2.63871,1.71739 -3.61904,1.091314 -3.04876,1.769197 -1.06486,0.40329 -2.95856,0.735029 -0.34062,-0.211248 -2.87636,0.919638 -4.40899,0.602613 -0.64411,-0.253374 -2.84598,0.89246 -0.65199,-0.03647 -6.39442,-1.49058 -3.08498,-1.087444 -2.77643,-0.760428 -3.17981,-1.299774 -0.9323,-0.615313 -0.49139,-0.639085 -0.25052,0.160295 0.0681,-0.344284 -1.86911,-1.085894 -1.3602,-1.309997 -0.43455,0.09966 -0.003,0.968578 0.2605,0.626076 -0.25562,0.646984 1.18468,6.445673 0.30504,0.818119 -0.22218,0.66642 0.53314,3.77953 -0.20299,0.330497 0.19743,0.326321 -0.52201,0.933342 0.25619,0.644585 -0.0372,2.555488 -0.83911,2.815907 -1.88092,4.040722 -0.63658,0.955413 -1.13349,1.150166 -1.20054,2.003674 -0.76094,0.584804 -2.96358,2.953434 -1.38522,0.768402 -1.15223,1.134682 -2.20932,1.276851 -5.38027,2.538453 -5.23367,1.730091 -0.17509,0.231842 0.97761,1.048805 0.5367,0.844444 0.58134,0.574967 0.84446,0.53672 4.29803,4.298042 1.88808,2.519326 1.69118,1.383873 2.84964,4.436805 0.80478,1.790108 -0.19939,0.328178 0.33386,0.406388 0.35099,0.960525 1.08066,4.319725 0.66633,1.906334 -0.005,1.296211 -0.20671,0.309052 0.095,0.15007 0.31707,0.261894 0.42852,-0.403907 0.0378,-0.324387 -0.57397,-3.47683 0.20265,-0.330345 -0.20874,-0.537559 0.35034,-0.419167 -0.24296,-0.464004 0.1009,-0.165947 -0.52305,-0.625298 -0.0376,-0.324844 0.0957,-0.420021 0.38496,-0.451454 0.17178,0.227584 0.60227,2.231263 -0.0425,0.957039 -0.18055,0.249885 0.30497,0.371079 -0.38532,0.625846 0.0375,0.346833 0.53936,-0.347687 -0.20536,0.649536 0.2067,0.308899 0.042,1.593102 -0.24867,0.635444 0.20857,0.537956 -0.34432,0.412972 0.3799,0.621193 -0.24414,0.648147 0.20352,0.308045 0.004,0.34378 -0.53265,0.924981 0.2515,0.642646 -0.58063,1.567894 0.22946,0.9898 -0.54886,1.54731 -0.0743,0.859 -0.55982,0.54136 0.228,0.5136 0.0413,0.9735 -0.53702,0.68732 0.16133,0.25117 -0.18947,0.31679 0.34439,0.38312 1.20128,-1.53584 2.21385,-1.91544 3.21512,-2.075191 2.10146,-1.767608 1.24475,-0.644074 1.17376,-0.48909 0.6534,0.209305 0.3932,-0.323524 3.64174,-1.119156 0.40518,-0.333092 0.30874,0.203735 0.64302,-0.203697 0.30851,0.203697 0.33448,-1.22e-4 0.62683,-0.262466 h 4.12114 l 0.63546,0.248726 0.31719,-0.189873 0.31734,0.189873 0.72909,-0.729142 -0.20671,-0.309051 -0.0424,-0.957665 0.57882,-3.160965 -0.20198,-0.329643 0.79505,-0.702659 -0.49468,-0.558319 -0.0372,-0.32547 0.14672,-0.412423 0.32005,0.189949 0.1136,-0.303474 -0.49869,-0.491875 0.24858,-0.738281 0.74352,-0.464859 -0.72812,-0.625763 0.21498,-0.325004 -0.18991,-0.317254 0.18947,-0.316558 -0.16178,-0.252755 0.45167,-0.447044 -0.221,-0.570633 0.0246,-1.456116 0.55318,-0.447273 -0.49031,-0.405304 0.49028,-2.118126 -0.2205,-0.550499 0.34491,-0.413666 -0.34598,-0.632812 0.49925,-0.571404 -0.43671,-0.484832 0.48246,-0.830895 -0.22475,-0.643654 -0.0133,-0.851654 0.50899,-0.491638 -0.22055,-0.569084 0.042,-1.593109 0.2067,-0.308891 -0.20369,-0.30851 1.3e-4,-0.33445 0.2204,-0.300377 0.073,-0.820595 0.83022,-0.535011 -0.15773,-0.239281 0.24812,-0.634666 -0.0421,-0.958664 -0.26513,-0.627319 0.0417,-0.641488 0.20649,-0.309974 -0.30291,-0.113526 -0.48555,0.514489 -0.98587,-0.716675 0.16878,-0.227043 1.65045,-0.530754 -1.32104,-0.585652 -0.51991,-0.557388 0.29756,-0.520916 0.7084,-0.539116 0.69611,-0.940155 0.41079,0.410644 -0.15602,0.232621 1.31876,0.508217 0.3195,-0.214112 0.34595,-0.0064 1.51059,0.520066 0.79466,-1.6628 -0.19937,-0.328255 0.72934,-0.729141 0.42862,0.403755 0.0423,0.326626 -0.0419,1.593105 -0.20674,0.309128 0.74575,0.861714 0.41076,-0.242455 -0.10926,0.484291 -0.49031,0.338089 -0.56631,1.084812 0.19926,0.327942 -0.18992,0.317177 0.18986,0.317184 -0.24371,0.634362 0.14749,0.469421 0.7381,1.107346 -0.19741,0.326316 0.18993,0.317177 -0.18988,0.317337 0.50705,0.634056 -0.18985,0.31733 0.2037,0.30851 2e-5,0.334526 -0.21123,0.31765 0.50339,0.886802 0.0691,0.994362 -0.0411,1.289787 -0.20671,0.309052 0.50705,0.634048 -0.19938,0.328255 1.48799,3.460953 -0.006,0.977485 -0.43448,0.09989 -0.30931,-0.203194 -0.12084,0.266305 1.18431,0.772354 3.4e-4,0.649231 -0.1787,0.24485 0.39168,0.532921 -0.077,0.244545 0.82002,2.440574 0.0378,0.96904 -0.26227,0.96138 0.33176,0.377037 0.51878,3.090035 -0.21002,0.339325 1.47511,3.154152 -0.42205,-0.0858 -0.12069,0.269249 0.87818,0.601837 -0.21726,0.492074 0.18965,0.318298 -0.29713,0.11306 -0.69,-0.922272 -0.48018,0.797791 0.5235,0.653648 -0.52175,0.933106 0.20505,0.260307 1.87167,0.925598 2.5848,0.713539 3.13925,1.8359 1.38301,0.58067 0.53166,0.69914 1.16028,0.53616 0.81798,0.97419 1.00792,0.54036 1.74219,1.89069 0.24879,-0.16002 0.15921,0.10163 2.12737,2.74797 1.52113,1.46309 0.11256,-0.43133 -0.84184,-2.5002 -0.96272,-2.22781 0.19941,-0.32826 -0.33276,-0.40417 -0.51251,-1.16299 0.004,-0.66108 0.20661,-0.3092 -0.33268,-0.40418 -0.51097,-1.16271 0.21989,-0.664908 -0.65678,-2.437828 -0.8335,-4.825623 0.21091,-0.654335 -0.24866,-0.635444 0.0364,-4.459191 0.56273,-2.593124 0.8879,-2.357094 0.45379,-0.28698 0.53903,-0.708473 0.932,-0.615074 1.16362,-0.511856 0.58837,0.181587 0.53376,-0.391136 0.16679,0.100899 0.17096,-0.266533 1.17123,-0.689262 1.81615,-0.554917 0.32909,-0.26429 0.32641,0.197312 1.35512,-0.684235 2.36119,-0.771965 0.38963,-0.34343 0.65093,-3.12e-4 0.30948,0.205986 0.1615,-0.241448 3.62555,-1.237594 0.97842,0.0042 0.30943,0.206138 0.1623,-0.242607 1.58986,-0.46981 3.30271,-0.767479 0.66207,0.0052 0.30913,0.206604 0.6255,-0.520607 0.63443,0.217208 0.64304,-0.203659 0.32893,0.200562 1.55467,-0.537872 0.66657,0.222084 1.98664,-0.579918 -0.51329,-0.41111 -1.89952,-0.967034 -6.21956,-2.16172 -3.1739,-0.831055 -1.534,-0.606094 -2.79538,-1.533089 -2.25506,-1.012565 -1.13989,-0.805184 -1.0953,-0.476932 -1.83656,-1.823792 -0.35464,-0.18182 -2.0848,-2.422607 0.13018,-0.180969 -1.71657,-1.406094 0.17436,-0.240906 -0.004,-0.333057 -0.42212,0.102837 -1.78664,-1.228455 -1.63501,-2.138493 -0.92459,-1.820224 -1.15195,-4.093689 0.21514,-0.320744 -0.20369,-0.643112 0.20351,-0.307888 0.005,-0.345135 -0.25839,-0.669983 -0.64428,-4.705593 5e-5,-4.119091 0.87776,-3.459793 1.39624,-2.906429 1.2368,-3.6777 0.51627,-0.491646 -0.22051,-0.568926 0.0421,-1.275848 0.22023,-0.300221 m 0.84991,0.21628 v 0 l -0.008,0.188172 m -44.31165,-0.08905 v 0 l -0.18811,-0.0084 m -0.54528,0.09362 v 0 l 0.008,-0.188094 m -0.86093,0.420094 v 0 l -0.18811,-0.0084 m 1.69477,1.169603 v 0 l -0.42675,0.09966 0.42157,0.105469 m 0.95955,0.105701 v 0 l -0.71795,0.04708 0.68503,0.489787 0.34265,-0.0082 -0.008,-0.254766 m 1.5929,0.05816 v 0 l -0.008,0.188093 m 0.64277,0.129009 v 0 l -0.008,0.188172 m -1.89465,-0.188172 v 0 l -0.008,0.188172 m 30.14058,0.763448 v 0 l -0.008,0.188094 m -26.95192,0.129087 v 0 l -0.008,0.188093 m 25.38288,0.129009 v 0 l -0.008,0.188172 m -25.04883,0.129087 v 0 l -0.008,0.188093 m 22.84542,0.12901 v 0 l -0.008,0.188171 m -3.16338,1.080628 v 0 l -0.008,0.188095 m -14.04656,-0.102915 v 0 l 0.18811,0.0084 m 4.66864,0.223482 v 0 l -0.008,0.188171 m 0.6428,0.129086 v 0 l -0.008,0.188095 m 25.38288,0.44619 v 0 l -0.008,0.188171 m -0.40783,0.531449 v 0 l 0.18813,0.0084 m -45.54492,-9.841038 v 0 l 0.18811,0.0084 m 45.26774,11.0077 v 0 l -0.008,0.188095 m -0.62592,-0.188095 v 0 l -0.008,0.188095 M 144.25876,23.530876 v 0 l -0.18812,-0.0084 m 45.03273,11.100159 v 0 l 0.20828,0.01231 -0.10523,-0.422649 m -44.71569,0.638 v 0 l -0.008,0.188172 m 44.41527,0.763679 v 0 l -0.11377,0.415524 0.10544,0.08936 0.10522,-0.422726 m -0.73282,2.137794 v 0 l -0.008,0.188172 m 0.008,0.44619 v 0 l -0.008,0.188171 m -20.94113,3.868038 v 0 l 0.19242,0.96703 2.25364,1.162636 0.66623,0.665332 0.62226,0.939541 0.51342,1.163952 -0.004,0.661076 -0.20658,0.308971 0.24867,0.635445 -0.0378,1.286224 -0.51263,1.162945 -1.29164,1.290173 -1.66364,0.702583 -2.33757,0.746876 -0.35615,-6.98e-4 -2.73757,-1.1353 -0.48401,-0.629559 -0.1791,0.129319 -0.63596,-0.798836 -0.81674,-1.468895 -0.0389,-2.236374 0.24868,-0.635445 -0.20656,-0.308971 v -0.65078 l 0.20662,-0.308971 -0.20177,-0.329804 0.50153,-2.119671 0.85682,-0.520065 2.25696,-0.002 1.80716,0.522541 0.39357,0.323765 0.70136,-0.663479 -0.53347,-0.685547 0.0413,-0.341186 0.43377,-0.09896 m -4.12493,2.23645 v 0 l -0.008,0.188095 m 1.81247,0.214268 v 0 l 0.18811,0.0084 m 0.0182,0.515263 v 0 l -1.06174,1.246345 -0.75432,1.707245 0.0572,1.990047 1.3875,-1.865142 1.27548,-1.124688 -0.16096,-0.252136 0.51597,0.01007 -0.0452,-0.421177 -0.44479,-0.757484 -0.56894,-0.531449 m -2.21698,0.324227 v 0 l -0.55534,0.513328 -0.51264,1.162865 -0.0372,0.651707 0.15071,0.413128 0.2332,-0.175164 0.78488,-2.03519 0.34836,-0.423268 m 7.20777,1.124768 v 0 l -1.38243,-1.69656 -0.82822,-0.491261 -0.44081,0.103844 -0.002,0.335068 1.62834,1.996471 0.63037,1.497627 0.46416,1.635308 0.0768,-2.916653 m -27.74159,-0.410492 v 0 l -0.008,0.188095 m 28.2375,1.397808 v 0 l -0.008,0.188095 m -6.96955,-5.262985 v 0 l -0.008,0.188095 m 1.49526,0.214268 v 0 l 0.18813,0.0084 m 0.12907,5.066448 v 0 l 0.18812,0.0084 m -3.81005,-0.31176 v 0 l -0.18811,-0.0084 m 5.50233,0.532997 v 0 l -0.64572,-0.05002 -0.416,0.152859 0.72909,0.153172 0.4153,-0.154488 m -1.35873,0.226349 v 0 l -0.008,0.188171 m -1.57043,-0.195915 v 0 l -0.44239,0.40902 -0.004,0.659606 0.74163,1.045704 0.8471,0.01495 0.54117,-0.569236 0.53127,0.01471 0.29962,0.219608 0.4319,-0.09943 -0.0967,-0.43465 -0.53573,-0.08317 -0.49178,-0.509686 -0.26015,0.168888 m -2.84237,0.112206 v 0 l -0.0123,0.208305 0.42267,-0.105236 m -2.64629,0.100513 v 0 l 0.43659,-0.09045 -0.10475,-0.422729 -0.31854,0.262203 m 1.05621,0.472439 v 0 l -0.42836,-0.110577 -0.0889,0.104149 0.4138,0.413822 m 28.23455,0.12994 v 0 l -0.008,0.188095 m -26.63474,0.44619 v 0 l -0.008,0.188171 m 1.27716,0.129086 v 0 l -0.008,0.188095 m 2.63106,0.228127 v 0 l -0.18811,-0.0084 m -2.11736,0.860866 v 0 l -0.008,0.188172 m 29.72435,4.020431 v 0 l 0.18813,0.0084 m -26.58087,-7.944695 v 0 l -0.0453,0.654496 -0.20827,0.312534 0.087,0.102684 0.4235,-0.0477 0.62195,-0.432716 -0.51719,-1.191208 0.20927,-0.653332 -0.4034,-0.425361 -0.42114,0.106552 0.20708,0.310676 m -6.4485,-18.163158 v 0 l -0.008,0.188171 m -0.72498,0.214266 v 0 l 0.18813,0.0084 m 4.03427,30.99008 v 0 l -0.008,0.188091 m -0.94313,-0.188091 v 0 l -0.008,0.188091 m 35.21547,0.44619 v 0 l -0.008,0.188171 m -84.67879,-0.188171 v 0 l -0.008,0.188171 m 51.39167,0.12909 v 0 l -0.008,0.188091 m 37.43574,0.129009 v 0 l -0.008,0.188172 m -3.79771,-0.188172 v 0 l -0.008,0.188172 m -36.69931,-0.406231 v 0 l -0.18811,-0.0084 m 40.06765,0.543762 v 0 l -0.008,0.188091 m -37.57171,-0.103378 v 0 l -1.18879,1.027279 0.2148,0.565979 -0.24369,0.634361 0.20368,0.30851 -0.20368,0.643036 0.20368,0.30851 v 0.334526 l -0.20368,0.308502 0.20368,0.30851 v 0.334526 l -0.2033,0.307892 0.16337,0.257782 -0.31044,0.377197 0.24794,0.469185 0.14742,0.800621 v 2.852455 l -0.24867,0.635445 0.24369,0.634361 -0.24369,0.634361 0.24867,0.635445 0.004,2.853622 -0.0465,0.642571 -0.20669,0.308891 0.24369,0.634361 -0.24369,0.634362 0.20669,0.308899 0.0465,0.959899 -0.0466,0.642571 -0.22038,0.300301 0.22451,0.979965 -0.53981,2.187813 0.26027,0.648147 -0.0418,0.641487 -0.26049,0.626076 0.26034,0.626152 1.4e-4,0.65078 -0.20656,0.308967 0.20351,0.307816 0.007,0.346374 -0.52414,1.94381 -0.22867,-0.155182 -0.10207,0.08666 0.19965,0.642334 -0.18983,0.317184 0.20671,0.308891 0.004,0.978455 -0.60699,1.671738 -0.57822,3.681847 -0.0745,1.81488 -0.44872,0.57543 0.13103,0.69329 -0.44853,0.57698 -0.0562,0.40279 1.00401,0.50121 0.63656,-0.53284 0.32664,-0.0423 h 5.70703 l 0.62721,0.26545 0.64263,0.0463 0.64265,-0.0461 0.30887,-0.20676 0.31899,0.19022 0.1517,-0.41362 -0.042,-1.27597 -0.34025,-0.38521 -0.55585,-2.16269 0.57619,-0.619104 -0.43407,-0.4645 0.009,-0.316017 -0.22714,-0.24083 -0.76584,-3.307708 -0.39231,-1.040825 0.004,-0.661156 0.21408,-0.318031 -0.53262,-0.924981 0.20794,-0.652023 -0.507,-0.634048 0.20357,-0.308663 -0.004,-0.333748 -0.5289,0.01548 -0.005,-0.650154 0.20657,-0.308975 -0.18988,-0.317177 0.1974,-0.326317 -0.53404,-0.924522 -0.023,-0.496597 1.15109,-0.556542 -0.37907,-0.328407 -0.31921,0.190262 -0.10293,-0.08742 0.17157,-0.575974 -0.49871,-0.491875 0.11303,-0.303009 0.25022,0.16021 0.48797,-0.693832 -0.42798,-0.115143 -0.31034,0.203888 -0.10291,-0.08735 0.20712,-0.651322 -0.52209,-0.935661 0.4283,-0.115463 0.31033,0.203895 0.10675,-0.738365 -0.43439,-0.09997 -0.30915,0.202881 -0.10143,-0.101127 0.52168,-0.935669 -0.8498,-1.260125 0.21543,-0.660926 -0.53413,-0.92482 -0.0349,-0.349244 0.37944,-0.619957 -0.38298,-0.621582 0.028,-1.17263 0.53305,-0.479874 -0.56227,-3.120079 0.27011,-1.919578 -0.51917,-1.19252 0.55268,-0.676796 -0.0962,-0.403137 -0.80011,-0.229447 0.17932,-0.585029 -0.50151,-0.709092 0.5025,-0.692047 0.55786,0.491722 0.42119,-0.106712 -0.5074,-0.63591 0.20352,-0.308044 0.006,-0.345826 -0.59085,-1.388286 -1.10881,-0.01487 m 38.38452,0.378819 v 0 l -0.008,0.188171 m -0.62594,-0.188171 v 0 l -0.008,0.188171 m -84.36155,0.129013 v 0 l -0.008,0.188171 m 85.33001,0.129082 v 0 l -0.008,0.188095 m 0.95996,0.44619 v 0 l -0.008,0.188172 M 119.4427,65.299719 v 0 l -0.008,0.188096 m 42.92304,-20.381253 v 0 l -0.0995,-0.427608 -0.41518,0.414985 m -41.44839,20.522889 v 0 l -0.008,0.188171 m -0.62592,-0.188171 v 0 l -0.008,0.188171 m 87.55027,0.129005 v 0 l -0.008,0.188172 m -39.63896,0.447197 v 0 l -0.11382,0.416069 0.43184,0.09687 -0.008,-0.254684 m -4.44895,0.05823 v 0 l 0.11374,0.415528 -0.10542,0.08936 -0.10521,-0.42273 m 5.82153,0.234711 v 0 l -0.008,0.188171 m 0.31599,0.641259 v 0 l 0.0124,-0.208306 -0.42266,0.105232 m -2.44854,-20.207252 v 0 l 0.008,-0.188095 m 0.21507,0.400268 v 0 l 0.0996,0.426754 0.10547,-0.421562 m 45.97882,20.631375 v 0 l -0.18812,-0.0084 M 166.37331,48.673412 v 0 l 0.008,-0.188095 m -3.17064,-4.130318 v 0 l -0.0123,0.208305 0.42267,-0.105236 m -0.0889,25.282143 v 0 l -0.008,0.188171 m 4.44896,-20.170547 v 0 l -0.008,0.188171 m 1.27716,20.111389 v 0 l -0.008,0.188172 m -5.38364,-0.188172 v 0 l -0.008,0.188172 m 5.40206,0.446495 v 0 l -0.11376,0.415527 0.10542,0.08936 0.10522,-0.422729 m -5.07956,0.339874 v 0 l -0.0905,-0.436592 -0.42267,0.104774 0.26217,0.318497 m -0.49094,0.726822 v 0 l 0.008,-0.188171 m 61.22719,0.629791 v 0 l -0.42672,0.09958 0.42153,0.105552 m -2.85538,-0.196693 v 0 l -0.008,0.188171 m -95.4629,-0.188171 v 0 l -0.008,0.188171 m 43.76549,0.630494 v 0 l 0.008,-0.188172 m -6.54193,0.426056 v 0 l -0.55299,1.553375 0.21034,0.65403 -0.20369,0.30851 v 0.334602 l 0.21437,0.320206 -0.5283,1.562363 0.21736,0.320587 -0.005,1.284676 -0.52879,-0.01595 0.0364,0.412194 0.50679,0.998703 0.61708,-1.074593 -0.25773,-0.646286 0.0417,-0.641487 0.20676,-0.308891 -0.20241,-0.330193 0.53209,-2.828605 -0.21927,-0.321824 m -0.83279,-0.734878 v 0 l -0.008,0.188171 m -34.24707,0.44619 v 0 l -0.008,0.188172 M 169.71757,75.53 v 0 l 0.0451,0.972061 0.43285,0.09532 0.0618,-0.18306 -0.4603,-1.25354 m -1.61453,1.000946 v 0 l -0.05,0.645668 0.15286,0.416062 0.15316,-0.729065 -0.15448,-0.415367 m -4.12894,0.189102 v 0 l 0.008,-0.188171 m 6.34902,0.955413 v 0 l -0.008,0.188172 m -6.01801,-0.188172 v 0 l -0.008,0.188172 m -33.29553,0.129005 v 0 l -0.008,0.188172 m 67.88505,0.129013 v 0 l -0.008,0.188171 m -28.96467,-0.110275 v 0 l 0.10286,0.744476 0.10679,-0.737579 m -6.3584,0.331505 v 0 l -0.18812,-0.0084 m -31.9323,0.226502 v 0 l -0.008,0.188171 m 65.34761,0.129006 v 0 l -0.008,0.188171 m -28.85876,-0.198776 v 0 l -0.0556,0.200012 0.42955,0.605171 0.0486,-0.710945 m 26.22447,0.550728 v 0 l -0.008,0.188171 m -30.67316,-0.404686 v 0 l -0.41553,-0.113754 -0.0893,0.105393 0.42268,0.105239 m 4.84017,0.535935 v 0 l -0.18813,-0.0084 m 1.05446,-9.606095 v 0 l -0.008,0.188172 m 0.31177,4.753837 v 0 l 0.008,-0.188171 m 0.30878,5.263062 v 0 l 0.008,-0.188172 m -37.65387,0.102913 v 0 l -0.18812,-0.0084 m 36.16244,0.628937 v 0 l 0.18813,0.0084 m -4.44441,-4.752289 v 0 l -0.18811,-0.0084 m 0.10293,4.984215 v 0 l -0.008,0.188171 m 7.40452,-0.09061 v 0 l -0.43068,-0.11081 -0.0964,0.112053 0.47912,0.695771 m -8.29965,-0.477402 v 0 l -0.008,0.188171 m -29.80655,-0.188171 v 0 l -0.008,0.188171 m -0.72499,-0.102913 v 0 l 0.18813,0.0084 m 37.7406,0.322602 v 0 l -0.18813,-0.0084 m -6.88888,0.09362 v 0 l 0.008,-0.188171 m -0.93867,0.310989 v 0 l -0.4276,0.09935 0.20486,0.311371 v 0.334526 l -0.21087,0.317337 0.47915,0.693596 0.0937,-1.335472 m 8.18521,-5.069237 v 0 l -0.18813,-0.0084 m 0.62975,5.063507 v 0 l 0.0996,0.42675 0.10547,-0.421638 m -8.34427,-0.0844 v 0 l -0.008,0.188171 m 0.95997,0.129005 v 0 l -0.008,0.188172 m 5.70383,-30.453209 v 0 l 0.008,-0.188172 m 1.97953,30.634873 v 0 l -0.54573,0.870781 -0.27358,-0.01634 0.10523,0.737274 0.31833,-0.189797 0.24917,0.160447 0.48792,-0.691506 -0.19704,-0.326012 0.2036,-0.308502 -0.004,-0.333755 m -8.65558,0.224411 v 0 l -0.43658,0.09052 0.10475,0.422653 0.31854,-0.2622 m -29.90681,-0.157196 v 0 l 0.18811,0.0084 m 37.42344,-4.435188 v 0 l -0.18811,-0.0084 m -0.12907,4.766075 v 0 l -0.18813,-0.0084 m -7.29136,0.270798 v 0 l -0.31963,0.365272 0.20998,0.525719 -0.43985,0.576515 0.0723,0.250198 -0.48652,1.173859 0.19897,0.327484 -0.16164,0.252442 0.47493,0.436119 -0.83123,4.057533 0.21791,0.321205 0.005,0.661774 -0.5393,1.554924 0.20057,0.328956 -0.18992,0.317376 0.41501,0.432754 0.73372,-0.741226 -0.20943,-0.338944 0.51634,-2.453109 0.29268,-0.324387 -0.39102,-0.531837 0.11519,-0.492646 -0.21703,-0.321907 0.61524,-4.601211 0.23632,-0.464539 m 5.29596,-1.047874 v 0 l -0.42675,0.09958 0.42157,0.105468 m 3.17103,0.120575 v 0 l -0.008,0.188172 m -38.6876,-0.188172 v 0 l -0.008,0.188172 m 35.20162,-14.911362 v 0 l 0.008,-0.188171 m 0.94311,15.412841 v 0 l 0.008,-0.188171 m 2.75405,0.426598 v 0 l -0.4751,-0.410492 -0.43059,0.618332 0.16204,0.404449 -0.20408,0.644814 0.0873,0.102836 0.43378,-0.09586 0.0863,-0.865044 m -2.09108,0.129242 v 0 l -0.43236,0.401352 0.10661,0.421021 0.42716,-0.403679 m 2.52124,-0.319115 v 0 l -0.18811,-0.0084 m -1.08062,0.0084 v 0 l -0.18812,-0.0084 m -2.11734,0.226502 v 0 l -0.008,0.188171 m -2.04492,-35.626446 v 0 l -0.27003,0.323765 0.0884,0.104229 0.43103,-0.09548 -0.10567,-0.422493 m 2.8613,36.163624 v 0 l -0.11381,0.416069 0.43187,0.09687 -0.008,-0.254684 m -0.94457,-0.259262 v 0 l -0.008,0.188171 m -5.70084,-0.188171 v 0 l -0.008,0.188171 m 8.58042,0.439843 v 0 l -0.12193,0.740524 0.42408,-0.1026 0.31824,0.189636 0.11409,-0.294724 m -1.39081,-0.65937 v 0 l 0.008,-0.188171 m -1.01939,0.369918 v 0 l -0.0423,1.003655 0.43306,0.09548 0.0559,-0.190033 m -0.48098,-5.636383 v 0 l 0.0996,0.42675 0.10548,-0.421562 m -1.04314,5.299148 v 0 l -0.42676,0.09958 0.42156,0.105553 m -8.16226,-0.414833 v 0 l -0.18811,-0.0084 m 0.42009,0.543686 v 0 l -0.008,0.188171 m 7.29935,0.118241 v 0 l -0.0124,0.208305 0.42268,-0.105232 m 3.40164,0.225181 v 0 l -0.11375,0.415528 0.10542,0.08936 0.10522,-0.42273 m -5.27238,-35.521442 v 0 l 0.18813,0.0084 m 2.03215,35.515785 v 0 l 0.18811,0.0084 m -8.0186,-0.0937 v 0 l -0.008,0.188172 m 0.0936,-4.846764 v 0 l -0.18813,-0.0084 m 7.86975,5.08403 v 0 l -0.58664,0.628479 0.39098,0.66758 0.66063,-0.789543 0.3269,0.215507 0.10295,-0.08742 -0.27154,-0.642189 m -8.70729,0.22496 v 0 l -0.008,0.188172 m 4.98427,-40.384857 v 0 l 0.18812,0.0084 m -32.85771,35.198612 v 0 l 0.18813,0.0084 m 26.2369,-34.983566 v 0 l -0.008,0.188171 m 0.64278,40.41095 v 0 l -0.008,0.188171 m 9.5254,0.129318 v 0 l -0.11374,0.41552 0.1054,0.08936 0.10524,-0.422722 m -9.29512,-0.08216 v 0 l -0.11375,0.41552 0.10542,0.08936 0.10521,-0.422722 m 6.4633,-10.146995 v 0 l 0.18813,0.0084 m -31.0768,10.150947 v 0 l -0.20826,-0.01239 0.1052,0.422722 m 24.74717,0.128624 v 0 l -1.06266,1.054764 0.50016,1.004196 0.33332,-0.380134 -0.20372,-0.308739 2.9e-4,-0.334526 0.53403,-0.616936 m -1.15201,-0.332825 v 0 l 0.18811,0.0084 m 10.69663,0.223793 v 0 l -0.11376,0.415528 0.10543,0.08936 0.10524,-0.42273 m -1.36722,-0.08147 v 0 l -0.11374,0.416069 0.0983,0.10067 0.74906,-0.09927 -0.1043,-0.421562 -0.31883,0.190101 m -0.31042,-40.468944 v 0 l -0.008,0.188171 m 2.53201,40.278065 v 0 l 0.008,-0.188171 m -2.12964,-9.729607 v 0 l -0.18813,-0.0084 m 1.25747,10.455887 v 0 l -0.30477,0.647133 0.41203,0.411888 0.42565,-0.403443 v -0.334526 l -0.42819,-0.404609 m -3.17621,-10.27871 v 0 l 0.008,-0.188171 m 0.3226,-9.511551 v 0 l -0.008,0.188171 m 1.27717,20.111389 v 0 l -0.008,0.188172 m -8.55545,-0.188172 v 0 l -0.008,0.188172 m 7.93796,0.129013 v 0 l -0.008,0.188171 m 1.59433,0.129006 v 0 l -0.008,0.188171 m -34.56426,-0.188171 v 0 l -0.008,0.188171 m 36.69154,0.218452 v 0 l 0.20827,0.01238 -0.10523,-0.422646 m -2.52336,0.310212 v 0 l -0.74441,0.102836 0.73753,0.106865 m -10.46738,-0.199089 v 0 l -0.008,0.188164 m 13.33,0.129013 v 0 l -0.008,0.188171 m -2.53326,-0.198936 v 0 l -0.0123,0.208305 0.42269,-0.105232 m -35.21076,-0.310448 v 0 l -0.18811,-0.0084 m 52.33867,0.628937 v 0 l 0.18811,0.0084 m -16.26529,-0.0937 v 0 l -0.008,0.188164 m -0.3226,-0.321045 v 0 l 0.008,-0.188171 m -35.51724,0.321358 v 0 l -0.11375,0.415527 0.10541,0.08936 0.10523,-0.42273 m 34.15705,0.234711 v 0 l -0.008,0.188172 m -0.61998,-0.19661 v 0 l -0.42676,0.09958 0.42158,0.105469 m 2.21947,0.120575 v 0 l -0.008,0.188163 m -0.94156,-0.187858 v 0 l -0.11376,0.415489 0.10543,0.08936 0.10524,-0.422691 m -2.73497,-25.688843 v 0 l 0.18812,0.0084 m 4.11949,25.696976 v 0 l -0.18812,-0.0084 m -36.05567,0.22654 v 0 l -0.008,0.188095 m -1.89891,-0.198899 v 0 l -0.0123,0.208306 0.42267,-0.105233 m 36.387,0.225876 v 0 l -0.11381,0.416031 0.43185,0.09692 -0.008,-0.254692 m -1.04359,-0.174041 v 0 l 0.18811,0.0084 M 137.221,94.79731 v 0 l -0.11374,0.415489 0.10541,0.08936 0.10523,-0.422691 m 24.64162,0.234749 v 0 l -0.008,0.188095 m 10.1582,0.129089 v 0 l -0.008,0.188088 m -9.1898,-0.188088 v 0 l -0.008,0.188088 m -3.26242,-0.102913 v 0 l 0.18812,0.0084 m -1.04062,-0.09362 v 0 l -0.008,0.188088 m -3.48056,-0.188088 v 0 l -0.008,0.188088 m -0.62593,-0.188088 v 0 l -0.008,0.188088 m -2.21184,-0.188088 v 0 l -0.008,0.188088 m 18.40491,-9.703545 v 0 l -0.008,0.188172 m 0.64081,9.948829 v 0 l -0.11062,0.428337 0.10422,0.08894 0.41379,-0.413818 m -10.55519,-0.09064 v 0 l -0.008,0.188087 m -24.09731,-0.188087 v 0 l -0.008,0.188087 M 135.955,96.065719 v 0 l -0.008,0.188087 m 26.22474,0.206993 v 0 l 0.10284,0.7444 0.10681,-0.737511 m -1.46776,3.9e-4 v 0 l 0.18813,0.0084 m -24.19321,-0.09335 v 0 l -0.15634,0.406654 0.14784,0.415451 0.14826,-0.412895 m 36.65158,0.541474 v 0 l -0.4189,0.409988 0.41362,0.412392 0.14662,-0.412392 m -12.19418,-0.409401 v 0 l -0.008,0.188088 m 12.69566,0.129089 v 0 l -0.008,0.188095 m -1.89463,-0.188095 v 0 l -0.008,0.188095 m -0.94311,-0.188095 v 0 l -0.008,0.188095 m -9.18827,-0.18782 v 0 l -0.11375,0.415481 0.10542,0.08936 0.10521,-0.422683 m -25.47287,-0.08244 v 0 l -0.008,0.188095 m -0.94311,-0.188095 v 0 l -0.008,0.188095 m 36.70232,0.531448 v 0 l 0.18813,0.0084 m 0.76341,0.308739 v 0 l 0.18813,0.0084 m -12.46297,-0.107056 v 0 l -0.0124,0.213143 0.73961,-0.107598 m -25.14627,-0.0927 v 0 l -0.32271,0.25911 -0.009,0.255386 0.43114,-0.09544 m 23.68944,0.215897 v 0 l -0.008,0.188087 m -24.73009,-0.18782 v 0 l -0.11376,0.415489 0.10541,0.08936 0.10524,-0.422691 m 37.54698,0.319931 v 0 l 0.18812,0.0084 M 171.80017,79.25493 v 0 l -0.008,0.188171 m 0.95997,15.036538 v 0 l -0.008,0.188095 m 0.37938,4.910995 v 0 l -0.47978,0.696001 0.0945,0.11061 0.43311,-0.0956 m -0.43263,-0.868179 v 0 l 0.008,-0.188095 m 1.59729,0.629753 v 0 l -0.42675,0.09963 0.42155,0.105471 m -1.2695,-10.029253 v 0 l -0.008,0.188171 m 0.32561,4.886757 v 0 l -0.008,0.188095 m 0.32561,4.8868 v 0 l -0.008,0.18809 m -1.57593,-0.18782 v 0 l -0.11376,0.41548 0.10543,0.0894 0.10524,-0.42269 m -35.6227,-0.0824 v 0 l -0.008,0.18809 m 38.0775,0.11836 v 0 l -0.74391,0.10133 0.41241,0.41363 0.31688,-0.26177 m -38.68722,-0.24219 v 0 l -0.15635,0.40666 0.14783,0.41544 0.14827,-0.41288 M 173.071,95.748416 v 0 l -0.008,0.188095 m 0.32561,4.886799 v 0 l -0.008,0.18809 m -0.94156,-0.18782 v 0 l -0.11375,0.41548 0.10542,0.0894 0.10523,-0.42269 m 1.48759,0.23571 v 0 l -0.11383,0.41603 0.43186,0.0969 -0.008,-0.25469 m -39.00624,-0.25922 v 0 l -0.008,0.18809 m 24.25338,0.21489 v 0 l 0.26683,0.32195 -0.24463,0.63591 0.24373,0.63451 -0.41206,0.41196 -0.73984,-0.74083 0.58327,-1.38418 m -18.86736,0.0349 v 0 l -0.008,0.1881 m 33.20366,0.1757 v 0 l -0.21175,0.14287 -0.31212,-0.20602 -0.42076,0.10639 0.79407,0.70495 -0.76732,0.62588 0.58926,0.13219 0.81394,1.14315 0.34584,-0.38366 -0.32221,-0.3914 m -3.80401,-52.57079 v 0 l -0.18813,-0.0084 m 4.22627,50.97544 v 0 l -0.008,0.1881 m -1.89464,-0.1881 v 0 l -0.008,0.1881 m -36.69932,-0.0891 v 0 l -0.18811,-0.008 m 55.29233,0.54376 v 0 l -0.008,0.1881 m -55.5972,-0.10292 v 0 l 0.18811,0.008 m -0.0891,0.54074 v 0 l -0.008,0.1881 m 0.3256,0.12909 v 0 l -0.008,0.18809 m 36.80139,-15.095624 v 0 l -0.008,0.188171 m 0.95997,15.036543 v 0 l -0.008,0.18809 m -38.36883,-0.18782 v 0 l -0.15636,0.40665 0.14784,0.41545 0.14827,-0.41289 m 37.85916,-0.0502 v 0 l -0.0989,0.68369 0.15149,0.41317 0.42076,-0.42103 m -1.68095,-0.40077 v 0 l -0.008,0.18809 m -36.46735,0.12909 v 0 l -0.008,0.18809 m 39.02163,0.12909 v 0 l -0.008,0.18809 m -4.10746,-0.1989 v 0 l -1.03399,0.043 0.69383,0.47914 0.32547,-0.26886 m -5.06764,-56.066242 v 0 l -0.008,0.188095 m 3.49741,55.635657 v 0 l -0.008,0.18809 m -0.62593,-0.18809 v 0 l -0.008,0.18809 m -0.62593,-0.18809 v 0 l -0.008,0.18809 m -5.06491,-0.18782 v 0 l -0.11375,0.41548 0.10542,0.0894 0.10521,-0.42269 m -2.00151,-0.0824 v 0 l -0.008,0.18809 m -24.40851,-0.19657 v 0 l -0.42674,0.0996 0.42157,0.10547 m -2.22105,-0.19661 v 0 l -0.008,0.18809 m 35.84983,0.44627 v 0 l -0.008,0.18809 m -8.55545,-0.18809 v 0 l -0.008,0.18809 m -26.00038,-5.26298 v 0 l -0.008,0.18809 m 0.32559,4.8868 v 0 l -0.008,0.18809 m 57.4181,2.03218 v 0 l -0.008,0.18808 m 0.64279,0.76345 v 0 l -0.008,0.1881 m 0.008,0.76344 v 0 l -0.008,0.1881"
       style="fill:#000000;fill-opacity:1;fill-rule:nonzero;stroke:none"
       transform="matrix(1.3333336,0,0,-1.3333336,0,992.00014)" />
  </g>
</svg>
