<?xml version="1.0" encoding="UTF-8" standalone="no"?>
<!-- Created with Inkscape (http://www.inkscape.org/) -->

<svg
   version="1.1"
   id="svg1"
   width="107.27606"
   height="26.564793"
   viewBox="0 0 107.27606 26.564793"
   sodipodi:docname="4.svg"
   inkscape:version="1.4.3 (0d15f75, 2025-12-25)"
   inkscape:export-filename="..\Documents\zazemli-brand\doodles\3.svg"
   inkscape:export-xdpi="96"
   inkscape:export-ydpi="96"
   xmlns:inkscape="http://www.inkscape.org/namespaces/inkscape"
   xmlns:sodipodi="http://sodipodi.sourceforge.net/DTD/sodipodi-0.dtd"
   xmlns="http://www.w3.org/2000/svg"
   xmlns:svg="http://www.w3.org/2000/svg">
  <defs
     id="defs1" />
  <sodipodi:namedview
     id="namedview1"
     pagecolor="#ffffff"
     bordercolor="#000000"
     borderopacity="0.25"
     inkscape:showpageshadow="2"
     inkscape:pageopacity="0.0"
     inkscape:pagecheckerboard="0"
     inkscape:deskcolor="#d1d1d1"
     inkscape:zoom="1.1844758"
     inkscape:cx="-469.40596"
     inkscape:cy="92.868086"
     inkscape:window-width="2401"
     inkscape:window-height="1368"
     inkscape:window-x="-7"
     inkscape:window-y="0"
     inkscape:window-maximized="0"
     inkscape:current-layer="g1">
    <inkscape:page
       x="0"
       y="0"
       inkscape:label="1"
       id="page1"
       width="107.27606"
       height="26.564793"
       margin="0"
       bleed="0" />
  </sodipodi:namedview>
  <g
     id="g1"
     inkscape:groupmode="layer"
     inkscape:label="1"
     transform="translate(-432.69626,-201.3127)">
    <path
       id="path3"
       d="m 330.43835,573.13971 v 0 l 1.90662,1.57623 0.75501,0.45362 1.14141,1.12365 3.06757,0.818 0.32147,-0.21863 0.64264,-0.0464 1.27707,0.0464 0.30997,0.20654 0.18255,-0.29907 0.6171,-0.42066 2.28366,-1.04034 0.492,-0.47546 2.43287,-1.14588 0.65145,-0.0434 1.92035,0.0434 1.78763,1.13465 1.14981,1.13317 0.72281,0.39289 3.93689,1.41412 0.64066,-0.0419 0.30893,-0.20679 0.33001,0.20215 2.45319,-0.51721 0.25784,-0.43286 0.53681,-0.35303 3.70642,-1.44592 0.328,0.19934 0.3172,-0.18988 0.3085,0.20373 0.64325,-0.20373 4.96689,2.81689 0.49149,0.5166 0.24307,-0.1784 0.6398,-0.0422 3.49216,0.62018 0.95163,-0.30292 0.95871,0.0421 0.30026,0.22027 0.33438,-0.003 0.17966,-0.31873 0.47155,-0.30767 2.00644,-0.73993 1.2403,-0.89295 1.46841,-0.81628 0.33622,-0.0388 0.65197,0.0367 1.90824,0.55902 3.64151,2.10126 2.04297,0.73999 3.09658,-0.83545 1.65219,-0.96429 0.32727,0.19714 0.18259,-0.29913 0.6182,-0.42175 1.41824,-0.7497 0.69891,0.49286 -1.73712,1.12958 -2.53598,1.2829 -3.39178,1.11346 -0.32895,-0.20056 -0.32901,0.20062 -2.02017,-0.73169 -3.66822,-2.33978 -0.5347,-0.0804 -0.48129,-0.53193 -1.86456,0.54401 -1.11188,0.80981 -2.79581,1.22974 -3.37127,0.79138 -5.07437,-0.85577 -3.0019,-1.47656 -2.37286,-1.3855 -0.33618,-0.0388 -0.64081,0.0419 -0.30887,0.20673 -0.3172,-0.18988 -0.3172,0.18994 -0.3262,-0.19733 -2.11151,1.12152 -1.43607,1.10651 -3.4013,0.5282 -0.65442,-0.21131 -0.30853,0.20368 -0.33457,-2.5e-4 -1.24277,-0.85779 -1.17788,-0.0772 -0.49185,-0.50909 -0.25138,0.16138 -1.16965,-0.79712 -0.90597,-1.05579 -2.66208,-1.21057 -0.42242,0.0454 -4.58426,2.05145 -0.49408,0.47669 -2.42874,0.82916 -3.50626,0.0375 -1.50058,-0.54242 -2.20926,-1.58301 -2.10974,-2.14331 0.0989,-0.43188 m 0.33361,0.33099 v 0 l -0.008,0.18817 m 33.31238,2.0321 v 0 l -0.008,0.18812 m -12.99597,0.12908 v 0 l -0.008,0.18811 m 16.71994,0.53144 v 0 l 0.18811,0.008 m -15.94809,-0.0936 v 0 l -0.008,0.18811 m 30.1406,0.44629 v 0 l -0.008,0.18811 m -46.29995,-0.18817 v 0 l -0.008,0.18817 m 55.09882,1.48297 v 0 l 0.18811,0.008 m 1.71493,0.62591 v 0 l 0.18811,0.008 m -67.03283,2.10242 v 0 l 0.43738,0.42505 -0.2201,0.63458 -0.003,0.97699 1.45184,2.1048 1.66858,1.99225 1.52139,0.90497 3.08722,1.16125 0.96924,-0.0371 1.87128,-0.54046 0.33841,0.20855 1.42669,-1.04571 2.90665,-1.66217 0.83298,-0.81635 1.46838,-0.81622 1.60315,-0.0434 0.65149,0.0434 2.42041,1.45105 0.95312,0.63513 1.46525,1.44947 2.95629,1.67138 4.23447,0.7284 2.14713,-0.83204 2.20126,-1.56774 0.81979,-0.8039 3.39096,-1.45251 0.32801,0.19934 0.31723,-0.18988 0.3085,0.20367 0.33453,6e-5 0.32025,-0.21441 3.39139,1.11303 3.47449,1.91419 1.78656,1.45184 1.79434,1.13007 0.32672,0.0423 1.2862,-0.0378 2.11325,-0.82928 0.823,-0.80548 3.61853,-1.73249 0.48523,-0.46978 1.82446,-0.55646 1.79303,0.0291 0.49161,0.50898 0.24322,-0.17841 0.9675,1.8e-4 0.39597,0.34925 2.03482,1.09918 1.78451,1.45062 1.38522,0.76843 0.73453,0.66223 0.30905,-0.20672 0.64267,-0.0461 0.64264,0.0461 0.30905,0.20672 2.38846,-1.87164 1.71735,-0.87359 0.42987,0.11102 -0.19028,0.31903 0.18933,0.31653 -0.1817,0.23736 -1.17926,0.55445 -1.37118,1.04492 -1.47654,0.80371 -0.3262,-0.19733 -0.31717,0.18994 -0.3172,-0.18988 -0.30899,0.20667 -0.66113,0.004 -2.41925,-1.13519 -1.85361,-1.3916 -1.94647,-1.13941 -0.49118,-0.6391 -0.56604,0.21485 -0.95267,-0.30262 -2.21738,-2.4e-4 -0.41647,0.0951 -2.84387,1.58625 -1.09543,0.45599 -2.28934,1.61865 -0.65286,-0.20776 -0.18042,0.29565 -0.75302,0.54816 -1.60117,0.0393 -2.43881,-1.17322 -0.27347,-0.422 -2.89843,-1.79761 -0.51764,-0.50012 -1.24695,-0.6441 -1.81586,-0.79407 -0.33514,0.20465 -0.92526,-0.53454 -1.60117,-0.0392 -3.07135,1.17139 -1.47131,1.453 -3.68885,1.76794 -3.18689,0.0392 -1.88848,-0.56409 -1.81949,-0.9259 -3.05518,-2.40326 -2.20694,-1.27685 -1.16312,-0.49207 -0.97018,-0.0423 -0.6427,0.0468 -1.66531,1.30175 -2.34946,1.41419 -0.50455,0.48785 -1.26224,0.62812 -3.07159,0.83703 -0.96927,0.0371 -1.89587,-0.89069 -0.33509,0.20453 -2.42602,-1.11938 -0.35327,-0.35065 -2.85373,-3.48987 -0.60861,-1.18536 -0.5253,-1.54987 0.0105,-0.34503 0.35516,0.0753 m 21.00735,3.64715 v 0 l -0.008,0.18812 m 41.8822,2.34088 v 0 l -0.42672,0.0996 0.42157,0.10546 m -58.67917,-0.19659 v 0 l -0.008,0.18811 m 56.46653,1.08057 v 0 l -0.008,0.18811 m -51.37481,0.44629 v 0 l -0.008,0.18811 m 62.81019,1.08056 v 0 l -0.008,0.18817"
       style="fill:#000000;fill-opacity:1;fill-rule:nonzero;stroke:none"
       transform="matrix(1.3333336,0,0,-1.3333336,0,992.00014)" />
  </g>
</svg>
