<?xml version="1.0" encoding="UTF-8" standalone="no"?>
<!-- Created with Inkscape (http://www.inkscape.org/) -->

<svg
   version="1.1"
   id="svg1"
   width="52.737171"
   height="151.31"
   viewBox="0 0 52.737171 151.31"
   sodipodi:docname="2.svg"
   inkscape:version="1.4.3 (0d15f75, 2025-12-25)"
   inkscape:export-filename="..\Documents\zazemli-brand\doodles\1.svg"
   inkscape:export-xdpi="96"
   inkscape:export-ydpi="96"
   xmlns:inkscape="http://www.inkscape.org/namespaces/inkscape"
   xmlns:sodipodi="http://sodipodi.sourceforge.net/DTD/sodipodi-0.dtd"
   xmlns="http://www.w3.org/2000/svg"
   xmlns:svg="http://www.w3.org/2000/svg">
  <defs
     id="defs1" />
  <sodipodi:namedview
     id="namedview1"
     pagecolor="#ffffff"
     bordercolor="#000000"
     borderopacity="0.25"
     inkscape:showpageshadow="2"
     inkscape:pageopacity="0.0"
     inkscape:pagecheckerboard="0"
     inkscape:deskcolor="#d1d1d1"
     inkscape:zoom="1.1844758"
     inkscape:cx="-280.7149"
     inkscape:cy="269.31745"
     inkscape:window-width="1278"
     inkscape:window-height="1368"
     inkscape:window-x="1273"
     inkscape:window-y="0"
     inkscape:window-maximized="0"
     inkscape:current-layer="g1">
    <inkscape:page
       x="0"
       y="0"
       inkscape:label="1"
       id="page1"
       width="52.737171"
       height="151.31"
       margin="0"
       bleed="0" />
  </sodipodi:namedview>
  <g
     id="g1"
     inkscape:groupmode="layer"
     inkscape:label="1"
     transform="translate(-244.49912,-24.139347)">
    <path
       id="path14"
       d="m 195.64586,612.51367 v 0 l 0.0112,0.66553 -0.81653,1.46936 -0.94935,0.8031 0.76727,0.62585 -1.02847,0.0489 -0.14446,-0.42718 0.0384,-0.65033 1.19353,-2.03479 0.62042,-0.60114 m -2.86319,0.7342 v 0 l 0.0126,0.98712 -0.54114,2.18786 0.20177,0.32984 -0.20675,0.3089 -0.0414,0.64148 0.15082,0.41327 0.2509,-0.16083 0.48756,0.69366 -0.52594,-9.1e-4 -0.005,0.65014 0.21606,0.31977 -0.50104,1.17071 -0.34922,0.396 -0.0806,0.85187 -0.50916,0.49182 0.17304,0.2633 -0.60822,2.09967 -0.5162,0.49158 0.17511,0.24207 0.006,0.3446 -0.96755,2.7558 -0.55996,2.367 -0.28732,0.55017 -0.077,0.54383 -0.5096,0.49157 0.17533,0.2428 1.5e-4,0.33374 -0.22038,0.30036 -0.003,1.29394 0.54906,0.73254 0.29473,-0.11413 -0.19912,-0.3291 0.52603,-1.24701 -0.20998,-0.33978 0.82469,-2.76148 0.32734,-0.39838 -0.20374,-0.30871 2.9e-4,-0.33453 0.52065,-0.62555 -0.19925,-0.32807 1.10836,-3.3714 0.36689,-0.7323 -0.20468,-0.33514 0.52206,-0.93335 -0.20479,-0.33533 1.15831,-2.51751 -0.20883,-0.33893 0.48068,-1.17078 0.6702,-1.03845 -0.20372,-0.30872 2.9e-4,-0.33453 0.73413,-0.73407 0.43399,0.0991 0.0165,0.53558 -0.44904,0.57624 0.0722,0.25012 -0.5701,1.40625 -0.36338,0.41772 0.29391,0.40772 -0.78905,1.49042 0.19733,0.32635 -0.64387,1.27612 -0.49532,1.48908 -0.34041,0.38885 0.20343,0.64325 -0.50705,0.6341 0.20056,0.3291 -1.18414,3.82391 -0.60231,0.92182 0.21028,0.52606 -0.49933,0.49194 0.17847,0.24329 0.0134,1.16827 -0.44907,0.57691 -0.10196,0.47406 0.20371,0.64312 -0.50702,0.63422 0.52051,0.62561 -0.002,0.33502 -0.43202,0.0996 -0.30762,-0.203 -0.23314,0.15619 -1.14055,-2.27088 0.17096,-0.26184 -0.50908,-0.49188 0.009,-0.86206 1.34401,-3.8717 1.66405,-7.14399 0.70122,-2.27649 -0.19924,-0.328 0.20676,-0.3089 0.0144,-0.8479 -0.569,-0.53338 0.50952,-0.59644 -0.17842,-0.24329 -0.0134,-0.85101 0.4487,-0.57556 -0.11503,-0.49274 0.34683,-0.39679 0.8553,-1.94665 m 17.08794,1.38623 v 0 l -0.20694,0.97388 0.7482,-0.11426 0.13966,0.42291 -0.0891,0.41364 -0.6079,0.93518 -0.51835,1.487 0.11316,0.43188 0.32083,-0.19061 0.10522,0.0877 0.004,0.6502 -0.7455,0.72107 -0.31919,-0.19024 -0.10289,0.0873 0.19962,0.64245 -0.82422,0.95124 0.20053,0.32916 -0.81811,2.43609 -0.334,0.40656 0.1971,0.32617 -0.82172,2.13098 -0.32689,0.3974 0.18991,0.31757 -0.52362,0.62591 -0.0806,0.85175 -0.50902,0.49164 0.17779,0.24255 0.0135,0.53455 -0.44913,0.57605 0.0772,0.24432 -1.44394,4.35034 0.17272,0.26447 -0.45172,0.4469 0.21601,0.56958 -0.24372,0.63434 0.18983,0.3172 -0.24446,0.64965 0.72287,0.72492 0.6151,0.93194 0.4778,1.0962 0.79089,1.12408 0.51187,1.16364 -0.17734,0.57367 1.21862,0.58209 0.81449,1.30029 0.56733,0.51233 1.15248,-0.91132 1.1681,-1.33685 1.80255,-1.11352 0.31847,0.18969 0.18266,-0.29944 1.71025,-1.17523 0.5306,-0.0811 0.84952,-1.38465 -0.25609,-0.64447 0.0372,-1.2868 0.36281,-1.237 1.13154,-5.78467 0.62024,-1.20569 -0.20869,-0.53778 0.34878,-0.41742 -0.32374,-0.36706 0.5981,-2.68634 0.63606,-5.37445 0.2247,-0.44147 -0.21025,-0.31671 1.2e-4,-0.33454 0.29237,-0.51818 0.51745,-0.49146 -0.16127,-0.25122 0.41149,-0.41132 0.31739,0.18988 0.63426,-0.24353 0.42599,0.13977 0.0451,1.59363 -0.2487,0.63544 0.18987,0.3172 -0.18992,0.31714 0.18993,0.31726 -0.20041,0.32886 0.50705,1.31897 0.32768,-0.37897 -0.20674,-0.30908 -0.003,-1.29395 0.49967,-0.68353 0.99209,1.00848 -1.48263,5.38953 0.20801,0.33801 -0.52208,0.93335 0.20802,0.33801 -0.53935,1.555 -0.0755,0.86267 -0.50912,0.49182 0.1707,0.26166 -0.2825,0.78314 -0.56318,2.9989 0.20972,0.33911 -0.841,1.88336 0.19937,0.32813 -0.50711,0.63409 0.20122,0.32959 -0.56777,1.71051 -0.80789,-0.86572 -0.425,0.40295 0.26677,1.27741 -0.0466,0.9599 -0.22023,0.30023 0.004,0.33374 0.25546,-0.008 0.79245,-0.74554 0.64149,-0.0418 0.4137,0.15155 -1.21034,1.27051 -0.35483,0.18194 -0.53906,0.70838 -1.69898,1.08081 -2.08854,1.75543 -1.49788,0.80835 -0.25299,-0.1618 -0.44722,0.45172 -0.25299,-0.16181 -1.40198,0.82678 1.32336,1.5752 0.54984,1.17157 0.33674,0.18341 0.84444,1.62732 1.11754,1.45099 2.09093,4.03436 -0.1973,0.32636 0.66206,0.73431 1.09903,2.35077 0.49559,0.56549 0.8593,-1.11304 0.25789,-0.008 0.0464,0.32593 -0.0386,0.96753 -0.61664,1.19159 -0.84431,3.8471 -0.34409,0.95984 0.19917,0.32788 -0.20675,0.3089 -0.0803,1.16901 -0.509,0.49164 0.17841,0.24316 0.0418,0.64081 -0.26514,0.62726 -0.0804,1.16894 -0.44911,0.57691 0.008,0.26019 -0.31961,-0.18939 -0.11051,0.0958 0.51676,0.68964 -0.82663,2.47027 0.19928,0.32795 -0.1899,0.31726 0.24373,0.63434 -0.24373,0.63433 0.18988,0.3172 -0.18988,0.3172 0.20372,0.30854 -1.2e-4,0.33447 -0.25749,0.62567 0.25122,0.64349 -0.48876,0.84381 -0.24775,0.19251 -0.23882,-0.15729 -0.53616,0.81861 -0.28247,-0.11274 0.20001,-0.64166 -0.15739,-0.23816 1.10934,-0.71655 -0.42058,-0.10614 -0.29992,0.21716 -0.33452,-1.2e-4 -0.41993,-0.41736 -3.5e-4,-0.9682 0.20673,-0.30884 -0.18987,-0.31738 0.50708,-0.63403 -0.19937,-0.32825 0.526,-1.24695 -0.21302,-0.31866 -0.006,-0.34595 0.53785,-1.55475 -0.21002,-0.33978 0.52605,-1.24701 -0.20688,-0.33716 0.52205,-0.93335 -0.25169,-0.65723 0.37931,-0.62054 -0.38298,-0.62164 0.0411,-1.2898 0.20669,-0.3089 -0.2437,-0.63434 0.2437,-0.63433 -0.20669,-0.3089 -0.0424,-0.95777 0.57815,-2.52691 -0.21861,-0.32141 -0.004,-0.97852 0.82997,-1.81531 -1.13936,-0.6958 0.20311,-0.64227 -0.2619,-0.3169 -0.79326,0.1084 -0.30839,-0.27539 0.10463,-0.7926 -0.62566,0.12231 -1.79405,-2.97009 0.24548,0.001 0.48363,0.41193 0.42846,-0.40381 -0.004,-0.65021 -0.42418,0.10248 -0.3172,-0.18982 -0.30823,0.20606 -0.52956,0.0128 -0.65963,-1.0971 -0.54355,-1.40039 -0.73335,-0.88459 -0.47693,-1.09527 -0.94031,-1.25763 -1.13228,-1.14807 -2.06583,-3.0727 0.16053,-0.24945 -0.94936,-0.8012 -0.54062,-0.84522 -0.36282,-0.19006 -0.55502,-0.75971 -0.43114,-0.65033 0.30624,-0.36444 -0.58874,-0.13696 -1.63404,-2.12817 -0.79753,-1.17029 0.21091,-0.51746 -1.47961,-1.3858 0.40339,-0.42566 h 0.33461 l 0.62731,0.521 0.10305,-0.0874 -0.19946,-0.64331 0.29942,-0.18274 0.41774,-0.60705 0.44387,-0.77747 0.0768,-0.544 0.50969,-0.4917 -0.17227,-0.26288 1.05861,-2.70929 1.70011,-5.18946 -0.004,-0.66107 -0.2066,-0.30902 0.27394,-0.50561 0.56222,-0.44867 -0.4759,-0.41968 0.47142,-0.83734 -0.48697,-0.57898 0.39094,-0.53186 -0.11268,-0.49317 0.56825,-0.16241 0.70878,-1.90533 0.64734,-0.85938 0.81128,-3.3352 0.65886,-0.83265 0.18527,-0.0266 0.51076,0.0203 0.53472,0.83014 0.23088,-0.17169 m -1.31147,0.64654 v 0 l -0.0557,0.41931 0.10493,0.0892 0.73072,-0.72961 -0.34436,-0.38324 m -16.45826,1.02039 v 0 l -0.20828,-0.0123 0.10524,0.4226 m 17.13478,0.12867 v 0 l -0.81601,0.90454 -0.84021,0.53558 0.16533,0.24811 -0.73855,1.75629 -1.06516,3.29046 0.0574,0.72156 0.56547,-0.55402 1.01934,-1.82348 1.76031,-4.3349 m -14.0638,0.20801 v 0 l -0.008,0.18811 m -1.42773,0.54644 v 0 l -0.26917,-0.97656 0.42945,-0.51013 0.42651,0.53107 -0.50049,1.32849 m 0.70165,0.66272 v 0 l 0.008,-0.18811 m -2.21485,0.95538 v 0 l -0.008,0.18811 m 28.55467,0.12909 v 0 l -0.008,0.18811 m 2.31363,0.21271 v 0 l -0.41551,0.11377 -0.0894,-0.10541 0.42267,-0.10523 m -14.27785,-4.75732 v 0 l -0.11061,0.42841 0.10421,0.0889 0.41381,-0.41381 m -4.21159,4.85125 v 0 l -0.008,-0.18811 m 0.95998,0.95545 v 0 l -0.008,0.18811 m 2.22868,-4.94586 v 0 l -0.008,0.18817 m 13.33,5.20392 v 0 l -0.008,0.18811 m -16.48494,-0.24848 v 0 l -0.016,0.25757 0.3354,9.8e-4 0.0954,-0.43116 m 14.17543,0.55018 v 0 l -0.008,0.18811 m -12.14348,-0.10297 v 0 l 0.18813,0.008 m 13.86842,0.22382 v 0 l -0.11375,0.41547 0.10542,0.0893 0.10522,-0.42267 m -14.37158,0.23474 v 0 l -0.008,0.18811 m 0.32561,0.12909 v 0 l -0.008,0.18811 m -14.17949,-0.40625 v 0 l -0.18812,-0.008 m 27.14847,0.32562 v 0 l -0.18813,-0.008 m 2.64037,0.5437 v 0 l -0.008,0.18817 m -1.09337,-0.10223 v 0 l -0.26968,0.32184 0.19081,0.31872 -0.19025,0.31897 0.0874,0.10285 0.43371,-0.0958 -0.002,-0.96783 m -1.68604,0.23254 v 0 l -0.008,0.18811 m -14.49669,-0.40625 v 0 l -0.18811,-0.008 m 15.64476,0.54376 v 0 l -0.008,0.18811 m -14.58033,-0.18786 v 0 l -0.11375,0.41552 0.10542,0.0894 0.10523,-0.42267 m -1.4747,0.31396 v 0 l 0.0996,0.42676 0.10547,-0.42163 m 15.12709,0.23279 v 0 l -0.008,0.18811 m -0.62667,-0.23932 v 0 l -0.32376,-0.27002 -0.10417,0.0883 0.0955,0.43109 0.42247,-0.10565 m -27.36679,-5.16742 v 0 l -0.008,0.18811 m 27.9203,0.12903 v 0 l -0.008,0.18817 m 0.32562,4.88672 v 0 l -0.008,0.18817 m 0.64874,0.12054 v 0 l -0.42674,0.0997 0.42157,0.10547 m -1.18429,-0.41473 v 0 l -0.18813,-0.008 m -0.11827,0.32135 v 0 l -0.20828,-0.0123 0.10521,0.42266 m -13.31452,-0.18792 v 0 l -0.008,0.18811 m -0.52995,-0.41046 v 0 l -0.20828,-0.0124 0.10522,0.42266 m 16.18329,0.12928 v 0 l -0.008,0.18811 m -2.8462,-0.18811 v 0 l -0.008,0.18811 m -13.62616,-0.20087 v 0 l -0.74762,0.73041 0.2045,0.33502 -1.95364,4.21076 -0.76049,2.34857 -0.46951,0.42486 0.31016,0.35773 -1.14971,2.46405 -0.0756,0.54004 -0.57043,0.54114 0.0192,0.8471 0.35573,-0.0736 1.45073,2.08282 0.30591,-0.12122 -0.52178,-0.93493 0.19698,-0.32562 -0.16054,-0.24927 0.80864,-0.69495 -0.20319,-0.64239 0.18984,-0.3172 -0.20357,-0.30799 -0.004,-0.34381 0.53265,-0.92492 -0.21121,-0.31763 2.9e-4,-0.3346 0.5206,-0.62548 -0.20355,-0.30817 -0.004,-0.34369 0.70261,-1.6524 0.76521,-2.69074 0.96762,-1.97424 -0.19716,-0.32605 0.2484,-0.63556 m 0.38878,-0.32288 v 0 l 0.18812,0.008 m -14.36219,-5.16852 v 0 l -0.008,0.18811 m 12.06129,5.20392 v 0 l -0.008,0.18811 m 16.50184,0.12902 v 0 l -0.008,0.18818 m 0.3256,0.12902 v 0 l -0.008,0.18818 m -0.93717,-0.1966 v 0 l -0.42676,0.0996 0.42157,0.10547 m -14.37294,-5.50354 v 0 l 0.18811,0.008 m 15.77591,5.92432 v 0 l -0.42674,0.0996 0.42157,0.10547 m -1.58668,0.12054 v 0 l -0.008,0.18817 m -0.85791,0.22809 v 0 l -0.18812,-0.008 m 1.69038,0.86121 v 0 l -0.11375,0.41546 0.10542,0.0894 0.10522,-0.42261 m -0.83186,0.31982 v 0 l 0.18811,0.008 m -0.0891,0.54071 v 0 l -0.008,0.18817 m -0.62594,0.12903 v 0 l -0.008,0.18811 m 0.64278,0.12909 v 0 l -0.008,0.18811 m -0.23866,0.4751 v 0 l -0.50029,1.63922 0.099,0.11419 0.43293,-0.0955 m -1.37044,-1.36962 v 0 l -0.008,0.18811 m 2.22868,0.44622 v 0 l -0.008,0.18811 m -32.13434,-0.10882 v 0 l 0.0996,0.4267 0.10547,-0.42151 m -0.4132,0.55011 v 0 l -0.11375,0.41552 0.10542,0.0894 0.10523,-0.42267 m 31.6196,0.55194 v 0 l -0.008,0.18811 m -0.7762,-0.10217 v 0 l -0.26968,0.32202 0.41464,0.41382 0.10535,-0.73712 m -1.60074,0.0144 v 0 l -0.18812,-0.008 m -13.85303,0.2265 v 0 l -0.008,0.18817 m 16.50182,0.12903 v 0 l -0.008,0.18817 m -1.26028,1.39777 v 0 l -0.008,0.18811 m -1.57745,-0.18811 v 0 l -0.008,0.18811 m 0.95996,0.12903 v 0 l -0.008,0.18817 m -0.94312,0.12903 v 0 l -0.008,0.18811 m 2.22868,0.12909 v 0 l -0.008,0.18811 m -1.26029,-0.18811 v 0 l -0.008,0.18811 m -0.62595,0.12902 v 0 l -0.008,0.18811 m -29.02772,-0.1051 v 0 l 0.48221,0.16284 1.15643,0.039 0.86111,1.20007 0.3754,0.0591 0.84587,1.33496 -0.76045,0.61396 1.33859,0.55554 -0.01,0.31762 0.56713,0.58393 0.38618,0.70386 2.43741,4.92895 1.13527,2.89258 0.23364,-0.15582 0.0927,0.0928 -0.20337,0.30987 0.004,0.33374 0.35333,-0.074 0.81147,1.00885 -0.17536,0.57678 0.49933,0.49195 -0.21025,0.52606 0.41115,0.41144 0.23933,-0.15778 1.02979,1.51599 0.72181,1.77893 0.14949,-0.12073 0.54789,1.00208 0.57898,0.64398 -0.16178,0.25299 0.45169,0.44721 -0.16177,0.2528 0.18947,0.31653 -0.18988,0.31739 0.48123,0.57507 -0.29694,0.3598 0.92989,1.03418 0.79587,-0.77728 0.57251,-1.65106 0.56233,0.14007 -0.19025,0.31903 0.20661,0.30896 0.005,0.66223 -1.17415,5.36072 0.2118,0.34119 -0.57769,2.21002 4e-4,2.85144 0.3026,0.95264 -0.24373,0.63434 0.18986,0.3172 -0.18986,0.31719 0.20673,0.3089 0.0424,1.27485 -0.62085,4.76 0.55177,1.82233 0.79819,0.81323 2.03952,2.97528 1.31754,1.48298 0.5191,-0.21131 0.10477,0.0872 0.0178,0.53443 -0.45662,0.53729 0.80183,-0.11121 0.27623,-0.30969 0.0796,-0.84332 0.75101,-0.53577 0.26845,0.17145 0.33765,-0.28174 0.32353,0.33636 0.66641,-0.85278 0.30785,0.20319 0.33459,-3.1e-4 0.38484,-0.33728 1.75026,-0.49402 0.48848,-0.54577 -0.20657,-0.30915 0.0529,-0.71093 0.79513,1.33026 -0.35207,-0.0594 -1.0111,1.44617 -0.65017,1.8e-4 -0.62771,-0.52387 -0.10547,0.0878 -0.002,0.9679 0.43453,0.0999 0.31727,-0.21075 0.69027,0.48767 -0.16277,0.1792 -0.84439,0.4892 -0.33519,-0.20472 -3.39252,1.45148 -0.18963,0.24634 0.48755,0.84357 3.03529,4.00274 1.09956,1.86786 0.23833,-0.15741 0.56519,0.50983 1.16499,1.92718 0.80633,-0.53448 0.42847,0.40381 2e-5,0.65094 -0.49468,0.55829 1.01845,0.86645 0.15271,0.47125 -0.0451,0.64118 -0.3084,0.10742 -0.98419,-1.12891 -0.81376,1.64765 0.20355,0.30798 0.008,0.34656 -0.54085,2.82165 0.21466,0.34302 -1.16556,6.31812 0.2124,0.34155 -0.52832,1.56238 0.21437,0.32025 -0.20373,0.64306 0.18986,0.31739 -0.50703,0.63403 0.20598,0.30817 0.0208,0.50403 -0.8499,0.52227 0.5096,1.20099 -0.52835,0.94458 0.21121,0.31757 -0.2175,0.63446 0.21102,0.65198 -1.12095,2.11102 -0.31742,0.35284 0.44351,0.47803 -0.52002,0.98828 -0.50008,-0.025 -0.13925,-0.42462 0.0891,-0.41364 0.78902,-1.17267 -0.18991,-0.31738 0.18986,-0.3172 -0.20672,-0.3089 -0.005,-0.979 0.53935,-1.555 -0.21191,-0.34118 1.1642,-4.73316 -0.21193,-0.34124 0.52834,-1.56238 -0.25438,-0.64612 0.26049,-0.6261 0.0421,-0.95868 -0.25817,-0.6463 0.52599,-1.24701 -0.25819,-0.64636 -4.3e-4,-1.89978 0.57938,-4.11224 -0.21979,-0.32215 -0.0462,-0.6427 0.264,-1.27722 -0.85268,-0.75165 -0.53099,0.0148 -0.62538,0.25965 -0.42351,-0.13947 0.11298,-0.48657 0.53813,-0.49078 -0.23442,-0.45191 0.0567,-0.26532 -0.6261,-0.30524 -0.43372,-0.45916 -0.22603,0.16638 -0.39857,-0.46423 0.48048,-0.53309 -0.002,-0.20782 -0.43871,-0.10907 -0.30983,0.20337 -0.0929,-0.0928 0.16027,-0.25042 -0.9493,-0.80133 -0.48762,-0.84351 0.16825,-0.2583 -0.69334,-0.54205 -0.19748,-0.67884 -1.01131,-0.85095 -0.81431,-1.2923 -0.67369,0.12293 -0.25943,0.3172 0.16047,0.24939 -0.69171,0.48785 -0.32658,-0.26715 -0.10771,-0.47796 1.16838,-1.25086 0.005,-0.34381 -0.49904,-0.83557 -0.44934,-0.28046 -0.99947,-1.18506 -0.48764,-0.84356 0.16825,-0.2583 -0.94942,-0.80121 -0.94028,-1.25763 -1.42757,-2.99713 -0.55479,-0.49964 -0.31755,0.18994 -0.4119,-0.41198 0.20671,-0.30902 -3.3e-4,-0.96821 -0.52358,-0.62603 0.4144,-0.4325 0.6978,0.49951 0.34638,-0.38397 -0.20372,-0.30871 1.2e-4,-0.33448 0.22037,-0.30029 0.0804,-1.48614 0.44872,-0.57551 -0.11121,-0.49194 0.52661,0.0158 -0.21625,-0.63409 2.2e-4,-0.65082 0.52346,-0.62598 -0.20051,-0.32904 0.82469,-2.76154 0.32739,-0.39837 -0.20045,-0.3291 0.84665,-3.46454 -0.20178,-0.32984 0.20359,-0.30804 0.004,-0.34375 -0.82739,-1.79816 -0.4381,-0.26947 -0.67025,-0.85583 -2.69721,-5.85279 -0.48776,-0.50482 -1.08662,-2.01947 -0.26047,-0.20471 -1.8748,0.85327 -0.65862,-0.003 -0.22548,-0.17328 -0.71037,1.13415 -0.32509,-0.21521 -0.15994,0.10211 -1.21523,1.51722 -0.82821,0.49127 -0.48684,-0.11219 -0.27348,-0.30932 0.10771,-0.47815 0.51892,-0.34692 0.8489,-1.0185 2.52633,-1.89184 1.17015,-0.50086 0.25997,0.17029 0.49425,-0.70276 -0.55259,-1.09845 -1.5272,-2.28998 -0.499,-0.51562 -1.72067,-3.28906 -0.81628,-1.15101 -2.03821,-3.60656 -0.99538,-1.36029 0.003,-0.65143 0.43663,-0.10059 m 29.49379,0.33441 v 0 l -0.008,0.18811 m -18.09067,-0.31256 v 0 l 0.42676,-0.0996 -0.42158,-0.10546 m -10.23419,1.04913 v 0 l 0.18812,0.008 m 29.09154,0.85791 v 0 l -0.008,0.18811 m -0.62592,-0.18811 v 0 l -0.008,0.18811 m 0.3256,0.12909 v 0 l -0.008,0.18811 m -1.89465,-0.18811 v 0 l -0.008,0.18811 m -26.64858,-0.32104 v 0 l 0.008,-0.18811 m 28.86885,0.63824 v 0 l -0.008,0.18811 m -1.1751,-0.40625 v 0 l -0.18812,-0.008 m -26.54024,0.22656 v 0 l -0.008,0.18811 m 26.33441,0.12909 v 0 l -0.008,0.18811 m -13.94751,-5.263 v 0 l -0.008,0.18811 m 0.33171,4.87817 v 0 l -0.4366,0.0906 0.10475,0.42267 0.31855,-0.26221 m -12.9972,-0.24243 v 0 l -0.008,0.18811 m 26.33441,0.12903 v 0 l -0.008,0.18811 m -25.99882,-0.18787 v 0 l -0.11374,0.41553 0.10541,0.0894 0.10522,-0.42267 m 13.1241,0.31994 v 0 l 0.18811,0.008 m -0.66664,-0.0679 v 0 l -0.53129,0.38971 -0.48514,-0.15954 -0.6986,0.0847 1.71463,0.78138 -0.44667,0.48846 0.63929,0.49054 0.52974,0.83704 0.73323,0.74353 0.76838,1.38519 0.56902,0.51288 0.11127,-0.42993 -1.19092,-2.35169 -0.62081,-0.7854 0.17887,-0.58337 -0.6391,-0.49115 m 12.95007,-0.62079 v 0 l -0.008,0.18811 m -25.99883,-0.18787 v 0 l -0.11375,0.41553 0.10542,0.0893 0.10523,-0.42266 m 25.59474,0.55218 v 0 l -0.11377,0.41547 0.10544,0.0893 0.10521,-0.42267 m -24.83852,-0.0824 v 0 l -0.008,0.18811 m -0.62581,-0.18714 v 0 l -0.11612,0.41541 0.10842,0.1452 0.30914,0.27326 0.33379,-0.004 -0.008,-0.25543 m 24.42359,0.35864 v 0 l -0.31568,0.20563 -0.32817,-0.19867 -2.74588,1.43866 -1.35934,0.99512 -0.5271,0.0792 -1.39388,1.5614 -0.93493,0.62622 -0.008,0.31018 0.63347,0.57819 0.2579,-0.16339 0.37723,0.31042 0.46917,-0.24798 0.16601,0.10095 1.57635,-1.1546 0.64417,0.20324 0.80764,-0.93981 1.51175,-1.30811 1.30971,-0.80652 0.41095,-0.53638 -0.24097,-0.46063 0.11212,-0.4928 m -2.63664,0.23407 v 0 l -0.008,0.18811 m -10.2404,-10.56988 v 0 l 0.18811,0.008 m -1.0406,10.37329 v 0 l -0.008,0.18811 m 14.59874,-10.02075 v 0 l -0.008,0.18817 m 0.64277,9.96167 v 0 l -0.008,0.18811 m -26.95192,-25.56256 v 0 l -0.008,0.18811 m 1.59433,25.18634 v 0 l -0.008,0.18811 m -0.73346,-0.10888 v 0 l 0.0996,0.42676 0.10548,-0.42157 m 11.32092,0.23272 v 0 l -0.008,0.18811 m 13.64719,0.12909 v 0 l -0.008,0.18811 m -24.73558,-0.20166 v 0 l -0.0124,0.21338 0.32797,0.0455 0.72887,-0.15326 -0.41406,-0.15307 m 11.10921,0.69531 v 0 l -0.008,0.18811 m 11.74411,0.12909 v 0 l -0.008,0.18811 m -10.05615,-20.38861 v 0 l -0.18813,-0.008 m -1.1658,20.20892 v 0 l -0.008,0.18811 m -11.40995,-0.18713 v 0 l -0.11381,0.41601 0.43185,0.0969 -0.008,-0.2547 m -0.54218,-0.47736 v 0 l -0.18812,-0.008 m 14.382,0.85241 v 0 l -0.42674,0.0997 0.42157,0.1054 m -1.90387,0.12061 v 0 l -0.008,0.18811 m 9.51001,-0.004 v 0 l 0.008,-0.18811 m -9.19282,0.32105 v 0 l -0.008,0.18811 m -11.10674,-0.32105 v 0 l 0.008,-0.18811 m -0.31252,0.26978 v 0 l -0.32374,-0.26996 -0.10417,0.0883 0.0954,0.43109 0.42247,-0.10571 m 19.79407,0.30987 v 0 l 0.18811,0.008 m -7.7014,-0.0936 v 0 l -0.008,0.18817 m -11.95922,-0.0891 v 0 l -0.18812,-0.008 m -0.21426,0.22657 v 0 l -0.008,0.18811 m 13.01284,0.12909 v 0 l -0.008,0.18811 m -15.39424,-30.85352 v 0 l -0.14477,-0.42316 -0.10827,0.73883 0.21442,-9.7e-4 m 1.88773,30.13257 v 0 l -0.18813,-0.008 m 0.42011,0.5437 v 0 l -0.008,0.18818 m 0.32562,0.12902 v 0 l -0.008,0.18811 m 13.86533,0.2143 v 0 l 0.18812,0.008 m -0.42009,-0.22656 v 0 l 0.008,-0.18811 m -12.1465,0.40625 v 0 l 0.18812,0.008 m 13.23252,0.54071 v 0 l -0.008,0.18811 m -0.53224,0.23407 v 0 l -0.0996,-0.42676 -0.10547,0.42157 m 1.38014,0.53455 v 0 l -0.008,0.18811 m -0.62593,-0.18811 v 0 l -0.008,0.18811 m -13.327,-0.32104 v 0 l 0.008,-0.18811 m 13.64417,0.63824 v 0 l -0.008,0.18811 m 0.32575,0.13001 v 0 l -0.11614,0.41546 0.42791,0.4054 0.10672,-0.42121 m 0.54031,0.8581 v 0 l -0.4276,0.0995 0.41493,0.41517 m 0.63964,0.44689 v 0 l -0.008,0.18812 m -16.81599,-35.52808 v 0 l 0.008,-0.18811 m 1.9937,35.62713 v 0 l -0.18813,-0.008 m 15.32759,0.54376 v 0 l -0.008,0.18811 m -13.4122,0.21424 v 0 l 0.18813,0.008 m 13.95207,0.005 v 0 l -0.18812,-0.008 m -0.84862,0.54376 v 0 l -0.008,0.18811 m -12.99597,-0.18811 v 0 l -0.008,0.18811 m 13.95054,-0.004 v 0 l 0.008,-0.18811 M 194.6273,614.02222 v 0 l -0.008,0.18817 m -4.34715,10.06226 v 0 l -0.41553,-0.11377 -0.0893,0.10541 0.42267,0.10522 m 20.93715,30.56055 v 0 l -0.42676,0.0996 0.42157,0.10546 m -2.53824,-35.72082 v 0 l -0.008,0.18811 m -18.16992,20.19666 v 0 l 0.18813,0.008 m 0.76341,15.21625 v 0 l 0.18813,0.008 m -0.66965,-0.0694 v 0 l -0.47969,0.69391 0.42059,0.42084 0.15157,-0.4137 m -1.319,-15.85516 v 0 l -0.20829,-0.0123 0.10524,0.42267 m 21.89252,15.03674 v 0 l -0.008,0.18811 m -13.00022,-0.19891 v 0 l -0.0123,0.20831 0.42267,-0.10522 m 0.43793,0.62127 v 0 l 0.0996,0.42676 0.10547,-0.42157 m -7.29237,0.31238 v 0 l 0.32139,0.63879 6e-5,0.65064 -0.22023,0.30035 0.2036,0.64319 -0.50699,0.63403 0.20371,0.30866 -0.2175,0.6344 0.20358,0.643 -0.20671,0.3089 -0.079,1.48248 -0.55934,0.74329 0.21078,0.31989 -0.18936,0.31646 0.15872,0.2428 -0.31184,0.76666 -0.48172,0.57703 0.2037,0.30872 -1.2e-4,0.33447 -0.68002,0.96496 -0.18549,0.71003 0.0113,0.54559 0.21523,0.31879 -0.28291,0.78357 -0.54876,2.9425 -0.31883,0.38647 0.20664,0.30927 0.005,0.66199 -0.84036,3.39264 -0.22046,0.18493 -0.33387,-0.002 -0.0996,-0.43201 0.20358,-0.30853 -0.20657,-0.30896 -0.005,-0.66174 0.85295,-2.19232 -0.21376,-0.31775 -0.006,-0.6623 0.85886,-4.72515 -0.21404,-0.34259 0.56557,-2.27002 0.27751,-0.56342 -0.25096,-0.64203 0.57186,-1.89227 -0.20769,-0.33771 1.16838,-2.82886 -0.22606,-1.61114 0.91202,-0.94299 m 7.77167,0.54223 v 0 l -0.11376,0.41547 0.10541,0.0893 0.10524,-0.42266 m -10.26209,-30.34754 v 0 l 0.008,-0.18811 m 1.90851,30.77039 v 0 l -0.008,0.18811 m 21.73525,-0.0891 v 0 l -0.48442,-0.41932 -0.10294,0.0874 0.19963,0.64227 -0.18968,0.31824 1.68234,1.68017 0.11127,-0.42993 -0.81432,-1.46814 m 0.80922,-0.095 v 0 l -0.43066,-0.11078 -0.0964,0.11206 0.47913,0.6958 m -14.24088,-0.37835 v 0 l -0.18811,-0.008 m 0.42009,0.54376 v 0 l -0.008,0.18811 m -8.78743,-15.31372 v 0 l -0.18811,-0.008 m 21.57214,15.53644 v 0 l 0.18811,0.008 m -12.13581,-0.10223 v 0 l -0.43905,0.0908 -0.0444,0.643 0.14412,0.42456 0.4216,-0.10437 -0.20407,-0.3103 0.20485,-0.64587 m -9.61839,0.41217 v 0 l 0.008,-0.18811 m 23.1596,0.63824 v 0 l -0.008,0.18811 M 189.77175,639.1642 v 0 l 0.18811,0.008 m 24.23479,20.92554 v 0 l 0.18811,0.008 m -24.30233,-30.46369 v 0 l 0.0996,0.4267 0.10547,-0.42151 m 24.95969,31.31641 v 0 l -0.008,0.18817 m -13.8111,-0.40704 v 0 l 0.26967,-0.32196 -0.41463,-0.41388 -0.10535,0.73712 m 14.38701,0.53479 v 0 l -0.008,0.18811 m -24.41447,0.76343 v 0 l -0.008,0.18811 m 25.11786,0.37866 v 0 l -0.47934,0.78455 0.42025,0.42163 0.42553,-0.40296 -0.0575,-0.43158 m 0.27323,-0.30407 v 0 l -0.008,0.18817 m 1.59433,0.12902 v 0 l -0.008,0.18812 m -27.2691,0.12908 v 0 l -0.008,0.18811 m -1.80945,-25.4635 v 0 l -0.18813,-0.008 m 28.332,25.91815 v 0 l -0.008,0.18811 m -0.94312,-0.18811 v 0 l -0.008,0.18811 m -0.94736,-0.19891 v 0 l -0.0123,0.20831 0.42267,-0.10522 m 1.17982,0.22491 v 0 l -0.008,0.18811 m -1.04216,-0.1029 v 0 l 0.18813,0.008 m 0.22967,0.22382 v 0 l -0.15632,0.40667 0.14782,0.41547 0.14829,-0.4129 m -0.87477,-0.32434 v 0 l 0.18812,0.008 m -25.56256,0.30872 v 0 l 0.18813,0.008 m 24.96818,0.22357 v 0 l -0.008,0.18811 m 0.95996,1.39777 v 0 l -0.008,0.18811 m -0.94312,-0.18811 v 0 l -0.008,0.18811 m -27.58627,-35.71234 v 0 l -0.008,0.18817 m 29.19058,35.9707 v 0 l -0.11374,0.41553 0.10541,0.0893 0.10524,-0.4226 m -1.36717,-0.0825 v 0 l -0.008,0.18811 m 0.32716,0.12933 v 0 l -0.11374,0.41553 0.10543,0.0893 0.10521,-0.42267 m -0.0983,1.18726 v 0 l -0.11381,0.41602 0.43185,0.0969 -0.008,-0.2547 m -14.27999,-0.39215 v 0 l 0.008,-0.18811 m -0.94614,-9.82874 v 0 l -0.008,0.18811 m 0.96153,10.27912 v 0 l -0.11375,0.41552 0.10542,0.0894 0.10522,-0.42267 m 0.52207,0.41895 v 0 l 0.008,-0.18811 m -13.54814,0.4201 v 0 l -0.18813,-0.008 m 13.516,0.33362 v 0 l -0.42264,-0.12397 -0.40508,0.42627 0.34436,0.3833 m 0.70905,-0.15826 v 0 l -0.008,0.18811 m -0.94311,0.12909 v 0 l -0.008,0.18811 m 13.63179,-0.004 v 0 l 0.11375,-0.41553 -0.10542,-0.0893 -0.10523,0.42273 m -13.20929,0.21533 v 0 l -0.008,0.18811 m -0.54074,0.22815 v 0 l -0.18813,-0.008 m 14.37606,1.17811 v 0 l -0.008,0.18811 m -12.99597,-0.18811 v 0 l -0.008,0.18811 m -1.16156,-0.41016 v 0 l -0.21334,-0.0124 -0.0455,0.32794 0.15323,0.72888 0.15308,-0.414 m 0.68466,0.2934 v 0 l -0.0808,0.87957 -0.35712,0.41803 0.32331,0.36622 -0.51155,1.52093 0.21435,0.32025 -0.20372,0.64301 0.18985,0.31738 -0.52359,0.62585 -0.0423,0.32667 1.8e-4,0.94921 0.14444,0.42463 0.47893,-0.10553 0.57667,-0.63495 -0.20673,-0.30902 -0.0131,-1.16816 0.53418,-0.47876 m 12.28491,-3.84558 v 0 l -0.008,0.18811 m -13.58876,0.43964 v 0 l -1.09504,1.05011 0.19744,0.32648 -0.52829,0.94439 0.54739,1.08338 0.61711,-1.07459 -0.21061,-0.34021 m -0.93735,-36.78759 v 0 l 0.18812,0.008 m 14.48738,36.2492 v 0 l 0.008,-0.18811 m -16.66638,0.40583 v 0 l 0.59703,0.63299 -0.004,0.3338 -0.36227,-0.0769 -0.35959,0.29626 -0.43609,-0.53601 0.19667,-0.32562 -0.19028,-0.31903 0.42268,-0.10687 m 16.49012,1.28534 v 0 l -0.008,0.18811 m -26.01325,-0.18787 v 0 l -0.0889,0.40942 0.96608,1.35462 0.47692,1.09527 0.41984,0.60547 0.70842,0.53907 1.06826,1.70367 -0.15064,0.41089 0.0951,0.15008 0.31691,0.26191 0.30828,-0.20349 0.39547,0.0516 -0.38716,0.52673 0.53945,0.49378 -0.33625,0.62079 0.36629,0.42108 2.0708,3.69421 -0.16815,0.25824 0.8087,0.69495 -0.17493,0.57562 0.54514,0.55573 1.66505,0.55169 0.17041,0.22803 -0.15669,0.23731 1.00382,0.50122 0.32856,-0.19843 0.10123,0.10101 -0.53557,0.75373 -0.71856,0.0649 -0.54644,0.74322 0.1104,0.42938 0.25572,-0.16198 0.26804,0.40606 1.17013,3.45533 -0.20091,0.33075 0.73723,0.10528 -0.11183,-0.435 0.56675,-1.06311 0.3248,0.1225 0.2592,0.31702 -0.50701,0.63421 0.20671,0.30909 0.0424,0.9577 -0.57904,3.47797 0.21397,0.34259 -0.84695,3.46441 0.20126,0.32959 -0.52066,0.62555 0.22383,0.85181 -0.49933,0.49188 0.17847,0.24335 0.0424,1.27447 -0.57366,1.26142 0.1974,0.32629 -0.18992,0.3172 0.18991,0.31714 -0.18993,0.31726 0.19741,0.32623 -0.53267,0.92499 0.21547,0.66089 -0.52201,0.93335 0.21422,0.31799 0.004,1.29559 -1.14734,2.26471 -0.23817,-0.15741 -0.63472,0.24787 -0.7388,-0.16315 0.99153,-3.15143 0.48962,-2.21832 -0.20929,-0.33893 0.52205,-0.93335 -0.25122,-0.64343 0.29763,-0.95154 -0.25437,-0.64612 0.52831,-1.56237 -0.21119,-0.34076 2.12529,-5.99543 0.0374,-2.23767 -0.53248,-1.16479 -0.63907,-0.49121 0.21498,-0.56537 -0.56862,-1.26032 0.19722,-0.32733 -0.29945,-0.18268 -1.81131,-2.79473 -0.18843,-0.0258 -2.2238,0.57306 -0.32967,-0.2013 -1.82439,1.05298 0.24576,0.45648 -0.75267,0.79676 -0.0793,0.52697 -0.75435,0.53595 -0.11351,-0.0953 -0.005,-0.64954 0.22012,-0.30035 -0.003,-0.33393 -0.27758,-0.1137 -0.57075,1.0155 -0.64124,0.49188 0.11359,0.29462 0.25378,-0.16156 0.447,0.45166 0.56951,-0.2157 0.41962,0.15527 -0.84305,1.38471 -0.39059,-0.26044 -0.56072,1.39423 0.25985,0.64764 v 1.58368 l -0.24871,0.63544 0.18988,0.3172 -0.18992,0.3172 0.1974,0.32629 -0.52203,0.93335 0.25589,0.64459 -0.0417,0.64148 -0.20628,0.30829 0.16174,0.25281 -0.45166,0.44696 0.17577,0.24444 1.5e-4,0.33374 -0.21739,0.29993 -1.1e-4,0.33447 0.20372,0.30854 -0.18983,0.3172 0.20354,0.30786 0.006,0.34588 -0.54737,1.54706 0.21001,0.65375 -0.18984,0.31726 0.20372,0.30847 -0.20368,0.64301 0.24371,0.6344 -0.24371,0.63433 0.20669,0.3089 0.0421,0.64051 -0.56543,3.10418 -0.22395,0.16394 -0.41098,-0.41113 0.18986,-0.31738 -0.20372,-0.30853 2.9e-4,-0.33454 0.52063,-0.62549 -0.18989,-0.31738 0.18991,-0.31714 -0.18987,-0.3172 0.20372,-0.30853 v -0.33447 l -0.20372,-0.30854 0.18984,-0.3172 -0.20372,-0.30853 1e-4,-0.33447 0.21738,-0.29987 1.2e-4,-0.33447 -0.20347,-0.30981 0.41294,0.096 0.11351,-0.30285 -0.51786,-0.48383 0.51762,-1.19232 -0.22305,-0.979 0.25749,-0.62574 -0.26434,-0.97125 0.53901,-1.87109 -0.21811,-0.32111 -0.0464,-0.95996 0.0466,-0.64252 0.26547,-0.62725 0.0104,-2.86719 0.53703,-0.68732 -0.16133,-0.25116 0.1898,-0.31836 -0.0874,-0.1029 -0.56199,0.19195 -0.50184,1.17066 0.2535,0.64428 -0.57182,1.89222 0.21435,0.32025 -1.2e-4,0.33453 -0.22038,0.30029 -0.0792,1.79963 -0.55981,0.54138 0.27008,0.84015 -0.0372,0.96966 -0.83936,3.07605 -0.32374,0.3935 0.20053,0.32916 -0.71564,2.5874 -0.55964,1.69782 -0.51841,0.76892 0.19721,0.32629 -0.41214,0.41199 -0.42568,-0.40344 0.20339,-0.64307 -0.20671,-0.3089 -0.041,-0.65625 0.53677,-0.68713 -0.17513,-0.24213 -0.007,-0.34552 0.53903,-1.87109 -0.20102,-0.33075 0.5166,0.009 -0.25398,-0.9732 0.38367,-0.62464 -0.30033,-0.40112 0.48941,-1.8028 -0.20128,-0.32959 0.50707,-0.63409 -0.20354,-0.30804 -0.006,-0.34589 0.87352,-3.17658 0.29505,-0.6015 -0.21378,-0.3175 -0.005,-1.29627 0.85725,-3.14032 -0.21265,-0.34179 1.11216,-4.00476 0.41949,-0.7334 0.48645,-0.11573 0.40341,0.42566 -0.50703,0.6344 0.42102,0.41956 4.64845,-2.70685 1.47742,-1.5097 -0.049,-0.42212 -2.02958,-3.61023 -0.81739,-0.8349 -1.89038,-3.159 -0.81843,-2.12189 0.19934,-0.32818 -0.34656,-0.4195 -1.12671,-2.2301 -0.30229,0.11127 0.20586,0.30926 0.0144,0.5268 -0.75311,0.53558 0.0979,-0.74414 -0.80786,0.066 0.51631,-0.56647 -0.91513,-0.74133 0.0424,-0.34576 0.94791,-0.18128 0.54135,-0.55987 0.52168,0.21118 m 8.25383,-25.24427 v 0 l -0.008,0.18812 m 17.85573,25.2854 v 0 l -0.18811,-0.008 m -13.2171,0.54401 v 0 l -0.11376,0.41553 0.10543,0.0894 0.10521,-0.42267 m 13.9427,0.0166 v 0 l -0.18813,-0.008 m -15.12173,0.86096 v 0 l -0.008,0.18811 m 0.95998,0.12903 v 0 l -0.008,0.18817 m -1.57748,0.12903 v 0 l -0.008,0.18811 m 14.91591,0.12909 v 0 l -0.008,0.18811 m 0.62896,-0.004 v 0 l 0.008,-0.18812 m -26.55316,0.40735 v 0 l -0.18756,0.32166 0.19817,0.32739 -0.48708,0.69165 -0.36023,-0.37427 -0.0147,-0.52685 0.75413,-0.5362 m 26.97302,0.32752 v 0 l -0.008,0.18811 m -0.52995,-0.0933 v 0 l -0.20827,-0.0123 0.10521,0.42267 m -13.3145,-0.18793 v 0 l -0.008,0.18811 m 13.32578,0.43549 v 0 l -0.0123,0.20825 0.42267,-0.10523 m -5.58001,-66.29785 v 0 l 0.18812,0.008 m -18.71753,65.97894 v 0 l -0.18812,-0.008 m 23.57428,0.54376 v 0 l -0.008,0.18811 m -0.3226,-0.32105 v 0 l 0.008,-0.18811 m -10.77873,0.32105 v 0 l -0.008,0.18811 m -11.72724,-0.18811 v 0 l -0.008,0.18811 m -0.62593,-0.18811 v 0 l -0.008,0.18811 m 0.64435,0.76367 v 0 l -0.11375,0.41553 0.10542,0.0893 0.10523,-0.42267 m 11.9544,0.23468 v 0 l -0.008,0.18818 m 12.1465,0.21423 v 0 l -0.18812,0.008 m -11.63275,-0.0936 v 0 l -0.008,0.18811 m -1.57747,-0.18811 v 0 l -0.008,0.18811 m -11.09288,-20.48767 v 0 l -0.008,0.18811 m 0.96593,20.10297 v 0 l -0.42676,0.0997 0.42158,0.10547 m 10.46617,0.12054 v 0 l -0.008,0.18811 m 1.59433,0.12909 v 0 l -0.008,0.18811 m -12.04287,-0.18786 v 0 l -0.11376,0.41552 0.10542,0.0894 0.10523,-0.42267 m -0.7328,-0.0825 v 0 l -0.008,0.18811 m 13.01231,0.1305 v 0 l -0.11989,0.42401 2.39421,3.55401 0.4675,-0.3988 -0.46621,-0.422 -1.0815,-1.69958 m -2.14513,-1.14191 v 0 l -0.008,0.18811 m 7.92411,-29.81885 v 0 l 0.008,-0.18811 m -19.97694,5.39594 v 0 l -0.008,0.18817 m 1.59434,25.18628 v 0 l -0.008,0.18811 m 20.9285,-4.76154 v 0 l 0.008,-0.18817 m 0.30875,5.263 v 0 l 0.008,-0.18811 m -6.33818,-70.72741 v 0 l -0.008,0.18817 m 4.44896,71.17749 v 0 l -0.008,0.18811 m -18.70368,-0.18787 v 0 l -0.11375,0.41553 0.10542,0.0893 0.10523,-0.42266 m 19.88392,0.55194 v 0 l -0.008,0.18811 m -7.92108,-0.18811 v 0 l -0.008,0.18811 m -0.30876,0.12903 v 0 l -0.008,0.18811 m -10.77572,0.12909 v 0 l -0.008,0.18811 m -0.54072,-0.089 v 0 l -0.18813,-0.008 m 12.77629,-65.2456 v 0 l 0.008,-0.18811 m 0.96434,66.28241 v 0 l -0.44023,0.0945 0.002,0.65118 0.11339,0.0952 0.69394,-0.48718 m -1.32794,-0.3415 v 0 l -0.008,0.18811 m -11.72725,-0.18811 v 0 l -0.008,0.18811 m 11.10976,0.44623 v 0 l -0.008,0.18811 m -3.38191,-50.84186 v 0 l -0.25439,-0.005 -0.26329,0.31866 0.41372,0.41254 m 3.17711,50.24426 v 0 l -0.008,0.18811 m -10.45853,-0.18811 v 0 l -0.008,0.18811 m 13.32785,0.1294 v 0 l -0.42429,0.41797 0.48782,0.84423 0.97776,1.04908 -0.16051,0.24939 1.01739,0.86938 2.6e-4,0.61829 0.48963,0.33996 0.53032,0.99707 1.12179,0.82068 1.09642,1.71619 0.5679,0.51117 0.1502,-0.095 0.2619,-0.31708 -0.0951,-0.1507 -1.83472,-2.16784 -0.45361,-0.75495 -0.81511,-0.83093 -1.72235,-2.65808 m -4.36539,-1.45911 v 0 l -0.008,0.18811 m 2.54588,1.08057 v 0 l -0.008,0.18817 m -12.36006,0.44647 v 0 l -0.11376,0.41553 0.10543,0.0893 0.10522,-0.42266 m 0.53592,0.23468 v 0 l -0.008,0.18817 m -1.91584,-45.34998 v 0 l 0.64573,0.05 0.416,-0.15289 -0.72908,-0.15314 -0.41531,0.15448 m 2.94464,45.76477 v 0 l 0.008,-0.18811 m -1.58403,0.2489 v 0 l -0.70585,0.5412 0.38592,0.089 0.46898,-0.14801 0.27312,-0.30926 -0.004,-0.33381 m -1.6837,0.54956 v 0 l -0.32271,0.2591 -0.009,0.25543 0.43114,-0.0955 m 2.75552,0.85022 v 0 l -0.008,0.18811 m 8.57229,-75.35992 v 0 l -0.008,0.18817 m -11.72725,25.18634 v 0 l -0.008,0.18811 m -2.529,50.87793 v 0 l -0.008,0.18811 m -0.62593,0.12909 v 0 l -0.008,0.18811 m 18.07387,-81.20215 v 0 l 0.008,-0.18811 M 198.45586,697.122 v 0 l -0.008,0.18817 m -7.6039,-0.18817 v 0 l -0.008,0.18817 m -1.57749,0.12903 v 0 l -0.008,0.18811 m -0.62593,0.12909 v 0 l -0.008,0.18811 m 21.79485,-45.45972 v 0 l 0.18812,0.008 m -1.37164,-0.22656 v 0 l 0.008,-0.18811 m -20.87472,46.01923 v 0 l -0.49037,0.68536 0.11168,0.48615 0.31961,0.26043 0.15187,-0.41363 m 24.27635,-0.72534 v 0 l -0.008,0.18811 m -1.17509,-0.10291 v 0 l -0.18811,0.008 m 3.27472,0.54078 v 0 l -0.008,0.18811 m -1.89464,-0.18811 v 0 l -0.008,0.18811 m -22.82858,0.12847 v 0 l -0.32271,0.2591 -0.009,0.25537 0.43112,-0.0954 m -1.04907,-0.41827 v 0 l -0.11375,0.41553 0.10541,0.0893 0.10523,-0.42267 m 25.91051,0.23572 v 0 l -0.12135,0.74225 0.43123,0.51037 0.41905,-0.51885 m -15.3194,-0.73475 v 0 l -0.008,0.18811 m -12.69264,-0.32104 v 0 l 0.008,-0.18811 m 11.74108,0.95538 v 0 l -0.008,0.18811 m -11.09489,-0.20093 v 0 l -0.11061,0.42835 0.10423,0.0889 0.4138,-0.41376 m 28.14083,0.5437 v 0 l -0.008,0.18811 m -29.48936,-0.18811 v 0 l -0.008,0.18811 m 27.70187,0.22418 v 0 l -0.21334,-0.0124 -0.0455,0.32795 0.15323,0.72888 0.15308,-0.41406 m -27.33849,-0.62647 v 0 l -0.18811,-0.008 m 26.74608,0.54376 v 0 l -0.008,0.18811 m -25.68164,0.76367 v 0 l -0.11376,0.41553 0.10543,0.0893 0.10522,-0.42266 m -0.0985,1.82061 v 0 l -0.008,0.18811 m 26.01725,0.12909 v 0 l -0.008,0.18811 m -0.30719,0.12934 v 0 l -0.11376,0.41546 0.10541,0.0894 0.10524,-0.42267 m -26.10725,0.55194 v 0 l -0.008,0.18811 m 26.01879,0.12934 v 0 l -0.11376,0.41546 0.10541,0.0894 0.10524,-0.42267 m -26.10725,0.23474 v 0 l -0.008,0.18811 m 11.1113,0.12933 v 0 l -0.11375,0.41553 0.10542,0.0894 0.10522,-0.42267 m -0.41563,0.55188 v 0 l -0.008,0.18811 m 15.00111,0.22809 v 0 l -0.18812,-0.008 m -14.80457,0.22657 v 0 l -0.008,0.18817 m -3.79775,-55.69477 v 0 l -0.008,0.18812 m 2.55183,40.40252 v 0 l -0.42674,0.0997 0.42157,0.10547 m 0.95075,15.02802 v 0 l -0.008,0.18811 m -13.4122,0.21429 v 0 l 0.18813,0.008 m 0.2281,0.85791 v 0 l -0.008,0.18811 m 12.69722,0.12934 v 0 l -0.15633,0.40668 0.14783,0.41546 0.14827,-0.4129 m -0.13526,1.48498 v 0 l -0.43658,0.0906 0.10474,0.42261 0.31855,-0.26215 m -13.31437,-0.24243 v 0 l -0.008,0.18811 m 6.43724,-91.43707 v 0 l -0.18811,-0.008 m 5.81216,71.90943 v 0 l -0.008,0.18811 m 1.27716,20.11145 v 0 l -0.008,0.18811 m -13.31314,-0.18811 v 0 l -0.008,0.18811 m 9.52385,-60.45246 v 0 l -0.008,0.18812 m 3.81461,60.71057 v 0 l -0.008,0.18811 m -0.30875,0.44622 v 0 l -0.008,0.18818 m 14.04958,-14.99659 v 0 l -0.18813,-0.008 m -20.19664,-80.97168 v 0 l -0.008,0.18811 m 6.03486,96.2348 v 0 l -0.008,0.18811 m 0.008,0.44623 v 0 l -0.008,0.18811 m -6.33517,-100.73431 v 0 l -0.008,0.18811 m 6.35205,101.30963 v 0 l -0.008,0.18811 m -13.63034,-0.18811 v 0 l -0.008,0.18811 m 13.65315,0.43781 v 0 l -0.42674,0.0996 0.42157,0.10546 m -0.31796,0.43775 v 0 l -0.008,0.18811 m -13.62877,0.12933 v 0 l -0.11375,0.41553 0.10542,0.0894 0.10522,-0.42267 m 6.87952,-100.94593 v 0 l -0.008,0.18818 m 6.35205,101.30963 v 0 l -0.008,0.18811 m -9.82416,0.12909 v 0 l -0.008,0.18811 m 25.70006,0.12902 v 0 l -0.008,0.18818 m -29.17218,-0.18818 v 0 l -0.008,0.18818 m 13.01283,0.12902 v 0 l -0.008,0.18812 m 15.86744,0.12908 v 0 l -0.008,0.18811 m -0.30862,1.39875 v 0 l -0.11382,0.41607 0.43187,0.0969 -0.008,-0.2547 m -0.62738,1.00952 v 0 l -0.008,0.18811 m -2.44382,-34.34454 v 0 l -0.18813,-0.008"
       style="fill:#000000;fill-opacity:1;fill-rule:nonzero;stroke:none"
       transform="matrix(1.3333336,0,0,-1.3333336,0,992.00014)" />
  </g>
</svg>
