<?xml version="1.0" encoding="UTF-8" standalone="no"?>
<!-- Created with Inkscape (http://www.inkscape.org/) -->

<svg
   version="1.1"
   id="svg1"
   width="102.61477"
   height="137.28575"
   viewBox="0 0 102.61477 137.28575"
   sodipodi:docname="8.svg"
   inkscape:version="1.4.3 (0d15f75, 2025-12-25)"
   inkscape:export-filename="..\Documents\zazemli-brand\doodles\7.svg"
   inkscape:export-xdpi="96"
   inkscape:export-ydpi="96"
   xmlns:inkscape="http://www.inkscape.org/namespaces/inkscape"
   xmlns:sodipodi="http://sodipodi.sourceforge.net/DTD/sodipodi-0.dtd"
   xmlns="http://www.w3.org/2000/svg"
   xmlns:svg="http://www.w3.org/2000/svg">
  <defs
     id="defs1" />
  <sodipodi:namedview
     id="namedview1"
     pagecolor="#ffffff"
     bordercolor="#000000"
     borderopacity="0.25"
     inkscape:showpageshadow="2"
     inkscape:pageopacity="0.0"
     inkscape:pagecheckerboard="0"
     inkscape:deskcolor="#d1d1d1"
     inkscape:zoom="1.1844758"
     inkscape:cx="-386.24681"
     inkscape:cy="-130.85958"
     inkscape:window-width="2401"
     inkscape:window-height="1368"
     inkscape:window-x="-7"
     inkscape:window-y="0"
     inkscape:window-maximized="0"
     inkscape:current-layer="g1">
    <inkscape:page
       x="0"
       y="0"
       inkscape:label="1"
       id="page1"
       width="102.61477"
       height="137.28575"
       margin="0"
       bleed="0" />
  </sodipodi:namedview>
  <g
     id="g1"
     inkscape:groupmode="layer"
     inkscape:label="1"
     transform="translate(-350.7125,-424.50577)">
    <path
       id="path16"
       d="m 356.76054,561.79151 v 0 l 0.99946,-0.73286 -0.2808,-0.68991 0.69792,-0.83455 4.4e-4,-0.86792 -0.2906,-0.42826 0.72058,-2.495 -0.007,-1.7288 -0.2908,-0.42818 0.61247,-2.42339 1.64021,-4.52449 0.93888,-1.78316 0.88285,-0.97921 -0.27542,-0.41223 4.4e-4,-0.86788 0.91846,-1.38815 1.42155,-3.34432 0.0717,0.94834 -0.29365,0.40054 2e-4,0.44596 0.69413,0.83407 -0.2756,0.41199 4.6e-4,1.7139 0.48116,0.49992 0.66617,-0.91137 -0.004,-1.30245 -0.27563,-0.41178 0.2531,-0.42293 -0.27136,-0.41053 -0.009,-0.46155 0.731,-2.48495 -0.29317,-0.88651 1.82255,-5.24642 1.78939,-3.48658 0.56274,-0.56904 0.80335,1.02018 0.5688,-0.29594 1.09281,-1.96892 -0.67162,-0.93505 0.78238,-0.17623 0.71448,-1.00285 -0.26269,-0.43628 0.39428,-0.24052 0.73068,-1.00337 0.10107,-0.71411 1.70573,-1.24358 2.78276,-3.2288 1.51041,1.48808 0.65584,1.0577 2.52914,2.10507 3.55741,1.88805 1.94332,1.49708 2.28415,1.03909 0.53923,0.44374 0.42321,-0.25318 0.41183,0.27559 1.70121,0.056 0.86299,-0.34579 2.07329,0.71899 0.88228,-0.007 0.41199,-0.27546 0.84729,0.33157 3.37895,5.7e-4 4.89848,-0.80077 2.69452,-0.79985 1.58044,-0.80932 0.68731,-0.66508 4.78889,-3.29399 3.44723,-4.54038 0.84871,-1.27376 2.96997,-5.90384 1.06055,-2.40629 -0.26289,-0.43507 1.74409,-3.07527 1.90212,-4.9478 -0.26295,-0.43477 0.25327,-0.42293 -0.25327,-0.42322 0.83948,-1.30176 1.52665,-5.01802 1.41504,-3.67958 1.1069,-6.60892 2.55005,-12.2411 3.79122,-14.72172 1.6993,-5.87443 2.52795,-6.6831 2.32621,-2.77148 0.72856,-1.56133 0.55656,-0.5706 1.44844,-2.69377 1.90495,-2.77063 0.66024,-2.33532 1.2953,-1.35836 -0.0688,-0.56596 -0.57955,-0.82426 -3.01046,2.55574 -1.00668,0.60483 -1.10786,1.08679 -7.35031,5.25684 -1.53336,1.51114 -2.69376,1.4484 -2.80335,1.93422 -12.01637,6.11792 -1.49903,1.05456 -3.13448,1.46549 -0.67297,0.65027 -2.27658,1.03125 -0.65856,0.8543 -0.33261,-0.21404 -0.19987,0.12613 -2.01981,1.57653 -4.3168,1.38559 -3.07366,1.34488 -1.92585,1.11158 -7.3495,3.54188 -0.65824,0.85424 -0.32056,-0.23246 -0.45744,-0.007 -3.49296,2.17512 -5.6724,2.73466 -4.22856,2.5361 -2.52225,1.67688 -4.91407,4.47009 -1.00663,0.60478 -1.40056,1.81237 -0.69031,0.45399 -0.71874,0.94457 -1.4596,1.05827 -1.26867,1.69161 -1.2802,2.1016 -1.24413,3.27239 -1.51523,7.16532 0.26904,0.43969 -0.25317,0.42302 0.33118,0.84729 -0.0556,0.85543 -0.29085,0.42818 1.09087,3.66899 0.44624,0.54341 -0.25326,0.42347 0.4437,0.53889 0.63468,1.45911 1.07185,1.09311 0.71501,1.12524 1.82406,1.415 1.01281,1.83536 1.4976,0.67412 1.67696,1.25383 1.95374,1.93253 1.1147,0.66712 0.44834,0.0517 0.85444,-0.0564 0.41166,-0.37101 v -0.40076 l -0.22253,-0.22249 -0.63533,0.13644 -1.12546,-0.65052 -0.6811,-0.75696 0.56156,-0.1427 0.41138,0.27148 0.43464,-0.26273 2.8414,1.09571 0.6567,0.73209 -1.72868,1.82524 -1.44844,2.69376 -1.69243,2.53935 -2.24153,2.24581 -0.4773,0.24536 -3.23695,4.82816 0.21407,0.33268 -0.85217,0.65524 -1.24455,1.66728 -1.26749,2.53614 -1.45332,3.58744 -1.53602,2.75655 -2.54142,5.4972 -2.20431,6.42906 -2.40699,4.55746 -0.6512,1.90109 -0.97497,1.22123 -1.57556,1.42343 0.25228,0.42182 -0.20643,0.30266 2.82723,0.76876 0.84612,1.65153 0.64888,-0.0363 0.41068,-0.27453 0.837,0.6964 m 0.0179,-2.13863 v 0 l -0.0107,-0.25085 m -0.41171,-0.17208 v 0 l -0.0107,-0.25081 m 0.72501,-0.28564 v 0 l 0.25081,-0.0107 m -2.22346,-0.28467 v 0 l -0.57012,-0.13253 0.55326,-0.5536 m 2.12155,0.24992 v 0 l -0.0107,-0.25081 m -0.83458,0.25081 v 0 l -0.0107,-0.25081 m 0.43416,-0.17208 v 0 l -0.0107,-0.25086 m -1.25749,0.25086 v 0 l -0.0107,-0.25086 m -2.09538,0.26218 v 0 l -0.569,-0.1328 0.56209,-0.14063 m 3.80513,-0.16073 v 0 l -0.0107,-0.25086 m 0.98198,-0.31213 v 0 l -0.1328,0.56901 -0.14062,-0.56209 m -0.40642,-0.82629 v 0 l 0.25082,-0.0107 m 0.72705,-0.72099 v 0 l -0.0107,-0.25085 m 0.0107,-0.59497 v 0 l -0.0107,-0.25086 m -2.1033,-0.59497 v 0 l -0.0107,-0.25086 m 2.12577,-2.70948 v 0 l -0.0107,-0.25085 m 0.0107,-4.40116 v 0 l -0.0107,-0.25081 m 1.99373,-2.40023 v 0 l 0.25081,-0.0107 m 1.57288,-1.9897 v 0 l -0.0107,-0.25082 m -0.41167,-0.17208 v 0 l -0.0107,-0.25085 m 0.83858,-0.84067 v 0 l 0.0107,0.25086 m -0.0107,-1.09663 v 0 l 0.0107,0.25081 m 2.41264,-2.23332 v 0 l 0.25082,-0.0107 m -1.3875,-0.2981 v 0 l -0.0107,-0.25086 m 0.4362,-0.1724 v 0 l -0.15166,-0.55404 0.14055,-0.1192 0.14035,0.56356 m -0.13134,-2.85038 v 0 l -0.0107,-0.25086 m 1.27994,-1.44076 v 0 l -0.0107,-0.25085 m 0.85705,-2.28663 v 0 l -0.0107,-0.25081 m 4.66529,-2.28699 v 0 l -0.15166,-0.55402 0.14055,-0.11907 0.14031,0.56356 m 26.51192,-0.31295 v 0 l -0.0107,-0.25085 m 6.3643,-0.16155 v 0 l -0.52941,-0.46593 0.91034,-0.66593 0.72511,-0.10267 0.65572,-0.67956 0.34684,0.22525 4.19339,-2.40385 1.14759,-0.10293 0.65552,-0.67871 0.32372,0.23377 h 0.4452 l 0.5275,-0.46176 1.45911,-0.63468 1.47289,-1.25204 0.46159,0.51209 -1.08865,1.16284 -1.56206,0.73311 -0.24402,0.44862 -1.44694,0.81554 -1.70545,1.61854 -0.43745,-0.26567 -4.20299,1.54387 -0.42238,-0.28096 -0.45845,-0.005 m -33.79798,0.69608 v 0 l -0.20845,-0.54214 0.19714,-0.55396 0.19767,0.55053 m 30.97466,0.009 v 0 l 0.25081,-0.0107 m -10.40059,-0.41166 v 0 l 0.25082,-0.0107 m -1.3875,0.12493 v 0 l -0.0107,-0.25085 m -21.55705,-0.17208 v 0 l -0.0107,-0.25082 m 40.72394,0.1188 v 0 l -0.25081,0.0107 m -5.36058,-0.30209 v 0 l -0.0107,-0.25086 m -9.50411,0.14027 v 0 l -0.65348,-0.15833 -0.41308,0.27262 -0.42289,-0.25317 -0.42319,0.25321 -3.66393,-2.89648 -3.85717,-4.55059 -1.08131,-1.54894 0.14209,-0.5616 0.42676,0.25329 0.15229,-0.39307 -2.26822,-2.05916 -1.35795,-1.56816 1.17781,-1.44889 0.94455,-0.71879 2.01566,-3.08716 2.21428,-1.98921 1.92378,-3.3932 0.69438,0.27913 0.42257,-0.3492 -0.13908,-0.63769 1.11695,-2.28846 0.8186,-1.16466 0.30781,0.2288 0.57472,-0.13227 -0.139,-0.56209 -0.42773,0.2541 -0.13722,-0.11653 -0.005,-0.44504 0.89937,-0.96528 0.60482,-1.00664 2.02466,-2.04183 0.25276,-0.89437 3.69699,-3.10392 -0.29359,-0.84639 0.007,-1.28992 1.01371,0.16264 8.32682,-2.80481 1.36288,-0.86748 0.71333,0.29029 0.65584,-0.66573 0.75741,0.28752 0.84583,-0.325 0.42297,0.25309 0.84732,-0.33113 0.85527,0.0557 0.4004,0.29365 0.57849,-0.13226 0.0232,-0.70292 -1.0015,-0.71456 -0.85726,0.68574 -0.4121,-0.27562 -1.29794,-0.0549 -0.91618,0.71599 -0.32422,-0.23788 -1.29708,-0.0552 -0.91642,0.71603 -0.33651,-0.21482 0.12907,0.54888 -0.55258,0.57642 -0.93106,-0.66586 -1.20938,0.85038 -0.89727,0.17624 -0.33186,-0.23638 -0.4441,3.6e-4 -0.92732,1.07659 -0.25057,-0.17668 -0.50313,0.41252 -0.50248,-0.41268 -0.76534,0.79365 -0.56629,-0.70425 1.50216,-2.40536 1.08679,-1.10783 0.60556,-1.00646 0.5992,-0.37387 2.60301,-3.27441 1.0245,-1.847 2.34216,-2.36455 0.72852,-1.56128 0.9781,-0.99094 2.02832,-3.10216 1.73519,-1.08533 2.05742,-1.88363 2.17424,-1.50117 1.3088,-1.30876 1.60233,-2.25147 1.0146,-0.7797 1.37159,-1.57788 0.34436,0.22432 1.12457,-0.65104 0.27562,-0.32039 3.8e-4,-0.44511 -0.57936,-0.54773 -1.04492,0.56034 -3.03863,1.77995 -2.67345,2.15226 -0.14995,-0.57495 0.68144,-1.32784 0.32923,0.21977 0.92395,-0.63806 -0.52584,-0.0653 -0.41322,0.27182 -0.13716,-0.11654 0.13859,-0.63696 0.54952,-0.64298 -0.13488,-0.13538 -1.118,0.64031 -3.19354,4.86225 -0.60384,0.3768 -1.93049,2.5828 -3.20379,3.22355 -0.59508,0.99613 -2.79916,1.97511 -1.4372,1.84041 -1.39807,1.40105 -0.47286,0.24242 -1.75566,2.0029 -0.7242,1.12736 -0.42477,3.2e-4 -0.78336,-0.85608 6.5e-4,1.72302 0.28828,0.42627 -0.66919,1.56209 -4.21297,6.32764 -1.69201,1.91078 -0.34664,-0.22698 -2.81515,1.07808 -0.71581,0.47543 0.0185,0.71244 0.58712,0.18674 0.97519,-0.78988 0.83316,0.1768 -1.72131,2.64368 -1.08224,2.17248 -0.85701,-1.84932 0.28972,-0.42738 0.0193,-1.55382 -0.74039,-0.9931 0.57222,0.12494 0.5492,-0.54927 -0.27162,-0.41159 0.34351,-1.28027 -0.34351,-1.28028 0.27162,-0.41157 -0.63871,-0.75777 0.71145,-0.91419 -0.32584,-0.86528 0.25314,-0.42293 -0.32499,-0.84579 0.34309,-1.28035 -0.65742,-0.74845 0.52225,-0.71017 -0.0837,-0.34623 0.65034,-1.12093 -0.004,-1.72563 -0.2756,-0.41207 0.69414,-0.83398 -0.27124,-0.85767 0.67606,-0.84537 -0.26733,-0.4388 1.12724,-3.77479 -0.28577,-0.427 4.1e-4,-0.44612 0.65576,-0.74378 -0.92139,-0.64893 -0.3232,0.24772 -1.1217,5.60075 -0.823,2.72957 0.28968,0.42762 0.007,0.88237 -1.56584,5.03312 0.70707,0.87865 -0.70772,2.92684 0.269,0.43975 -0.27567,0.41191 -0.056,2.1241 0.33159,0.84754 -0.69808,0.83443 -0.0564,0.43554 0.0311,1.5144 0.82068,0.66407 -0.7952,0.77023 0.004,1.2906 0.57934,0.1332 0.41366,-0.27198 0.19528,0.54996 -0.19451,0.54936 -0.33455,-0.21448 -0.67106,0.92262 0.66894,0.9447 -3.6173,4.55266 0.27124,0.85766 -1.30433,1.39958 -2.62886,3.47489 0.1264,0.62244 -0.13636,0.2133 -1.2459,0.83434 -1.27116,1.63868 -0.8656,-4e-5 -0.20686,-0.16008 -0.45235,-1.09618 -1.22783,-10.7363 0.0561,-0.85388 0.2756,-0.41183 -0.25314,-0.42289 0.25322,-0.42293 -0.25318,-0.42294 0.33159,-0.84729 -0.056,-1.27832 -0.28565,-0.42395 0.71021,-1.23332 -0.30315,-1.31705 1.15362,-3.33264 -0.0107,-0.88302 -0.578,-0.13253 -0.30555,0.26047 -0.68241,1.5502 0.28821,0.88229 -0.3525,0.71371 -0.83459,3.92972 5.2e-4,2.11027 0.29468,0.76086 -0.52104,0.70956 0.21355,0.64702 v 1.26578 l -0.34159,0.85946 0.7102,1.23328 -0.29565,0.85758 0.27148,0.85734 -0.25318,0.42293 0.25326,0.42293 -0.26994,0.44023 0.77136,4.2146 -0.0565,0.85404 -0.58329,0.54823 -3.34668,-1.55985 -1.9841,-0.1 -1.333,-1.56795 -1.69227,-2.53919 -2.78242,-6.18603 -8.2e-4,-3.43368 1.1403,-3.3433 -0.2839,-0.42504 -0.005,-0.45818 1.41133,-3.54668 0.94324,-1.79443 0.65039,-0.67277 0.63478,-1.45915 0.64892,-0.67016 1.17941,-1.82853 1.24776,-1.01303 1.67175,-2.09081 3.3125,-3.30384 3.96439,-2.295 0.67277,-0.65035 6.51653,-3.57853 1.40226,-1.30595 0.42342,0.25317 2.22812,-1.32016 6.54865,-2.26642 5.48642,-2.56776 1.50085,-1.05538 2.72684,-1.05838 1.0802,-0.65976 4.00578,-1.4637 1.19197,-0.73768 2.18164,-0.94588 1.51698,-1.07145 4.40405,-2.31176 2.45593,-1.58708 6.40395,-3.04586 1.81673,-1.32914 0.8662,0.007 0.0648,0.26688 -0.58809,1.01315 -1.092,1.11621 -0.37924,0.74991 -1.08996,3.65605 -2.13603,4.74679 0.26293,0.43506 -1.12316,1.66813 0.27726,0.86931 -0.69808,0.83446 -4.4e-4,1.2909 0.27558,0.41186 -0.33157,0.8473 4e-5,2.11157 0.35396,0.83627 0.0616,0.85685 -0.0615,0.85684 -0.27562,0.41183 0.25313,0.42297 -0.33163,0.84725 0.001,3.39999 0.71622,0.91548 -0.6387,0.75774 0.33157,0.84753 0.005,7.18799 -0.062,0.85681 -0.27568,0.41191 0.27019,0.44038 -0.72156,4.18486 0.28163,0.87252 -0.25314,0.42289 0.2524,0.42363 -0.32268,0.21553 -0.80294,2.29496 0.28056,0.87232 -0.43576,0.52979 -1.50805,4.52645 -2.10291,5.40954 -7.57967,12.22949 -1.04595,0.6456 -0.7661,1.17574 -2.04383,2.03532 -1.00643,0.60558 -0.37398,0.59908 -1.0033,0.73092 -1.57026,0.10321 -0.65575,0.6788 -0.34916,-0.22795 -5.89121,1.96956 -0.43758,-0.26575 -0.83447,0.69812 -1.71387,4.6e-4 -0.42749,-0.2898 -2.07284,0.71704 m -23.84298,-0.13623 v 0 l 0.1328,-0.56897 0.14063,0.56205 m -0.57149,0.2898 v 0 l 0.0107,0.25085 m 17.77793,-1.68542 v 0 l -0.56946,-0.0564 -0.99854,-0.58203 -0.715,-1.16415 0.0107,-0.4572 0.56235,0.22323 0.66548,0.90157 1.01571,0.78814 m -16.78309,0.62633 v 0 l -0.25085,0.0107 m 12.69275,-2.46387 v 0 l -2.75659,-1.90866 -0.70593,-1.11556 -0.97592,-0.98865 -0.65051,-1.12577 1.39465,-1.84782 0.637,0.14339 1.06775,1.49601 2.26511,4.4028 -0.0107,0.87788 m -13.12972,-0.0184 v 0 l -0.25081,0.0107 m 14.93896,-0.72497 v 0 l -0.0107,-0.25086 m 27.0773,-0.59497 v 0 l -0.0107,-0.25081 m 0.28718,-0.28247 v 0 l 1.48772,-1.98552 1.10616,-0.70581 1.2605,-1.6838 2.71696,-4.80819 2.11389,-3.38256 0.66895,-0.69336 4.03292,-9.57568 -0.26587,-0.43767 0.43164,-0.52465 1.06169,-3.78976 0.10707,1.35282 -0.33157,0.84734 0.26553,0.43721 -1.90117,6.62585 -1.91837,3.9508 -0.96026,2.69077 -2.6556,5.21073 -1.67561,2.52181 -1.7317,1.73172 -1.12593,0.71559 -0.97384,0.96105 -1.56608,0.66919 m 3.25115,-0.55399 v 0 l 0.25081,-0.0107 m -0.56011,0.30213 v 0 l 0.0107,0.25081 m 0.83459,-1.09668 v 0 l 0.0107,0.25086 m 1.27593,-1.69679 v 0 l -0.0107,-0.25081 m -31.72814,-0.52226 v 0 l 0.63725,-0.1927 1.49788,-1.1628 0.49353,0.40617 1.17802,-1.08256 0.771,0.23429 0.71085,-0.52201 0.34839,0.0827 2.82133,-1.4784 0.44689,0.2729 3.20724,-1.44709 0.71179,-1.2282 -0.23763,-0.0845 -3.66992,1.50765 -0.7253,0.1024 -0.65547,0.67944 -0.32304,-0.23352 -0.45744,-0.007 -1.52465,0.81967 -0.65536,0.6888 -0.32292,-0.23348 -0.4574,-0.007 -2.51395,1.54607 -0.42339,-0.25323 -0.84537,0.67611 -0.42335,-0.25321 -0.84537,0.6761 -0.42557,-0.25365 -0.13896,0.56213 0.1292,0.12934 0.858,-0.26807 m 34.55553,-1.13297 v 0 l 0.25085,-0.0107 m -38.18041,0.1248 v 0 l -0.0107,-0.25081 m 32.99804,6.59444 v 0 l -0.0107,-0.25086 m -38.05045,-6.51566 v 0 l -0.0107,-0.25086 m 2.12578,-0.17208 v 0 l -0.0107,-0.25085 m 12.69844,-0.17204 v 0 l -0.0107,-0.25085 m 29.61474,-1.4408 v 0 l -0.0107,-0.25082 m -25.79178,0.26518 v 0 l -0.0164,-0.27767 0.56356,0.14031 m -19.57227,0.12293 v 0 l -0.0107,-0.25081 m 19.88791,-0.17208 v 0 l -0.0107,-0.25086 m 4.34372,-0.62381 v 0 l 2.82235,-1.09424 0.71606,-0.0995 0.91467,-1.10298 0.58541,0.60324 0.0685,-0.94971 -1.01351,-0.1414 -1.65715,1.14359 -0.86942,-0.28112 -2.61402,1.49369 0.49895,0.4788 m -28.73598,-0.0216 v 0 l -0.0107,-0.25081 m -0.41166,-0.17208 v 0 l -0.0107,-0.25086 m 48.22265,-0.17208 v 0 l -0.0107,-0.25081 m -49.46891,-0.17207 v 0 l -0.0107,-0.25086 m 11.42974,-0.17203 v 0 l -0.0107,-0.25085 m -12.67599,0.25085 v 0 l -0.0107,-0.25085 m 40.13947,-0.60214 v 0 l 3.08952,-1.04273 -0.5013,-0.48945 -0.45479,-0.0516 -0.97596,0.77657 -0.39921,-0.1528 0.25257,-0.42607 -0.1248,-0.12453 -0.84708,0.67579 -0.41081,-0.27142 -0.46024,-0.008 -1.40686,0.76888 0.16328,0.43335 0.41036,0.36324 0.46036,0.008 m -0.43876,-0.45239 v 0 l -0.0107,-0.25085 m 0.72501,-0.28565 v 0 l 0.25081,-0.0107 m -25.91609,0.1248 v 0 l -0.0107,-0.25085 m 1.27998,-1.4408 v 0 l -0.0107,-0.25086 m 0.30205,-0.2856 v 0 l 0.25085,-0.0107 m -17.88091,0.1248 v 0 l -0.0107,-0.25086 m 18.19629,-0.17208 v 0 l -0.0107,-0.25081 m -18.74003,0.14522 v 0 l 0.1328,-0.56909 0.14062,0.56217 m -1.82169,0.11254 v 0 l -0.0107,-0.25082 m 20.73374,-0.17208 v 0 l -0.0107,-0.25085 m 0.43412,-0.17204 v 0 l -0.0107,-0.25085 m 0.86691,-0.58163 v 0 l -0.57011,-0.13253 0.55321,-0.55355 m -22.40706,0.24987 v 0 l -0.0107,-0.25082 m -0.981,0.1316 v 0 l 0.27768,-0.0165 -0.14031,0.56356 m 27.05938,-0.83363 v 0 l 0.14933,-0.57266 -0.57788,-0.1316 -0.12906,0.57629 m -26.06901,0.11107 v 0 l -0.34359,-0.26196 -0.43437,-0.83484 -0.79439,-2.31426 -0.70662,-3.02917 0.281,-0.87228 -0.25252,-0.42399 0.132,-0.15218 0.90445,1.33037 0.66191,2.09325 0.69853,3.46986 m 23.11483,0.57169 v 0 l -0.15169,-0.554 0.14055,-0.1192 0.14029,0.56352 m 0.72445,-0.72237 v 0 l -0.57894,-0.1436 0.63965,-0.92924 0.11827,0.51424 m -24.00378,0.008 v 0 l 0.25081,-0.0107 m 23.98694,-0.72099 v 0 l -0.0107,-0.25081 m 2.12578,-2.28663 v 0 l -0.0107,-0.25085 m 3.9146,-0.61909 v 0 l 1.93684,-0.67135 0.53756,-0.61199 0.30339,0.22287 0.56078,-0.58077 1.22144,0.41296 4.29818,-1.50814 -0.93777,-0.63684 -0.61524,0.32223 -0.65654,-0.15296 -0.40043,0.29383 -1.55372,0.1056 -0.99113,0.74577 -0.44095,-0.29363 -1.65186,0.71656 -0.72718,0.10094 -0.65576,0.67953 -0.33512,-0.21513 -0.56632,0.53726 0.003,0.44683 m -17.61128,6.87711 v 0 l -0.0107,-0.25082 m 0.0107,-6.93864 v 0 l -0.0107,-0.25081 m 12.69848,-0.17207 v 0 l -0.0107,-0.25082 m -1.25754,20.12749 v 0 l -0.0107,-0.25085 m 11.43012,-20.47043 v 0 l -0.0107,-0.25082 m -35.43607,-1.09648 v 0 l -0.65105,-2.98942 0.35449,-0.23918 1.17611,-3.90515 1.23629,-2.50069 2.45223,-2.80123 0.14832,0.57324 -1.13282,2.07927 0.26282,0.43636 -1.30482,1.40015 -0.86201,1.67418 -1.07239,2.81987 0.2883,0.88232 m 35.68847,3.38107 v 0 l 0.25081,-0.0107 m -8.28604,0.0107 v 0 l 0.25086,-0.0107 m -30.56813,-0.29805 v 0 l -0.0107,-0.25085 m 43.54668,-0.0924 v 0 l 2.53654,-0.76623 0.86014,0.33964 4.2131,-0.76507 0.8647,0.34787 0.98051,-0.21333 -0.6504,-0.92498 -0.32108,0.23263 -0.44499,2e-4 -0.40038,-0.29387 -1.97666,-0.0195 -0.72184,0.74552 -0.39912,-0.15275 0.25179,-0.42525 -0.13481,-0.13522 -1.2362,0.70976 -1.71199,-0.35592 -3.8872,0.7533 1.32385,0.87369 m -12.23206,-0.0303 v 0 l -0.0107,-0.25081 m 37.23503,-0.16077 v 0 l -0.56901,-0.1328 0.56209,-0.14063 m -36.93738,0.15715 v 0 l 0.0563,-0.56934 0.59174,-1.00902 2.02658,-2.37212 0.14762,0.57264 -0.72656,1.22192 -0.1008,0.71428 -1.65958,1.42341 m -16.81735,6.77616 v 0 l 0.25081,-0.0107 m 40.45756,-6.9849 v 0 l 0.63745,-0.1989 0.31013,-0.33617 -0.91141,-0.66619 -1.80648,0.0767 0.52417,0.70141 -0.0192,0.3634 m -8.43871,-0.02 v 0 l -0.0107,-0.25081 m 9.31521,-0.17208 v 0 l -0.0107,-0.25081 m -53.83008,0.1372 v 0 l 0.25081,-0.0107 m 65.70847,-1.24768 v 0 l -0.0675,-1.28645 0.20455,-0.55208 0.20464,1.39505 -0.20643,0.55371 m -0.85327,0.17082 v 0 l 0.0107,0.25082 m -38.90023,-0.85096 v 0 l -0.0107,-0.25086 m 41.01274,-0.84029 v 0 l 0.15161,0.55404 -0.14054,0.1192 -0.1403,-0.5636 m -34.10576,-0.71009 v 0 l -0.0107,-0.25086 m -3.79496,0.25086 v 0 l -0.0107,-0.25086 m 38.62917,0.12587 v 0 l -0.28617,0.0147 -0.0611,-0.43722 0.0556,-1.278 0.27563,-0.41181 -0.25318,-0.4229 0.25326,-0.42301 -0.2699,-0.44023 1.19467,-8.44361 -0.0565,-1.27697 -0.292,-0.42896 0.77445,-3.48551 1.19931,-2.40356 -0.2841,-0.42583 0.005,-0.44507 0.45704,0.0948 2.75903,-7.20137 -0.41752,-0.47485 0.85042,-0.86678 -0.26681,-0.43794 1.54053,-5.02675 0.42802,-0.86654 -0.27694,-0.45026 0.70447,-2.08314 -0.26741,-0.43888 0.89612,-1.39844 1.86294,-5.24964 0.40496,-0.63273 0.0716,1.79444 -0.46622,0.52941 -0.89043,2.50363 -5.0411,18.52279 -1.40752,7.08651 -1.36352,4.74181 0.27955,0.45276 -0.39328,1.39096 -1.11067,6.57043 m -33.30571,1.44992 v 0 l -0.0107,-0.25086 m -0.83454,0.25086 v 0 l -0.0107,-0.25086 m -0.83252,0.25049 v 0 l -0.15165,-0.554 0.14053,-0.1192 0.14031,0.56356 m -2.24582,0.11 v 0 l -0.0107,-0.25087 m -31.2839,0.25087 v 0 l -0.0107,-0.25087 m 35.53549,-0.17207 v 0 l -0.0107,-0.25081 m -4.64075,0.25081 v 0 l -0.0107,-0.25081 m -16.48214,0.25081 v 0 l -0.0107,-0.25081 m 22.2933,-0.28569 v 0 l 0.25083,-0.0107 m -3.07915,0.1248 v 0 l -0.0107,-0.25085 m -6.75529,0.25162 v 0 l -0.43025,-0.34546 -0.012,-0.34054 0.57486,0.12734 m 9.17391,0.13468 v 0 l -0.15169,-0.55403 0.14058,-0.11907 0.14031,0.56356 m -9.01233,6.87647 v 0 l -0.0107,-0.25085 m -27.05486,-6.9386 v 0 l -0.0107,-0.25082 m 34.26674,-0.17208 v 0 l -0.0107,-0.25085 m -34.24426,-0.17208 v 0 l -0.0107,-0.25081 m 14.95688,-0.28142 v 0 l 1.24158,-1.28312 -0.53728,-0.56665 -0.7504,0.26099 -0.66915,1.5638 0.57683,0.15442 m -14.38433,-0.0201 v 0 l -0.0107,-0.25085 m 36.38127,-0.17204 v 0 l -0.0107,-0.25082 m 1.27995,-0.17212 v 0 l -0.0107,-0.25081 m -0.8346,0.25081 v 0 l -0.0107,-0.25081 m -36.35674,0.25045 v 0 l -0.1517,-0.554 0.14059,-0.1192 0.14031,0.5636 m -0.9771,0.10987 v 0 l -0.0107,-0.25081 m 15.10385,-0.28568 v 0 l 0.25082,-0.0107 m 24.10059,40.59193 v 0 l -0.25087,0.0107 m 2.7883,-40.61033 v 0 l -0.25082,0.0107 m -40.45985,-0.30245 v 0 l -0.15165,-0.55404 0.14055,-0.11907 0.1403,0.56355 m 1.13744,-0.31299 v 0 l -0.0107,-0.25081 m 64.30034,-0.16125 v 0 l -0.58442,-0.12054 0.0464,-1.79008 0.6628,1.76563 m -28.8897,0.13415 v 0 l -0.0107,-0.25082 m -10.98437,0.25082 v 0 l -0.0107,-0.25082 m -25.36326,0.25082 v 0 l -0.0107,-0.25082 m 0.43624,-0.17244 v 0 l -0.15165,-0.55404 0.14055,-0.1192 0.14029,0.5636 m 53.26868,-0.84949 v 0 l -0.25085,-0.0107 m -2.40019,0.1248 v 0 l -0.0107,-0.25081 m -46.64066,0.1372 v 0 l 0.25081,-0.0107 m -3.92493,0.1248 v 0 l -0.0107,-0.25086 m 52.15971,-0.28832 v 0 l -0.57283,-0.1495 -0.13473,0.1316 0.14245,0.9843 0.57093,-0.5411 m -51.73137,-0.309 v 0 l -0.0107,-0.25081 m 36.80421,-0.17208 v 0 l -0.0107,-0.25081 m -33.39829,0.25158 v 0 l -0.43041,-0.25166 -0.42624,0.2543 -0.14795,-0.12826 0.98625,-0.98023 0.20658,0.55912 m -3.14877,0.54595 v 0 l -0.0107,-0.25082 m 35.09408,0.005 v 0 l 0.0107,0.25081 m -32.97954,26.63799 v 0 l -0.0107,-0.25081 m 1.70284,-26.81523 v 0 l -0.0107,-0.25082 m -3.37183,0.24951 v 0 l -0.15177,-0.55473 0.57585,-0.1292 -0.0107,0.33964 m 36.24765,-0.61174 v 0 l 0.554,-0.15165 0.1192,0.14055 -0.56356,0.14029 m -33.81047,-0.0176 v 0 l -0.0107,-0.25081 m 59.93207,-0.2857 v 0 l 0.25081,-0.0107 m -62.28619,0.1248 v 0 l -0.0107,-0.25082 m 34.26673,-0.17208 v 0 l -0.0107,-0.25081 m -33.38869,0.26713 v 0 l -0.59305,-0.1386 -0.003,-0.26712 0.97652,-0.72961 0.45699,0.0107 -0.0107,0.34037 m 34.96745,0.23905 v 0 l 0.1328,-0.56901 0.14059,0.56213 m -33.11682,-0.31038 v 0 l -0.0107,-0.25082 m 33.28887,-0.28568 v 0 l 0.25086,-0.0107 m -33.10557,0.1248 v 0 l -0.0107,-0.25082 m -1.67065,0.2671 v 0 l -0.57003,-0.13555 1.2166,-1.54024 2.00292,-1.75561 1.00668,-0.60482 2.90259,-2.73092 4.64047,-3.08813 3.80867,-1.96472 2.60534,-1.08179 3.62855,-2.35503 4.71899,-2.21448 2.15849,-1.27824 4.96326,-2.42752 2.02066,-0.72998 0.9743,0.79028 0.70845,-0.0199 1.39054,-1.32719 2.08642,-1.24292 2.60363,-0.94983 1.21216,-0.74988 4.51184,-1.95333 1.80763,0.0761 -3.27735,1.77434 -2.91704,1.25777 -3.31608,2.01424 -3.7128,1.6753 -1.98539,0.66008 -0.64791,0.62682 -6.63416,2.78186 -0.43765,-0.26587 -0.53923,0.44369 -5.4832,2.5673 -1.56429,0.65344 -0.72722,0.10093 -0.65572,0.6796 -0.34684,-0.22525 -3.06326,1.74962 -1.46054,0.608 -2.94219,1.67415 -1.62646,1.43335 -2.60518,1.52844 -3.38326,2.53744 m 32.02128,2.56897 v 0 l -0.15173,-0.554 0.14059,-0.11906 0.1403,0.56354 m -3.64657,-0.42658 v 0 l 0.25081,-0.0107 m 5.37902,-0.72099 v 0 l -0.0107,-0.25081 m -1.25748,0.32964 v 0 l -0.43265,0.34952 -0.144,-0.56279 1.41621,-1.80646 0.14547,0.9833 m 22.46432,-10e-4 v 0 l -0.7452,-0.92447 0.69572,-8.38071 -0.70865,-1.26493 0.28564,-0.42395 0.0624,-1.27978 -0.0624,-1.70276 -0.28516,-0.4235 2.38985,-5.89449 -0.26567,-0.43884 0.40463,-0.24659 0.4714,-0.7144 0.67163,-1.54996 -0.27852,-0.872 0.35602,-0.22916 1.47559,-2.93209 0.83093,-0.79455 0.14585,0.5852 -0.27149,0.41133 0.25293,0.42436 -0.4041,0.24642 -0.47473,0.7275 -1.50122,4.08508 0.27515,0.44894 -0.39499,0.80778 -0.97436,4.36918 -1.02445,6.21265 0.29232,0.42912 0.007,1.72835 -1.14198,3.76485 0.26734,0.4386 -0.28039,0.70126 0.58532,0.76791 -0.15376,0.65697 0.28861,0.4288 -0.8138,3.97001 -0.30102,-0.18092 0.33056,-0.84769 m -24.30155,-1.99023 v 0 l -0.0107,-0.25081 m -2.69872,0.1296 v 0 l 1.02033,-3.14737 1.36891,-2.27813 0.17008,-1.00044 0.26737,-0.34294 -0.27086,-0.41068 0.004,-0.44548 0.37093,-0.21911 1.18368,-1.87272 -0.1436,-0.63733 -0.42395,-0.34676 -0.7399,0.66573 -0.72852,1.56124 -0.79086,0.84839 0.22722,0.74466 -1.51938,0.7476 0.70606,1.82679 -0.54643,0.69917 0.14816,0.65589 -0.44849,-0.0928 -0.736,2.19714 0.12306,0.55371 0.57923,0.80473 m -0.0691,-1.23625 v 0 l -0.15169,-0.55403 0.14059,-0.1192 0.14029,0.56356 m 4.95438,-0.3044 v 0 l -0.16543,-0.56372 0.90029,-0.96741 0.60482,-1.00667 1.39721,-1.40076 0.63688,-0.1386 -0.0107,0.33985 -1.08997,1.75867 m -33.15669,1.9701 v 0 l -0.0107,-0.25082 m 33.42095,-1.0179 v 0 l -0.0107,-0.25086 m 20.3108,-1.01791 v 0 l -0.0107,-0.25081 m 0.43416,-0.59497 v 0 l -0.0107,-0.25082 m -27.05482,0.25082 v 0 l -0.0107,-0.25082 m -22.40284,0.25082 v 0 l -0.0107,-0.25082 m 10.58391,-0.17212 v 0 l -0.0107,-0.25081 m 36.66086,-0.27771 v 0 l 0.1328,-0.56901 0.14063,0.56209 m -19.16095,0.11254 v 0 l -0.0107,-0.25082 m -5.48657,0.25082 v 0 l -0.0107,-0.25082 m -0.41166,-0.17208 v 0 l -0.0107,-0.25085 m 8.04649,-0.17208 v 0 l -0.0107,-0.25081 m -9.73407,13.53821 v 0 l 0.0107,0.25082 m -9.71171,-13.94979 v 0 l -0.56901,-0.1328 0.56213,-0.14063 m 12.26323,-0.58365 v 0 l -0.0107,-0.25082 m -17.75086,0.25082 v 0 l -0.0107,-0.25082 m 46.39902,-0.28569 v 0 l 0.25078,-0.0107 m -41.14076,0.1248 v 0 l -0.0107,-0.25081 m 40.32076,0.12587 v 0 l -0.28617,0.0147 -0.0107,-1.30602 3.11545,-9.47571 0.92236,-2.00964 0.0776,0.9622 -1.13954,2.92113 0.2658,0.43735 -0.25326,0.42293 0.25326,0.42322 -0.43604,0.53032 m -18.71221,4.24421 v 0 l -0.0107,-0.25085 m 1.70284,-0.59502 v 0 l -0.0107,-0.25081 m -0.83458,0.25081 v 0 l -0.0107,-0.25081 m 11.42973,-0.59497 v 0 l -0.0107,-0.25086 m -10.27064,-0.28568 v 0 l 0.25085,-0.0107 m -20.41833,0.1248 v 0 l -0.0107,-0.25086 m 21.02454,-0.28568 v 0 l 0.25081,-0.0107 m 0.17207,-0.41167 v 0 l 0.25087,-0.0107 m -1.108,-0.82666 v 0 l 0.1328,-0.569 0.14062,0.56213 m 0.72319,-0.72229 v 0 l -0.5846,-0.1208 0.0652,-0.94967 0.63973,0.92928 m -3.51099,60.60589 v 0 l -0.0107,-0.25081 m 3.81737,-60.64784 v 0 l -0.0107,-0.25085 m -22.40287,-0.17208 v 0 l -0.0107,-0.25082 m 38.49582,-0.59501 v 0 l -0.0107,-0.25081 m -3.09253,-0.27771 v 0 l 0.1328,-0.56901 0.14062,0.56209 m -9.01115,0.11253 v 0 l -0.0107,-0.25081 m -0.41167,-0.17208 v 0 l -0.0107,-0.25081 m 9.65658,-0.22827 v 0 l -0.13187,-0.91163 0.20203,-0.55085 0.561,0.56136 m 0.71907,7.30089 v 0 l -0.0107,-0.25081 m -2.23535,-6.62927 v 0 l 0.25082,-0.0107 m -25.91611,0.1248 v 0 l -0.0107,-0.25082 m -0.83456,-0.17208 v 0 l -0.0107,-0.25085 m 27.77674,-0.69868 v 0 l -0.0179,-0.88856 1.9389,-4.71538 0.0564,1.78984 -0.45804,0.51946 -1.06491,3.15588 -0.32235,0.24748 m -26.62892,-0.42794 v 0 l -0.0107,-0.25082 m 24.52141,13.53821 v 0 l 0.0107,0.25082 m 5.48653,-14.20675 v 0 l 0.0107,0.25081 m -0.83651,-0.42843 v 0 l -0.15169,-0.55404 0.14053,-0.11906 0.14035,0.56356 m 0.29163,-0.73588 v 0 l -0.0107,-0.25082 m 0.0107,-0.59501 v 0 l -0.0107,-0.25081 m -5.06364,0.25081 v 0 l -0.0107,-0.25081 m 2.12577,-0.59498 v 0 l -0.0107,-0.25085 m -18.59674,0.25085 v 0 l -0.0107,-0.25085 m -1.68039,0.25081 v 0 l -0.0107,-0.25081 m 7.63151,-0.58365 v 0 l -0.569,-0.1328 0.5621,-0.14063 m -1.2618,-0.14941 v 0 l -0.56902,-0.1328 0.5621,-0.14063 m -2.96139,0.26212 v 0 l -0.0107,-0.25081 m 1.72742,-0.14384 v 0 l -0.97051,-0.0725 0.72299,-0.48389 6.25362,-3.32239 5.66484,-2.7034 0.97043,-0.90657 0.70861,-0.10533 1.92973,-1.52702 0.33496,0.21506 0.69654,-0.36874 0.72172,-0.75749 0.41349,0.14323 -0.14001,0.63753 -1.5379,1.30807 -0.72037,0.94552 -3.95256,2.28425 -1.49149,1.26848 -0.335,-0.21505 -0.96132,0.86589 -2.86701,1.24947 m 11.87305,1.09172 v 0 l -0.21293,-0.9653 0.33109,-0.84705 -0.25264,-0.42403 0.35824,-0.23066 0.59724,-1.26039 1.37276,-3.44624 0.57809,-0.82715 1.01428,-0.71436 0.5193,0.45562 -1.13115,0.9243 0.32691,0.87236 -0.40455,0.24654 -0.4718,0.71416 -1.03385,1.91942 0.39598,0.47975 -0.64656,0.58869 -1.03349,2.27711 m -12.99333,0.23933 v 0 l -0.0107,-0.25085 m 15.23593,-1.01789 v 0 l -0.0107,-0.25083 m -0.83248,-0.1724 v 0 l -0.15168,-0.55404 0.14057,-0.1192 0.14031,0.56356 m -9.85817,0.11 v 0 l -0.0107,-0.25081 m -6.75531,-0.17208 v 0 l -0.0107,-0.25082 m 13.96921,-0.17245 v 0 l -0.15165,-0.55403 0.14058,-0.11906 0.1403,0.56356 m -4.78325,-0.73588 v 0 l -0.0107,-0.25086 m 9.18315,-0.28569 v 0 l 0.25081,-0.0107 m -5.19366,-0.29805 v 0 l -0.0107,-0.25081 m -8.8698,0.25081 v 0 l -0.0107,-0.25081 m 15.66087,-1.01827 v 0 l -0.15165,-0.554 0.14054,-0.1192 0.1403,0.56356 m -6.05196,0.11 v 0 l -0.0107,-0.25081 m 6.35693,-0.59534 v 0 l -0.15169,-0.55404 0.14055,-0.11906 0.14033,0.56354 m -6.47489,0.11 v 0 l -0.0107,-0.25085 m 0.43416,-0.17208 v 0 l -0.0107,-0.25085 m 2.12574,-0.59498 v 0 l -0.0107,-0.25081 m 2.9716,-0.17207 v 0 L 441.8345,439.3 m 1.70292,-0.59496 v 0 l -0.0107,-0.25082 m -2.10328,0.25082 v 0 l -0.0107,-0.25082 m -1.68037,0.25082 v 0 l -0.0107,-0.25082 m 4.66321,-0.17208 v 0 l -0.0107,-0.25085 m -4.21782,0.25085 v 0 l -0.0107,-0.25085 m -2.5262,-0.17204 v 0 l -0.0107,-0.25085 m 3.39448,-0.17208 v 0 l -0.0107,-0.25086 m -2.09154,0.27067 v 0 l -0.87562,7.7e-4 0.0193,-0.35608 1.23493,-0.78381 0.45724,0.0107 -0.012,0.34034 m -3.37375,0.76767 v 0 l -0.0107,-0.25086 m 5.08613,-0.17204 v 0 l -0.0107,-0.25085 m 4.10824,-0.28564 v 0 l 0.25082,-0.0107 m -3.9249,0.1248 v 0 l -0.0107,-0.25081 m 0.86686,-0.15564 v 0 l -0.64318,-0.13688 -0.34823,-0.42506 0.25317,-0.42317 -0.25317,-0.42313 0.1268,-0.20074 1.40235,-1.40128 3.11844,-1.87194 1.38814,-1.32227 0.44507,0.005 -0.0107,0.34062 -1.51122,1.7588 -0.94458,0.71874 -0.70602,1.11588 m -4.43119,2.26246 v 0 l -0.57007,-0.13267 0.55323,-0.55359 m 0.42992,-0.17297 v 0 l -0.0107,-0.25081 m 7.62358,-3.55534 v 0 l -0.0107,-0.25085 m 0.85709,-1.4408 v 0 l -0.0107,-0.25081 m -0.8346,0.25081 v 0 l -0.0107,-0.25081 m 0.85709,-1.4408 v 0 l -0.0107,-0.25086"
       style="fill:#000000;fill-opacity:1;fill-rule:nonzero;stroke:none;stroke-width:1.33333" />
  </g>
</svg>
