<svg width="106" height="72" viewBox="0 0 106 72" fill="none" xmlns="http://www.w3.org/2000/svg">
<g clip-path="url(#clip0_185_75)">
<mask id="mask0_185_75" style="mask-type:luminance" maskUnits="userSpaceOnUse" x="0" y="0" width="106" height="72">
<path d="M105.6 0H0V71.0659H105.6V0Z" fill="white"/>
</mask>
<g mask="url(#mask0_185_75)">
<path d="M45.2452 70.9882L50.4179 68.7272L54.3889 65.6091L55.824 64.9848L57.4498 63.6024L59.8108 61.0189L60.9181 60.3151L62.7462 58.2684L63.8665 58.2816L65.8896 58.9794L67.5846 60.2227L68.001 59.9737L69.3653 60.8523L74.6777 63.3042L76.7105 63.9945L77.5783 63.9879L77.9989 63.7031L80.0372 64.4082L83.4883 63.7188L90.3429 61.6602L91.4081 60.6181L92.9444 59.897L93.1844 59.4559L94.5062 58.7473L96.1956 57.0576L97.4225 55.0219L98.519 49.3094L98.5112 46.7767L98.0608 46.2659L97.0481 43.1847L96.5531 42.2351L96.5597 41.7853L98.6495 40.4606L99.3114 39.8209L102.86 37.9139L104.058 35.9393L105.17 32.6702L104.933 31.9008L105.6 31.2643L104.933 30.4788L105.222 29.7325L105.222 27.6566L104.47 26.0024L104.729 25.5743L104.292 25.0439L103.27 22.7973L101.845 21.5923L100.315 19.8384L98.5622 18.5139L95.0604 16.6914L94.205 16.9633L93.9928 16.6459L90.0617 15.4535L89.6304 15.7163L89.2252 15.4452L87.1361 15.3901L86.3028 15.7161L85.8976 15.4453L85.044 15.4458L84.2232 16.1322L83.8178 15.8612L82.9643 15.8617L81.7276 16.964L81.3227 16.6971L80.885 16.7023L80.9781 17.151L79.6718 17.8235L78.3882 17.8143L78.2574 17.2446L78.5949 16.424L78.2533 15.603L78.1478 14.0701L77.5593 13.3155L77.7185 12.2423L76.7947 10.0749L75.7928 6.54805L74.5669 4.90645L72.0463 2.38609L67.1812 0.067955L66.7534 0.326647L65.92 0.000480652H61.7634L60.9409 0.348578L60.0997 0.403368L59.2663 0.0776001L58.8504 0.326569L58.017 0.000402832L54.2776 0L51.375 1.16803L50.9356 0.899775L48.1672 2.36984L46.9958 3.52971L44.9256 6.01401L44.0239 6.68295L42.9565 8.38962L39.8063 11.5615L39.1025 12.669L37.6369 14.2047L37.0814 13.5924L35.028 12.3698L30.6851 10.3746L25.5721 9.1508L23.4697 9.19999L21.5082 9.82771L15.3074 12.7685L14.1024 14.1966L12.3959 15.264L11.5193 16.1415L10.7772 17.8813L10.0377 21.8269L10.6782 23.381L11.5571 24.7425L11.2983 25.1706L12.6082 27.7685L13.6042 30.4379L14.1418 30.9051L9.48409 33.15L7.70058 34.508L5.51873 36.89L5.28394 36.7205L4.45014 37.7679L3.02495 40.418L1.74182 42.2114L1.95239 42.5387L1.13072 43.166L0.051461 45.9337L0 48.8653L1.55513 52.4978L3.3523 55.3704L5.74609 57.1021L8.50544 58.157L8.93686 57.894L9.77021 58.2201H13.0949L14.3442 57.8233L15.6182 58.1709L19.3286 57.4569L20.4444 58.0992L21.5204 60.4007L25.6642 66.6245L26.5409 67.499L27.367 67.9266L32.2156 69.8019L32.6623 69.5249L36.032 70.3014L43.8499 71.066L44.7083 70.7883M37.2407 68.5586L33.2764 67.8647L30.682 67.0653L26.9539 65.0016L24.5257 62.5826L23.9855 61.6337L23.0044 58.9788L21.3118 56.0339L22.6758 55.3279L22.5106 54.8384L23.244 54.1285L23.0905 53.3006L22.2246 53.2927L21.0773 53.9677L20.1866 53.2475L19.7392 53.3015L19.4976 54.1301L18.7404 54.6251L13.539 55.6754L10.6841 55.0388L9.12545 54.4044L6.52924 52.064L4.67328 48.1506L4.23689 47.6203L4.4984 47.1899L3.7935 45.5647L3.79901 44.6977L4.06997 44.2925L3.81143 43.8648L5.27939 40.6833L6.97176 38.9893L9.21832 37.9673L10.3135 36.8949L14.9791 33.4775L16.8623 33.6285L18.0774 32.9281L18.314 33.2881L21.7165 34.83L22.2356 35.2838L22.8143 35.1374L21.9947 34.2245L22.2464 33.6924L21.0115 32.8641L19.9696 31.4105L17.8114 29.6558L17.0579 28.4988L15.7208 27.5652L14.5212 26.1429L13.6086 25.4529L12.9434 23.5205L12.95 20.9886L14.0176 19.4646L16.5553 16.9281L20.8679 14.6723L21.5296 14.0327L23.0824 13.3661L25.974 14.0685L26.418 13.7946L29.2999 14.8836L32.1163 16.2366L35.4642 16.9626L35.6809 17.2572L35.4329 17.6723L35.9618 18.2301L36.589 18.0889L37.044 17.4085L38.0303 16.6921L38.481 16.6986L41.5964 19.7533L42.2225 19.8942L42.5156 19.6466L43.1953 17.6981L42.9199 16.8404L43.3744 16.2903L44.3963 14.0437L46.2824 12.1364L48.172 9.16797L49.4125 7.77927L51.079 6.52992L53.1463 5.29589L54.1931 4.92114L61.7872 3.38055L63.3126 4.05165L68.2376 6.86485L70.4195 7.83141L72.086 10.3141L73.9628 15.5774L73.6859 16.0242L74.352 17.9828L74.9615 18.6108L75.6992 20.3507L76.1324 20.4095L76.9228 21.5765L77.4629 21.3015L78.1165 19.8392L80.7794 18.8171L81.3112 18.38L81.7164 18.6511L82.9738 18.7062L83.807 18.38L84.2231 18.629L84.6281 18.3579L85.4679 18.3026L92.9441 19.1665L94.2054 19.8769L94.6219 19.6278L98.2123 21.656L98.92 22.5839L100.017 23.2783L101.494 24.7553L102.198 25.8626L103.897 27.6551L103.63 28.0599V28.4987L103.912 28.9193L102.83 32.9551L101.365 34.442L100.356 36.2583L99.7651 36.6289L99.0566 37.5589L97.2488 38.5578L95.4769 39.8681L94.8078 39.9591L94.2236 41.1667L93.6377 42.605L93.639 43.4837L94.295 44.5802L95.3492 45.6553L96.0193 47.1801L95.6681 48.4542L95.7228 49.2954L95.9939 49.7007L95.1152 51.0649L93.7015 54.1446L93.0438 54.8262L92.0352 57.0585L90.7646 57.914L87.573 59.4179L85.4723 59.4689L84.6389 59.1427L84.223 59.3917L83.8192 59.1248L83.3652 59.1156L80.9114 59.8225L80.4629 59.5429L77.4872 60.2869L76.3202 61.0554L75.9154 60.7883H75.4766L75.056 61.0703L72.5756 60.408L69.362 58.7459L64.9246 55.7869L64.9393 55.0845L66.0458 53.4441L65.7968 53.0279L66.0679 52.6229L66.0676 51.3531L65.5067 50.8245L65.2028 51.0537L64.1735 53.7227L63.8294 54.0779L60.643 56.445L55.4328 61.8493L55.1057 61.6388L53.1656 63.0909L52.5212 63.9291L52.194 63.7185L49.8401 65.1693L49.1654 66.2385L44.3165 67.7381L43.4495 67.7328L43.0283 67.4471M55.8905 59.627L59.1121 57.5787L60.7589 55.6844L61.4537 56.0997L61.783 55.8913L62.5476 54.7556L64.2181 53.4594L64.0268 52.412L65.3212 51.0602L66.554 46.8783L66.1128 46.1559L66.6486 44.733L65.4787 43.2299L66.5651 42.0017L66.6472 41.2881L64.7562 37.3069L64.0781 36.6219L58.7149 35.4675L53.7629 35.4697L51.2113 36.5957L49.0697 38.0427L45.6305 42.875L44.942 44.7631L43.8118 48.8941L43.8126 50.3695L45.0072 53.7434L47.6788 57.7424L52.3709 59.6234M54.5555 54.7435L50.3131 54.7444L49.1447 53.6514L48.0454 47.6625L48.9553 46.5177L49.1486 45.4597L48.7322 44.7639L50.039 42.9272L52.3571 41.5448L56.5808 40.3503L58.6568 41.619L60.6126 43.589L61.7096 45.422L61.703 50.3457L60.5436 51.5712M74.5168 57.5127L75.099 58.9554L74.4332 58.8018L74.1745 58.3292M70.7366 56.8977L71.3062 56.8852L72.6527 57.8673L71.5543 57.7655L70.7495 57.3419M68.6525 56.0837L69.0449 56.2759L70.1279 57.3696L68.9788 57.156L68.3903 56.3808M67.121 55.2387L67.5155 55.7399L66.9758 55.5332L66.5923 55.11M17.6738 55.2547L16.8559 55.8113L16.6181 55.5456L17.3269 54.9766M64.9096 53.1053L65.3036 53.6063L64.7645 53.3995L64.3805 52.9764M63.524 51.8579L63.9185 52.3591L63.379 52.1525L62.9953 51.7291M60.613 46.9118L60.8924 47.0345L61.4483 48.5445L61.1687 48.4218L60.6112 47.3271M60.1997 45.6641L60.4787 45.7868L61.0346 47.2969L60.3487 46.4967L60.0607 46.0815M59.3714 43.2164L59.6504 43.3392L60.2063 44.8493L59.9273 44.7265L59.3698 43.6317M58.5397 40.7166L58.819 40.8396L59.3752 42.3495L59.0956 42.2267L58.538 41.1321M58.1231 39.4683L58.2629 38.9151L58.8187 39.0453L58.6775 39.4662L58.1213 39.7183M56.4568 36.9759L57.0126 37.106L57.2921 37.2289L56.7362 37.0987L56.4551 36.9764M54.7922 35.727L55.3481 35.8572L55.6276 35.9799L55.0717 35.8497L54.7906 35.7275M53.5435 35.3112L54.0988 35.4415L53.2865 35.5637L53.007 35.4409M51.047 34.8951L51.6023 35.0255L50.79 35.1476L50.5105 35.0249M100.06 21.5486L99.4284 21.4188L98.6663 20.6741L96.5987 19.4145L91.7495 17.522L90.8922 17.7974L90.4876 17.5303L90.049 17.5305L89.6567 17.8153L89.2021 17.8257L84.7415 17.1319L84.5113 16.8509L84.5166 16.4161L90.966 17.0125L94.0973 17.7339L98.6642 19.841L100.043 21.2187M11.4592 20.7051L11.31 20.1603L11.4483 20.0431L11.5862 20.5974M11.8763 19.0415L11.7271 18.4965L11.8653 18.3793L12.0034 18.9336M76.7645 18.6971L76.1384 18.5078L75.779 18.0717L76.5416 13.3596L77.3707 15.5959L77.3112 18.5163M41.7048 18.1549L41.275 17.6727L41.5232 17.2554L41.4008 17.1329L40.9716 17.391L40.0645 16.7612L40.3781 16.6122L40.9705 15.3596L42.3347 11.1342L43.6105 9.44195L45.4277 8.43372L48.4474 6.29431L48.897 6.3048L48.8864 6.63881L47.9648 7.97681L46.8959 9.06639L43.1495 14.0629L42.0941 16.4103L42.3677 16.8546M13.54 18.2079L13.3802 17.6492L14.0509 16.1229L14.893 15.2809L18.9156 13.3623L20.2756 13.4358L17.5771 15.0715L16.1407 15.6969M84.2693 17.399L83.4134 17.457L82.8686 17.2586L83.421 16.7066M39.3288 15.7137L38.7726 15.1658L39.3217 14.4857L39.871 15.1659M36.0218 15.7351L35.1377 15.7469L32.6827 15.0378L32.2505 15.3018L31.3042 14.4495L29.1998 13.5721L25.0976 12.5763L29.3642 12.5287L32.5505 13.6173L34.2173 14.4506M39.7488 14.0498L39.5996 13.505L39.7379 13.3878L39.8759 13.9421M21.0372 13.2294L20.4775 13.0987L21.0304 12.9605M75.1856 12.351L73.7412 9.05263L73.2874 8.53357L73.4273 7.98113L75.2394 9.75895M76.3524 11.9701L76.2031 11.4252L76.3414 11.308L76.4794 11.8623M23.5486 11.9966L21.83 12.0006L20.9363 11.3441L23.0846 10.4638L23.516 10.7268L24.3494 10.4006L26.4385 10.4559L27.2611 10.8036L28.1024 10.749L28.5079 10.479L28.6667 10.6153M29.7722 11.5662L29.2126 11.4356L29.7654 11.2973M74.2722 6.98051L72.7285 5.93681L72.3725 5.38489L70.9493 4.58273L70.4143 4.05923L68.0879 3.27018L62.0887 2.09294L60.8634 1.37402L67.2146 1.30098L68.5531 2.17823L70.0788 2.85145L70.7833 2.94926L71.4904 3.86729L72.5879 4.56171L74.2642 6.24293L74.4011 6.8708M49.7399 6.15896L49.1802 6.02838L49.7332 5.89007M66.7897 4.89973L66.6406 4.35485L66.7788 4.23759L66.9168 4.79191M48.9241 4.09227L48.352 3.95161L48.6094 3.62048L51.8269 1.98917L53.8596 1.2987L58.0428 1.25031L58.5852 1.44945L58.0445 1.99205L57.6283 1.74305L57.2232 2.01422L56.1062 2.11956L55.4615 2.78709L54.7153 2.49783L53.0419 2.5533L52.537 2.99924" fill="#2E2E2E"/>
</g>
</g>
<defs>
<clipPath id="clip0_185_75">
<rect width="105.6" height="72" fill="white"/>
</clipPath>
</defs>
</svg>
