<?xml version="1.0" encoding="UTF-8" standalone="no"?>
<!-- Created with Inkscape (http://www.inkscape.org/) -->

<svg
   version="1.1"
   id="svg1"
   width="54.903946"
   height="46.924343"
   viewBox="0 0 54.903946 46.924343"
   sodipodi:docname="9.svg"
   inkscape:version="1.4.3 (0d15f75, 2025-12-25)"
   inkscape:export-filename="..\Documents\zazemli-brand\doodles\8.svg"
   inkscape:export-xdpi="96"
   inkscape:export-ydpi="96"
   xmlns:inkscape="http://www.inkscape.org/namespaces/inkscape"
   xmlns:sodipodi="http://sodipodi.sourceforge.net/DTD/sodipodi-0.dtd"
   xmlns="http://www.w3.org/2000/svg"
   xmlns:svg="http://www.w3.org/2000/svg">
  <defs
     id="defs1" />
  <sodipodi:namedview
     id="namedview1"
     pagecolor="#ffffff"
     bordercolor="#000000"
     borderopacity="0.25"
     inkscape:showpageshadow="2"
     inkscape:pageopacity="0.0"
     inkscape:pagecheckerboard="0"
     inkscape:deskcolor="#d1d1d1"
     inkscape:zoom="1.1844758"
     inkscape:cx="-495.15575"
     inkscape:cy="-285.3583"
     inkscape:window-width="2401"
     inkscape:window-height="1368"
     inkscape:window-x="-7"
     inkscape:window-y="0"
     inkscape:window-maximized="0"
     inkscape:current-layer="g1">
    <inkscape:page
       x="0"
       y="0"
       inkscape:label="1"
       id="page1"
       width="54.903946"
       height="46.924343"
       margin="0"
       bleed="0" />
  </sodipodi:namedview>
  <g
     id="g1"
     inkscape:groupmode="layer"
     inkscape:label="1"
     transform="translate(-459.3458,-578.96088)">
    <path
       id="path6"
       d="m 364.27679,274.58612 v 0 l 0.85239,0.63818 0.8057,1.30985 0.57611,0.58325 0.84448,0.53671 3.36835,3.35257 0.755,0.45362 2.7992,2.78656 0.35482,0.18194 0.53907,0.70841 0.83691,0.52951 1.06067,1.05041 1.38519,0.76834 1.06125,1.36808 0.88232,0.57458 1.89737,2.21625 0.76908,1.70224 0.82147,0.52154 0.9534,1.56693 0.48071,1.17081 -0.21191,0.34103 0.57886,3.16092 -0.0427,1.90933 -0.52362,0.62583 0.19742,0.32647 -0.52207,0.93332 0.20478,0.3353 -0.80371,1.47656 -0.94556,1.26318 -2.32825,1.88355 -2.0404,0.8641 -0.32801,-0.19928 -0.30893,0.20676 -0.64257,0.0464 -2.55674,-0.0417 -2.81094,-0.84259 -4.05884,-1.87073 -1.56881,-0.95324 -0.4914,-0.79218 -0.81634,-0.83307 -0.76926,-1.38488 -0.25,-0.19516 -4.85529,4.46679 -1.57705,0.96091 -1.8198,0.80463 -4.44836,-0.56638 -1.78345,-0.55997 -1.15548,-1.13711 -0.75501,-0.45365 -1.93314,-1.9331 -1.12219,-1.79569 0.19739,-0.32647 -0.50708,-0.63401 0.18994,-0.31741 -0.20248,-0.3302 0.5451,-2.99579 0.60828,-2.04928 1.24148,-2.45401 1.05878,-1.26246 1.61252,-1.23999 1.45315,-1.94003 1.30085,-1.29996 1.38522,-0.7684 2.73605,-2.71939 2.06104,-1.44299 0.52945,-0.83667 0.68399,-0.50797 0.68313,-0.86941 0.95142,-1.58579 0.90317,-1.77505 0.52176,-1.85526 1.16479,-0.82602 m 0.0222,2.24369 v 0 l -0.008,0.18814 m -0.41648,0.20813 v 0 l 0.20685,0.97311 -0.31467,0.17767 -0.82232,1.62946 -0.48795,0.50494 -0.7684,1.38523 -0.49911,0.51577 -1.08799,1.70649 -1.51846,1.21423 -0.18961,0.67081 -1.01016,0.84903 -1.20172,1.68853 -0.76092,0.58478 -1.14216,1.31833 -1.97006,1.80039 -2.04007,2.97506 -0.44955,0.28052 -0.53909,0.70847 -0.7854,0.48547 -1.1955,2.00476 -0.53976,0.4809 0.49615,1.77273 0.6489,1.33273 -0.19938,0.32822 2.71961,2.77499 1.49032,0.82529 1.29664,0.005 3.12683,-0.83758 2.23678,-0.9675 0.3263,0.19721 3.05487,-1.86371 1.38623,-1.56766 0.11361,-0.48859 -0.54748,-1.23138 0.009,-0.6604 0.25778,0.008 0.79993,0.72848 0.1622,-0.10382 0.87012,-2.12222 0.23715,-0.18228 0.23385,0.17743 0.51224,1.02203 0.5217,-0.26849 0.41315,0.43124 -0.18943,0.31687 0.1023,0.15997 0.93591,0.63263 -0.10708,1.44534 2.08499,3.68869 1.58746,1.75223 0.24942,-0.16052 1.02713,0.95761 1.81461,0.55344 0.32922,0.26434 0.63425,-0.50705 0.30905,0.20673 0.64053,0.042 2.14591,-0.55939 1.21014,-1.6987 0.7002,-0.53122 0.88821,-2.01456 0.51575,-0.4844 -0.20154,-0.0982 -0.58945,-2.32608 0.47467,-0.42914 -0.2225,-0.10858 -0.58423,-1.40719 0.20783,-0.33793 -0.85144,-1.55923 -0.0757,-0.53583 -0.7016,-0.54168 -0.80823,-1.77594 0.20929,-0.65339 -0.34784,-0.3844 -0.44573,0.452 -0.98551,-0.95074 -2.52637,-1.89185 -1.09436,-0.47607 -1.51938,-1.50663 -0.35464,-0.18182 -3.22055,-4.04123 -0.76932,-1.38617 -1.45096,-1.78561 -1.11398,-1.80301 0.18991,-0.3176 -0.0946,-0.14996 -0.70383,-1.01999 -0.25137,-0.19428 m 2.54764,0.95511 v 0 l -0.008,0.18814 m -0.62591,1.0806 v 0 l -0.008,0.18814 m 1.27713,0.44623 v 0 l -0.008,0.18808 m 0.64279,2.03217 v 0 l -0.008,0.18811 m 1.9115,0.12909 v 0 l -0.008,0.18807 m -0.72498,-0.1029 v 0 l 0.18811,0.008 m 0.54529,0.85794 v 0 l -0.008,0.18811 m -0.62592,-0.18811 v 0 l -0.008,0.18811 m 0.96594,0.43778 v 0 l -0.42676,0.0996 0.42157,0.10547 m -10.78491,-0.19663 v 0 l -0.008,0.18811 m -1.67655,0.21427 v 0 l 0.18814,0.008 m 16.40433,0.22354 v 0 l -0.008,0.18811 m 1.91153,0.76343 v 0 l -0.008,0.18811 m -1.89465,-0.18811 v 0 l -0.008,0.18811 m -2.84619,-0.18811 v 0 l -0.008,0.18811 m -14.58188,-0.18811 v 0 l -0.008,0.18811 m 18.40488,0.12909 v 0 l -0.008,0.18811 m -3.48056,-0.18811 v 0 l -0.008,0.18808 m -14.89905,0.12909 v 0 l -0.008,0.18811 m -0.22357,-0.40625 v 0 l -0.18811,-0.008 m 17.23068,0.54374 v 0 l -0.008,0.18814 m -17.11932,-0.18814 v 0 l -0.008,0.18814 m 19.67365,0.76343 v 0 l -0.008,0.18811 m -1.9085,-0.32108 v 0 l 0.008,-0.18811 m 3.17721,0.63824 v 0 l -0.008,0.18815 m 0.32559,0.12902 v 0 l -0.008,0.18811 m 0.32562,0.12909 v 0 l -0.008,0.18811 m -5.06644,-0.18811 v 0 l -0.008,0.18811 m 2.86304,0.12906 v 0 l -0.008,0.18814 m -21.87701,0.12903 v 0 l -0.008,0.18814 m 25.38287,0.12906 v 0 l -0.008,0.18814 m -25.6832,-0.18872 v 0 l -0.32272,0.2591 -0.009,0.2554 0.43115,-0.0955 m -1.05066,-0.41846 v 0 l -0.008,0.18814 m 27.29327,0.11685 v 0 l -0.42749,0.10151 0.2782,0.52081 0.76276,0.53583 0.11502,-0.42817 m -27.69617,-0.4006 v 0 l -0.008,0.18808 m 23.48135,0.12936 v 0 l -0.11377,0.41547 0.10544,0.0894 0.10523,-0.4227 m -23.88089,-0.0911 v 0 l -0.48169,0.099 -0.89835,0.88507 -0.75497,0.45362 -1.84766,1.83505 -0.35742,0.18381 -0.65402,1.10177 -0.55942,1.55728 -0.2641,0.33039 0.0874,0.10305 0.47772,-0.10394 1.50028,-1.80459 0.45468,-0.28333 2.08398,-2.88943 1.2002,-1.21616 m 28.2363,0.39142 v 0 l -0.008,0.18808 m -3.48056,-0.18808 v 0 l -0.008,0.18808 m 3.81458,0.12909 v 0 l -0.008,0.18811 m -1.57748,0.12906 v 0 l -0.008,0.18811 m -1.80945,0.22812 v 0 l -0.18814,-0.008 m -26.54025,0.86093 v 0 l -0.008,0.18808 m 31.09214,0.12909 v 0 l -0.008,0.18811 m -2.21185,0.12909 v 0 l -0.008,0.18808 m -1.04218,-4.54342 v 0 l 0.18814,0.008 m 0.12906,5.06647 v 0 l 0.18811,0.008 m 4.13025,10e-4 v 0 l -0.20825,-0.0123 0.10522,0.42267 m 0.3244,0.13022 v 0 l -0.11828,0.73398 0.80542,1.01116 0.0516,-1.02798 m -4.86224,-0.71814 v 0 l -0.008,0.18811 m -29.48938,-0.18811 v 0 l -0.008,0.18811 m 34.89829,0.76343 v 0 l -0.008,0.18811 m -2.21186,0.76343 v 0 l -0.008,0.18811 m 1.91153,0.12909 v 0 l -0.008,0.18808 m -19.3396,0.76345 v 0 l -0.008,0.18808 m 19.99079,0.12909 v 0 l -0.008,0.18811 m -19.65519,0.44654 v 0 l -0.1611,0.40786 0.15262,0.73142 0.15314,-0.41428 m 18.25757,-0.42041 v 0 l -0.48246,0.10263 -0.27237,0.33106 0.59311,1.70337 0.24179,-0.12906 -0.19677,-0.32681 0.53268,-0.92493 -0.11212,-0.48673 m -1.8971,0.37714 v 0 l -0.008,0.18811 m -15.31528,-0.10293 v 0 l 0.18811,0.008 m -0.72326,-0.0926 v 0 l -0.12158,0.74252 0.49154,0.68539 0.0516,-1.02795 m 15.75448,-0.0837 v 0 l -0.008,0.18808 m -0.62436,-0.18784 v 0 l -0.11377,0.4155 0.10541,0.0894 0.10525,-0.42267 m -16.90902,-0.0824 v 0 l -0.008,0.18808 m -19.33959,0.12909 v 0 l -0.008,0.18808 m 19.3624,0.12061 v 0 l -0.42673,0.0996 0.42157,0.10547 m -19.10489,-0.14776 v 0 l -0.0483,1.01175 0.49173,0.68548 0.0559,-0.72085 m 17.65326,-0.39087 v 0 l -0.008,0.18808 m 1.4718,0.11706 v 0 l -0.30805,0.0929 -0.006,0.34601 0.49894,0.83624 0.63378,0.95099 1.20215,1.14514 0.10672,-0.4212 -0.85421,-0.93451 -0.0796,-0.8436 -0.70108,-0.54016 m 16.44088,0.0146 v 0 l -0.008,0.18811 m -0.41629,0.20828 v 0 l 0.0996,0.42676 0.10547,-0.42157 m -15.00504,-0.0844 v 0 l -0.008,0.18808 m -20.60675,-0.18784 v 0 l -0.11374,0.4155 0.10541,0.0894 0.10522,-0.42267 m 37.64606,0.55191 v 0 l -0.008,0.18811 m -37.41733,-0.18783 v 0 l -0.11377,0.4155 0.10544,0.0894 0.10522,-0.4227 m 15.76056,0.23477 v 0 l -0.008,0.18808 m -1.26029,-0.18808 v 0 l -0.008,0.18808 m -15.21625,-0.18808 v 0 l -0.008,0.18808 m 22.52826,0.12909 v 0 l -0.008,0.18808 m -6.33518,-0.18808 v 0 l -0.008,0.18808 m -1.57748,0.12909 v 0 l -0.008,0.18811 m -0.62594,0.12909 v 0 l -0.008,0.18808 m -0.61944,0.11954 v 0 l -0.64786,0.19653 -0.3179,-0.18942 -0.17301,0.26868 -0.9443,0.44714 -2.71704,1.01111 0.65323,0.37445 0.40768,-0.33563 3.8465,-1.49765 m 8.1329,0.0515 v 0 l -0.008,0.18808 m 12.06128,0.12909 v 0 l -0.008,0.18808 m -11.72724,-0.18808 v 0 l -0.008,0.18808 m 0.32559,0.12909 v 0 l -0.008,0.18811 m -13.31317,-0.18811 v 0 l -0.008,0.18811 m 25.06571,0.12909 v 0 l -0.008,0.18808 m -0.94312,-0.18808 v 0 l -0.008,0.18808 m -20.29111,-0.18808 v 0 l -0.008,0.18808 m 20.94232,0.12909 v 0 l -0.008,0.18808 m -26.00037,-0.18808 v 0 l -0.008,0.18808 m 25.70004,0.12909 v 0 l -0.008,0.18811 m -21.55985,-0.18811 v 0 l -0.008,0.18811 m -1.89465,-0.18811 v 0 l -0.008,0.18811 m -1.49225,-20.38861 v 0 l -0.18814,-0.008 m 2.95755,20.52616 v 0 l -0.008,0.18808 m -1.57748,-0.18808 v 0 l -0.008,0.18808 m -0.62594,0.44629 v 0 l -0.008,0.18808 m -0.62591,0.12908 v 0 l -0.008,0.18808 m 22.53422,0.12061 v 0 l -0.42673,0.0996 0.42157,0.10547 m 0.95074,0.43774 v 0 l -0.008,0.18808"
       style="fill:#000000;fill-opacity:1;fill-rule:nonzero;stroke:none"
       transform="matrix(1.3333336,0,0,-1.3333336,0,992.00014)" />
  </g>
</svg>
