<?xml version="1.0" encoding="UTF-8" standalone="no"?>
<!-- Created with Inkscape (http://www.inkscape.org/) -->

<svg
   version="1.1"
   id="svg1"
   width="36.731113"
   height="58.691212"
   viewBox="0 0 36.731113 58.691212"
   sodipodi:docname="7.svg"
   inkscape:version="1.4.3 (0d15f75, 2025-12-25)"
   inkscape:export-filename="..\Documents\zazemli-brand\doodles\6.svg"
   inkscape:export-xdpi="96"
   inkscape:export-ydpi="96"
   xmlns:inkscape="http://www.inkscape.org/namespaces/inkscape"
   xmlns:sodipodi="http://sodipodi.sourceforge.net/DTD/sodipodi-0.dtd"
   xmlns="http://www.w3.org/2000/svg"
   xmlns:svg="http://www.w3.org/2000/svg">
  <defs
     id="defs1" />
  <sodipodi:namedview
     id="namedview1"
     pagecolor="#ffffff"
     bordercolor="#000000"
     borderopacity="0.25"
     inkscape:showpageshadow="2"
     inkscape:pageopacity="0.0"
     inkscape:pagecheckerboard="0"
     inkscape:deskcolor="#d1d1d1"
     inkscape:zoom="1.1844758"
     inkscape:cx="-226.68255"
     inkscape:cy="-131.70383"
     inkscape:window-width="2401"
     inkscape:window-height="1368"
     inkscape:window-x="-7"
     inkscape:window-y="0"
     inkscape:window-maximized="0"
     inkscape:current-layer="g1">
    <inkscape:page
       x="0"
       y="0"
       inkscape:label="1"
       id="page1"
       width="36.731113"
       height="58.691212"
       margin="0"
       bleed="0" />
  </sodipodi:namedview>
  <g
     id="g1"
     inkscape:groupmode="layer"
     inkscape:label="1"
     transform="translate(-191.20966,-425.53168)">
    <path
       id="path8"
       d="m 160.65155,380.8688 v 0 l 1.25829,0.53962 0.34034,-0.21079 2.73856,0.79016 1.27237,0.65216 1.93498,1.61692 0.96582,1.59445 1.74545,5.59061 -0.20054,0.32894 0.24872,0.63553 -0.0378,1.28623 -1.06853,2.36139 -1.16742,2.08114 -1.13138,3.06385 -1.1098,1.12634 -0.77936,1.7131 -0.74113,0.59278 -0.6467,1.30499 -0.51648,0.49173 0.169,0.2601 -0.48764,0.8436 -0.48663,0.50293 -0.70854,1.63525 -0.55992,0.90228 -0.79378,2.0452 -1.41985,2.38705 -1.43452,3.6395 -0.81159,0.83105 -0.22126,0.43555 -0.6512,3.103 -1.34348,0.57733 -0.69883,1.26047 -0.21964,-0.15781 -0.8389,-6.90112 0.2016,-0.32974 -0.20376,-0.30854 v -0.33453 l 0.20314,-0.30905 -0.24129,-0.16129 -2.38582,-6.31906 -1.34041,-2.2998 -2.086,-2.42072 -2.51127,-4.9931 -0.84209,-2.50034 0.21986,-0.66495 -0.52829,-1.56234 0.21737,-0.32062 0.0423,-0.95779 -0.58827,-2.20286 -2e-5,-1.30773 1.52756,-4.89505 0.57094,-1.02405 0.73788,-0.92313 0.85613,-0.67032 3.70254,-1.78094 0.65963,0.003 0.30961,0.20609 0.16565,-0.25135 1.40047,-0.59396 2.55548,-0.0373 0.63548,0.24869 0.63547,-0.24869 h 1.58368 l 0.63545,0.24872 0.3172,-0.18988 0.31721,0.18988 0.31119,-0.20588 m 0.0129,0.336 v 0 l -0.008,0.18814 m -4.74927,0.12903 v 0 l -0.008,0.18814 m 3.18023,0.12906 v 0 l -0.008,0.18811 m -4.43054,-0.18783 v 0 l -0.11376,0.41546 0.10543,0.0894 0.10522,-0.4227 m 7.83107,0.23474 v 0 l -0.008,0.18814 m -8.86532,-0.19879 v 0 l -0.74442,0.10284 0.73752,0.10682 m -1.27013,-0.19858 v 0 l -0.31268,0.20141 -0.33638,-9.1e-4 -0.30859,-0.20374 -2.92279,1.73972 0.71981,0.0559 3.28113,-1.54489 m 12.25055,0.0692 v 0 l -0.008,0.18811 m -3.15318,-0.19992 v 0 l -0.33284,0.19998 -0.30997,-0.20486 -0.33447,1.2e-4 -0.62573,0.25751 -0.64749,-0.25653 -3.28835,0.59747 -0.8237,0.29828 -0.64087,-0.0419 -0.3197,-0.21622 -1.8833,0.84097 -0.32608,-0.1972 -0.3172,0.18994 -0.3174,-0.18991 -3.11134,2.10532 -0.76163,1.37829 -0.48204,0.49793 -0.83447,2.1228 -0.002,2.574 0.88393,3.84772 2.1429,5.2442 1.44053,3.01603 1.76291,5.87307 1.61197,3.86756 -0.20752,0.65255 0.27063,0.17411 0.86099,2.10705 0.2327,-0.15603 0.42464,0.4028 -0.20339,0.64306 0.20369,0.30851 -0.20327,0.64386 0.0989,0.11398 0.61537,-0.90527 1.22417,-2.46842 0.48069,-1.17081 -0.21002,-0.33978 0.80442,-2.10419 0.76052,-0.90679 0.52285,-1.01273 0.43907,-0.26981 1.31669,-1.50222 0.63509,-0.95316 0.9388,-1.57257 0.77426,-1.70834 0.64071,-0.49393 -0.16052,-0.24945 1.16237,-1.38062 -0.18237,-0.4533 0.79489,-0.70325 -0.21082,-0.52136 0.62461,-0.94724 0.69119,-0.53195 1.20236,-3.20322 0.5605,-3.3464 -0.20268,-0.33026 0.1899,-0.31726 -0.20371,-0.30854 0.26258,-0.96133 -0.042,-1.27588 -0.20675,-0.3089 0.19726,-0.3262 -1.12102,-2.11099 -0.76815,-0.5994 -0.93259,-1.28769 -0.87169,-0.6846 -1.87581,-0.92764 m 2.93642,-0.18201 v 0 l -0.008,0.18808 m -18.06489,1.07217 v 0 l -0.42676,0.0996 0.42157,0.10547 m -0.64899,0.30484 v 0 l 0.008,-0.18814 m -0.3058,0.31256 v 0 l -0.42676,0.0996 0.42157,0.10547 m -0.73419,0.52295 v 0 l 0.18812,0.008 m 0.22811,0.85791 v 0 l -0.008,0.18814 m 7.442,0.21375 v 0 l 0.28067,0.31439 -6.1e-4,0.33548 -0.80698,0.69479 1.2459,0.64606 0.19531,0.22916 -0.002,0.3341 -0.42351,0.13947 -0.95257,-0.3024 -1.28481,0.0389 -1.40811,0.91608 -0.90977,2.03641 0.003,1.61129 0.54011,0.61768 0.042,0.32666 -0.042,0.64157 -0.4285,0.40375 -0.52103,-0.27896 -0.42976,-0.63529 -0.74606,-2.03403 0.48568,-1.19387 0.64441,-1.24524 2.25159,-2.57059 0.70343,-0.57425 1.08179,-0.55798 m -8.06345,1.05334 v 0 l 0.15288,0.74256 0.15301,-0.41416 -0.0461,-0.64068 -0.21522,10e-4 m 7.7136,-4.34228 v 0 l 0.008,-0.18815 m 0.95697,6.03031 v 0 l -0.008,0.18814 m -9.45321,0.7876 v 0 l -0.49227,0.68564 0.0404,1.34936 0.50764,-1.3136 m 25.26493,2.10904 v 0 l -0.008,0.18811 m -0.30874,0.12906 v 0 l -0.008,0.18814 m -24.73166,-0.18814 v 0 l -0.008,0.18814 m 0.3256,0.12903 v 0 l -0.008,0.18814 m 24.43132,0.12906 v 0 l -0.008,0.18811 m -24.73313,-0.18826 v 0 l -0.41746,0.40957 0.41202,0.41199 0.41211,-0.41214 m -0.19223,0.82388 v 0 l -0.32907,0.44864 1.48228,4.42594 -0.2088,0.33886 1.1156,2.75522 0.80786,1.12192 0.48677,1.2486 0.23251,-0.15604 0.3181,0.18961 0.15137,-0.41367 -0.0447,-0.6409 -0.26548,-0.15912 -0.8738,-2.28216 -1.30249,-2.60846 0.20757,-0.65259 -0.26694,-0.17185 -0.51051,-1.02304 m -1.21326,1.42078 v 0 l -0.008,0.18811 m 4.44896,6.47266 v 0 l -0.008,0.18811 m 0.008,0.44625 v 0 l -0.008,0.18812 m 0.32561,0.12908 v 0 l -0.008,0.18808 m 10.79257,3.93525 v 0 l -0.008,0.18811 m -0.30815,0.1289 v 0 l -0.25644,0.19446 -0.76964,1.38342 -0.48787,0.5047 -0.51264,1.16294 0.0561,1.03824 0.78918,-1.01948 -0.18991,-0.31756 0.6499,-0.72162 0.82663,-1.79822 m -1.37466,0.52484 v 0 l -0.008,0.18808 m -1.26029,2.98374 v 0 l -0.008,0.18808 m 0.64278,1.71499 v 0 l -0.008,0.18808 m -3.48056,2.34934 v 0 l -0.008,0.18814 m 0.32561,0.12906 v 0 l -0.008,0.18811 m -0.62593,0.44623 v 0 l -0.008,0.18814"
       style="fill:#2878AE;fill-opacity:1;fill-rule:nonzero;stroke:none"
       transform="matrix(1.3333336,0,0,-1.3333336,0,992.00014)" />
  </g>
</svg>
