<?xml version='1.0' encoding='UTF-8'?>
<svg width="8.2mm" height="8.2mm" version="1.1" viewBox="0 0 8.2 8.2" xmlns="http://www.w3.org/2000/svg"><path d="M0.8,0.8H1V1H0.8zM1,0.8H1.2V1H1zM1.2,0.8H1.4V1H1.2zM1.4,0.8H1.6V1H1.4zM1.6,0.8H1.8V1H1.6zM1.8,0.8H2V1H1.8zM2,0.8H2.2V1H2zM2.4,0.8H2.6V1H2.4zM2.6,0.8H2.8V1H2.6zM3.4,0.8H3.6V1H3.4zM3.8,0.8H4V1H3.8zM4,0.8H4.2V1H4zM4.2,0.8H4.4V1H4.2zM5,0.8H5.2V1H5zM5.2,0.8H5.4V1H5.2zM6,0.8H6.2V1H6zM6.2,0.8H6.4V1H6.2zM6.4,0.8H6.6V1H6.4zM6.6,0.8H6.8V1H6.6zM6.8,0.8H7V1H6.8zM7,0.8H7.2V1H7zM7.2,0.8H7.4V1H7.2zM0.8,1H1V1.2H0.8zM2,1H2.2V1.2H2zM2.4,1H2.6V1.2H2.4zM2.8,1H3V1.2H2.8zM3,1H3.2V1.2H3zM3.4,1H3.6V1.2H3.4zM3.6,1H3.8V1.2H3.6zM4,1H4.2V1.2H4zM4.4,1H4.6V1.2H4.4zM4.6,1H4.8V1.2H4.6zM6,1H6.2V1.2H6zM7.2,1H7.4V1.2H7.2zM0.8,1.2H1V1.4H0.8zM1.2,1.2H1.4V1.4H1.2zM1.4,1.2H1.6V1.4H1.4zM1.6,1.2H1.8V1.4H1.6zM2,1.2H2.2V1.4H2zM2.4,1.2H2.6V1.4H2.4zM2.8,1.2H3V1.4H2.8zM3,1.2H3.2V1.4H3zM3.4,1.2H3.6V1.4H3.4zM3.6,1.2H3.8V1.4H3.6zM3.8,1.2H4V1.4H3.8zM4,1.2H4.2V1.4H4zM4.8,1.2H5V1.4H4.8zM5,1.2H5.2V1.4H5zM6,1.2H6.2V1.4H6zM6.4,1.2H6.6V1.4H6.4zM6.6,1.2H6.8V1.4H6.6zM6.8,1.2H7V1.4H6.8zM7.2,1.2H7.4V1.4H7.2zM0.8,1.4H1V1.6H0.8zM1.2,1.4H1.4V1.6H1.2zM1.4,1.4H1.6V1.6H1.4zM1.6,1.4H1.8V1.6H1.6zM2,1.4H2.2V1.6H2zM2.8,1.4H3V1.6H2.8zM3.6,1.4H3.8V1.6H3.6zM4,1.4H4.2V1.6H4zM4.4,1.4H4.6V1.6H4.4zM4.8,1.4H5V1.6H4.8zM5.2,1.4H5.4V1.6H5.2zM5.4,1.4H5.6V1.6H5.4zM5.6,1.4H5.8V1.6H5.6zM6,1.4H6.2V1.6H6zM6.4,1.4H6.6V1.6H6.4zM6.6,1.4H6.8V1.6H6.6zM6.8,1.4H7V1.6H6.8zM7.2,1.4H7.4V1.6H7.2zM0.8,1.6H1V1.8H0.8zM1.2,1.6H1.4V1.8H1.2zM1.4,1.6H1.6V1.8H1.4zM1.6,1.6H1.8V1.8H1.6zM2,1.6H2.2V1.8H2zM2.4,1.6H2.6V1.8H2.4zM3.2,1.6H3.4V1.8H3.2zM3.4,1.6H3.6V1.8H3.4zM3.8,1.6H4V1.8H3.8zM4,1.6H4.2V1.8H4zM4.2,1.6H4.4V1.8H4.2zM5.2,1.6H5.4V1.8H5.2zM5.4,1.6H5.6V1.8H5.4zM6,1.6H6.2V1.8H6zM6.4,1.6H6.6V1.8H6.4zM6.6,1.6H6.8V1.8H6.6zM6.8,1.6H7V1.8H6.8zM7.2,1.6H7.4V1.8H7.2zM0.8,1.8H1V2H0.8zM2,1.8H2.2V2H2zM2.6,1.8H2.8V2H2.6zM3,1.8H3.2V2H3zM3.4,1.8H3.6V2H3.4zM3.6,1.8H3.8V2H3.6zM3.8,1.8H4V2H3.8zM4,1.8H4.2V2H4zM4.2,1.8H4.4V2H4.2zM4.6,1.8H4.8V2H4.6zM5.6,1.8H5.8V2H5.6zM6,1.8H6.2V2H6zM7.2,1.8H7.4V2H7.2zM0.8,2H1V2.2H0.8zM1,2H1.2V2.2H1zM1.2,2H1.4V2.2H1.2zM1.4,2H1.6V2.2H1.4zM1.6,2H1.8V2.2H1.6zM1.8,2H2V2.2H1.8zM2,2H2.2V2.2H2zM2.4,2H2.6V2.2H2.4zM2.8,2H3V2.2H2.8zM3.2,2H3.4V2.2H3.2zM3.6,2H3.8V2.2H3.6zM4,2H4.2V2.2H4zM4.4,2H4.6V2.2H4.4zM4.8,2H5V2.2H4.8zM5.2,2H5.4V2.2H5.2zM5.6,2H5.8V2.2H5.6zM6,2H6.2V2.2H6zM6.2,2H6.4V2.2H6.2zM6.4,2H6.6V2.2H6.4zM6.6,2H6.8V2.2H6.6zM6.8,2H7V2.2H6.8zM7,2H7.2V2.2H7zM7.2,2H7.4V2.2H7.2zM2.6,2.2H2.8V2.4H2.6zM3,2.2H3.2V2.4H3zM3.2,2.2H3.4V2.4H3.2zM3.6,2.2H3.8V2.4H3.6zM3.8,2.2H4V2.4H3.8zM4,2.2H4.2V2.4H4zM5.4,2.2H5.6V2.4H5.4zM0.8,2.4H1V2.6H0.8zM1.4,2.4H1.6V2.6H1.4zM1.6,2.4H1.8V2.6H1.6zM1.8,2.4H2V2.6H1.8zM2,2.4H2.2V2.6H2zM2.2,2.4H2.4V2.6H2.2zM2.4,2.4H2.6V2.6H2.4zM2.8,2.4H3V2.6H2.8zM3.4,2.4H3.6V2.6H3.4zM3.6,2.4H3.8V2.6H3.6zM4,2.4H4.2V2.6H4zM4.2,2.4H4.4V2.6H4.2zM5.4,2.4H5.6V2.6H5.4zM5.6,2.4H5.8V2.6H5.6zM5.8,2.4H6V2.6H5.8zM6.4,2.4H6.6V2.6H6.4zM6.8,2.4H7V2.6H6.8zM7,2.4H7.2V2.6H7zM7.2,2.4H7.4V2.6H7.2zM1,2.6H1.2V2.8H1zM1.2,2.6H1.4V2.8H1.2zM1.4,2.6H1.6V2.8H1.4zM1.6,2.6H1.8V2.8H1.6zM2.2,2.6H2.4V2.8H2.2zM2.8,2.6H3V2.8H2.8zM3,2.6H3.2V2.8H3zM3.4,2.6H3.6V2.8H3.4zM3.6,2.6H3.8V2.8H3.6zM4.2,2.6H4.4V2.8H4.2zM4.4,2.6H4.6V2.8H4.4zM4.6,2.6H4.8V2.8H4.6zM5,2.6H5.2V2.8H5zM5.2,2.6H5.4V2.8H5.2zM5.4,2.6H5.6V2.8H5.4zM6.4,2.6H6.6V2.8H6.4zM6.6,2.6H6.8V2.8H6.6zM6.8,2.6H7V2.8H6.8zM7,2.6H7.2V2.8H7zM7.2,2.6H7.4V2.8H7.2zM1.4,2.8H1.6V3H1.4zM1.8,2.8H2V3H1.8zM2,2.8H2.2V3H2zM2.2,2.8H2.4V3H2.2zM2.4,2.8H2.6V3H2.4zM2.8,2.8H3V3H2.8zM3.2,2.8H3.4V3H3.2zM3.4,2.8H3.6V3H3.4zM5.2,2.8H5.4V3H5.2zM5.4,2.8H5.6V3H5.4zM6,2.8H6.2V3H6zM6.4,2.8H6.6V3H6.4zM6.6,2.8H6.8V3H6.6zM6.8,2.8H7V3H6.8zM7.2,2.8H7.4V3H7.2zM0.8,3H1V3.2H0.8zM1.6,3H1.8V3.2H1.6zM2.6,3H2.8V3.2H2.6zM3,3H3.2V3.2H3zM3.4,3H3.6V3.2H3.4zM3.8,3H4V3.2H3.8zM4.4,3H4.6V3.2H4.4zM4.6,3H4.8V3.2H4.6zM4.8,3H5V3.2H4.8zM5,3H5.2V3.2H5zM5.2,3H5.4V3.2H5.2zM5.4,3H5.6V3.2H5.4zM5.8,3H6V3.2H5.8zM6.2,3H6.4V3.2H6.2zM6.8,3H7V3.2H6.8zM7,3H7.2V3.2H7zM0.8,3.2H1V3.4H0.8zM1.6,3.2H1.8V3.4H1.6zM2,3.2H2.2V3.4H2zM2.2,3.2H2.4V3.4H2.2zM2.4,3.2H2.6V3.4H2.4zM2.6,3.2H2.8V3.4H2.6zM2.8,3.2H3V3.4H2.8zM3.4,3.2H3.6V3.4H3.4zM4.2,3.2H4.4V3.4H4.2zM5,3.2H5.2V3.4H5zM5.4,3.2H5.6V3.4H5.4zM5.8,3.2H6V3.4H5.8zM6,3.2H6.2V3.4H6zM6.2,3.2H6.4V3.4H6.2zM6.4,3.2H6.6V3.4H6.4zM7,3.2H7.2V3.4H7zM7.2,3.2H7.4V3.4H7.2zM0.8,3.4H1V3.6H0.8zM1,3.4H1.2V3.6H1zM1.2,3.4H1.4V3.6H1.2zM1.4,3.4H1.6V3.6H1.4zM1.6,3.4H1.8V3.6H1.6zM1.8,3.4H2V3.6H1.8zM2.2,3.4H2.4V3.6H2.2zM2.6,3.4H2.8V3.6H2.6zM3.2,3.4H3.4V3.6H3.2zM3.4,3.4H3.6V3.6H3.4zM3.6,3.4H3.8V3.6H3.6zM4.2,3.4H4.4V3.6H4.2zM4.4,3.4H4.6V3.6H4.4zM4.6,3.4H4.8V3.6H4.6zM4.8,3.4H5V3.6H4.8zM5,3.4H5.2V3.6H5zM5.6,3.4H5.8V3.6H5.6zM6,3.4H6.2V3.6H6zM6.2,3.4H6.4V3.6H6.2zM6.4,3.4H6.6V3.6H6.4zM6.6,3.4H6.8V3.6H6.6zM0.8,3.6H1V3.8H0.8zM1,3.6H1.2V3.8H1zM1.4,3.6H1.6V3.8H1.4zM2,3.6H2.2V3.8H2zM2.4,3.6H2.6V3.8H2.4zM3,3.6H3.2V3.8H3zM3.6,3.6H3.8V3.8H3.6zM3.8,3.6H4V3.8H3.8zM4.4,3.6H4.6V3.8H4.4zM4.6,3.6H4.8V3.8H4.6zM4.8,3.6H5V3.8H4.8zM5,3.6H5.2V3.8H5zM5.2,3.6H5.4V3.8H5.2zM6,3.6H6.2V3.8H6zM6.2,3.6H6.4V3.8H6.2zM0.8,3.8H1V4H0.8zM1,3.8H1.2V4H1zM1.6,3.8H1.8V4H1.6zM2.2,3.8H2.4V4H2.2zM3,3.8H3.2V4H3zM3.4,3.8H3.6V4H3.4zM4,3.8H4.2V4H4zM4.8,3.8H5V4H4.8zM5.6,3.8H5.8V4H5.6zM5.8,3.8H6V4H5.8zM6.2,3.8H6.4V4H6.2zM6.6,3.8H6.8V4H6.6zM7.2,3.8H7.4V4H7.2zM1.2,4H1.4V4.2H1.2zM1.8,4H2V4.2H1.8zM2,4H2.2V4.2H2zM2.4,4H2.6V4.2H2.4zM2.6,4H2.8V4.2H2.6zM2.8,4H3V4.2H2.8zM3.2,4H3.4V4.2H3.2zM3.4,4H3.6V4.2H3.4zM3.8,4H4V4.2H3.8zM4,4H4.2V4.2H4zM4.8,4H5V4.2H4.8zM5.4,4H5.6V4.2H5.4zM5.6,4H5.8V4.2H5.6zM5.8,4H6V4.2H5.8zM6,4H6.2V4.2H6zM6.2,4H6.4V4.2H6.2zM6.4,4H6.6V4.2H6.4zM6.6,4H6.8V4.2H6.6zM6.8,4H7V4.2H6.8zM0.8,4.2H1V4.4H0.8zM1.2,4.2H1.4V4.4H1.2zM1.4,4.2H1.6V4.4H1.4zM1.6,4.2H1.8V4.4H1.6zM1.8,4.2H2V4.4H1.8zM2.2,4.2H2.4V4.4H2.2zM2.4,4.2H2.6V4.4H2.4zM3,4.2H3.2V4.4H3zM4,4.2H4.2V4.4H4zM4.2,4.2H4.4V4.4H4.2zM4.4,4.2H4.6V4.4H4.4zM4.6,4.2H4.8V4.4H4.6zM5.2,4.2H5.4V4.4H5.2zM5.8,4.2H6V4.4H5.8zM6,4.2H6.2V4.4H6zM6.4,4.2H6.6V4.4H6.4zM6.8,4.2H7V4.4H6.8zM0.8,4.4H1V4.6H0.8zM1.2,4.4H1.4V4.6H1.2zM2,4.4H2.2V4.6H2zM3,4.4H3.2V4.6H3zM3.8,4.4H4V4.6H3.8zM4.2,4.4H4.4V4.6H4.2zM4.4,4.4H4.6V4.6H4.4zM4.6,4.4H4.8V4.6H4.6zM5,4.4H5.2V4.6H5zM5.2,4.4H5.4V4.6H5.2zM5.4,4.4H5.6V4.6H5.4zM5.6,4.4H5.8V4.6H5.6zM6.2,4.4H6.4V4.6H6.2zM6.6,4.4H6.8V4.6H6.6zM6.8,4.4H7V4.6H6.8zM1.2,4.6H1.4V4.8H1.2zM1.8,4.6H2V4.8H1.8zM2.2,4.6H2.4V4.8H2.2zM2.6,4.6H2.8V4.8H2.6zM2.8,4.6H3V4.8H2.8zM3,4.6H3.2V4.8H3zM3.2,4.6H3.4V4.8H3.2zM3.4,4.6H3.6V4.8H3.4zM4.6,4.6H4.8V4.8H4.6zM5.2,4.6H5.4V4.8H5.2zM5.4,4.6H5.6V4.8H5.4zM5.6,4.6H5.8V4.8H5.6zM5.8,4.6H6V4.8H5.8zM6.4,4.6H6.6V4.8H6.4zM6.6,4.6H6.8V4.8H6.6zM6.8,4.6H7V4.8H6.8zM7,4.6H7.2V4.8H7zM1,4.8H1.2V5H1zM2,4.8H2.2V5H2zM2.4,4.8H2.6V5H2.4zM3,4.8H3.2V5H3zM3.4,4.8H3.6V5H3.4zM3.8,4.8H4V5H3.8zM4,4.8H4.2V5H4zM4.4,4.8H4.6V5H4.4zM5,4.8H5.2V5H5zM5.2,4.8H5.4V5H5.2zM5.4,4.8H5.6V5H5.4zM5.6,4.8H5.8V5H5.6zM6,4.8H6.2V5H6zM6.4,4.8H6.6V5H6.4zM6.6,4.8H6.8V5H6.6zM7.2,4.8H7.4V5H7.2zM0.8,5H1V5.2H0.8zM1.8,5H2V5.2H1.8zM2.2,5H2.4V5.2H2.2zM2.4,5H2.6V5.2H2.4zM2.8,5H3V5.2H2.8zM3.4,5H3.6V5.2H3.4zM3.6,5H3.8V5.2H3.6zM5,5H5.2V5.2H5zM6,5H6.2V5.2H6zM6.4,5H6.6V5.2H6.4zM6.8,5H7V5.2H6.8zM0.8,5.2H1V5.4H0.8zM1.2,5.2H1.4V5.4H1.2zM1.6,5.2H1.8V5.4H1.6zM2,5.2H2.2V5.4H2zM2.4,5.2H2.6V5.4H2.4zM2.8,5.2H3V5.4H2.8zM3.4,5.2H3.6V5.4H3.4zM4.2,5.2H4.4V5.4H4.2zM4.6,5.2H4.8V5.4H4.6zM4.8,5.2H5V5.4H4.8zM5.2,5.2H5.4V5.4H5.2zM5.6,5.2H5.8V5.4H5.6zM6.8,5.2H7V5.4H6.8zM7,5.2H7.2V5.4H7zM7.2,5.2H7.4V5.4H7.2zM0.8,5.4H1V5.6H0.8zM1.8,5.4H2V5.6H1.8zM2.2,5.4H2.4V5.6H2.2zM3.2,5.4H3.4V5.6H3.2zM3.4,5.4H3.6V5.6H3.4zM3.6,5.4H3.8V5.6H3.6zM3.8,5.4H4V5.6H3.8zM4.2,5.4H4.4V5.6H4.2zM4.4,5.4H4.6V5.6H4.4zM4.6,5.4H4.8V5.6H4.6zM4.8,5.4H5V5.6H4.8zM5.2,5.4H5.4V5.6H5.2zM6,5.4H6.2V5.6H6zM6.4,5.4H6.6V5.6H6.4zM6.6,5.4H6.8V5.6H6.6zM6.8,5.4H7V5.6H6.8zM7,5.4H7.2V5.6H7zM0.8,5.6H1V5.8H0.8zM1,5.6H1.2V5.8H1zM1.2,5.6H1.4V5.8H1.2zM1.4,5.6H1.6V5.8H1.4zM1.8,5.6H2V5.8H1.8zM2,5.6H2.2V5.8H2zM2.4,5.6H2.6V5.8H2.4zM2.6,5.6H2.8V5.8H2.6zM3,5.6H3.2V5.8H3zM3.4,5.6H3.6V5.8H3.4zM3.6,5.6H3.8V5.8H3.6zM4,5.6H4.2V5.8H4zM4.8,5.6H5V5.8H4.8zM5.6,5.6H5.8V5.8H5.6zM5.8,5.6H6V5.8H5.8zM6,5.6H6.2V5.8H6zM6.2,5.6H6.4V5.8H6.2zM6.4,5.6H6.6V5.8H6.4zM6.8,5.6H7V5.8H6.8zM7,5.6H7.2V5.8H7zM2.4,5.8H2.6V6H2.4zM2.6,5.8H2.8V6H2.6zM3,5.8H3.2V6H3zM3.2,5.8H3.4V6H3.2zM3.6,5.8H3.8V6H3.6zM4,5.8H4.2V6H4zM4.2,5.8H4.4V6H4.2zM4.4,5.8H4.6V6H4.4zM5,5.8H5.2V6H5zM5.4,5.8H5.6V6H5.4zM5.6,5.8H5.8V6H5.6zM6.4,5.8H6.6V6H6.4zM6.8,5.8H7V6H6.8zM7.2,5.8H7.4V6H7.2zM0.8,6H1V6.2H0.8zM1,6H1.2V6.2H1zM1.2,6H1.4V6.2H1.2zM1.4,6H1.6V6.2H1.4zM1.6,6H1.8V6.2H1.6zM1.8,6H2V6.2H1.8zM2,6H2.2V6.2H2zM2.4,6H2.6V6.2H2.4zM3,6H3.2V6.2H3zM3.2,6H3.4V6.2H3.2zM3.4,6H3.6V6.2H3.4zM3.6,6H3.8V6.2H3.6zM4,6H4.2V6.2H4zM4.2,6H4.4V6.2H4.2zM4.6,6H4.8V6.2H4.6zM4.8,6H5V6.2H4.8zM5.4,6H5.6V6.2H5.4zM5.6,6H5.8V6.2H5.6zM6,6H6.2V6.2H6zM6.4,6H6.6V6.2H6.4zM6.8,6H7V6.2H6.8zM7,6H7.2V6.2H7zM0.8,6.2H1V6.4H0.8zM2,6.2H2.2V6.4H2zM2.4,6.2H2.6V6.4H2.4zM2.6,6.2H2.8V6.4H2.6zM2.8,6.2H3V6.4H2.8zM3.4,6.2H3.6V6.4H3.4zM3.8,6.2H4V6.4H3.8zM4.2,6.2H4.4V6.4H4.2zM4.4,6.2H4.6V6.4H4.4zM4.6,6.2H4.8V6.4H4.6zM5,6.2H5.2V6.4H5zM5.2,6.2H5.4V6.4H5.2zM5.4,6.2H5.6V6.4H5.4zM5.6,6.2H5.8V6.4H5.6zM6.4,6.2H6.6V6.4H6.4zM6.6,6.2H6.8V6.4H6.6zM6.8,6.2H7V6.4H6.8zM7,6.2H7.2V6.4H7zM7.2,6.2H7.4V6.4H7.2zM0.8,6.4H1V6.6H0.8zM1.2,6.4H1.4V6.6H1.2zM1.4,6.4H1.6V6.6H1.4zM1.6,6.4H1.8V6.6H1.6zM2,6.4H2.2V6.6H2zM2.4,6.4H2.6V6.6H2.4zM2.6,6.4H2.8V6.6H2.6zM3,6.4H3.2V6.6H3zM4,6.4H4.2V6.6H4zM4.2,6.4H4.4V6.6H4.2zM4.6,6.4H4.8V6.6H4.6zM5,6.4H5.2V6.6H5zM5.2,6.4H5.4V6.6H5.2zM5.4,6.4H5.6V6.6H5.4zM5.6,6.4H5.8V6.6H5.6zM5.8,6.4H6V6.6H5.8zM6,6.4H6.2V6.6H6zM6.2,6.4H6.4V6.6H6.2zM6.4,6.4H6.6V6.6H6.4zM7.2,6.4H7.4V6.6H7.2zM0.8,6.6H1V6.8H0.8zM1.2,6.6H1.4V6.8H1.2zM1.4,6.6H1.6V6.8H1.4zM1.6,6.6H1.8V6.8H1.6zM2,6.6H2.2V6.8H2zM2.4,6.6H2.6V6.8H2.4zM2.8,6.6H3V6.8H2.8zM3,6.6H3.2V6.8H3zM3.4,6.6H3.6V6.8H3.4zM3.6,6.6H3.8V6.8H3.6zM4,6.6H4.2V6.8H4zM4.2,6.6H4.4V6.8H4.2zM4.4,6.6H4.6V6.8H4.4zM5.2,6.6H5.4V6.8H5.2zM5.6,6.6H5.8V6.8H5.6zM5.8,6.6H6V6.8H5.8zM6.2,6.6H6.4V6.8H6.2zM7,6.6H7.2V6.8H7zM0.8,6.8H1V7H0.8zM1.2,6.8H1.4V7H1.2zM1.4,6.8H1.6V7H1.4zM1.6,6.8H1.8V7H1.6zM2,6.8H2.2V7H2zM2.6,6.8H2.8V7H2.6zM2.8,6.8H3V7H2.8zM3.2,6.8H3.4V7H3.2zM3.8,6.8H4V7H3.8zM4.2,6.8H4.4V7H4.2zM4.6,6.8H4.8V7H4.6zM5.2,6.8H5.4V7H5.2zM5.4,6.8H5.6V7H5.4zM5.6,6.8H5.8V7H5.6zM5.8,6.8H6V7H5.8zM6.2,6.8H6.4V7H6.2zM6.4,6.8H6.6V7H6.4zM6.6,6.8H6.8V7H6.6zM7,6.8H7.2V7H7zM7.2,6.8H7.4V7H7.2zM0.8,7H1V7.2H0.8zM2,7H2.2V7.2H2zM2.8,7H3V7.2H2.8zM3.2,7H3.4V7.2H3.2zM3.6,7H3.8V7.2H3.6zM4.6,7H4.8V7.2H4.6zM4.8,7H5V7.2H4.8zM5.2,7H5.4V7.2H5.2zM5.4,7H5.6V7.2H5.4zM5.6,7H5.8V7.2H5.6zM5.8,7H6V7.2H5.8zM6,7H6.2V7.2H6zM6.2,7H6.4V7.2H6.2zM6.4,7H6.6V7.2H6.4zM6.6,7H6.8V7.2H6.6zM7,7H7.2V7.2H7zM7.2,7H7.4V7.2H7.2zM0.8,7.2H1V7.4H0.8zM1,7.2H1.2V7.4H1zM1.2,7.2H1.4V7.4H1.2zM1.4,7.2H1.6V7.4H1.4zM1.6,7.2H1.8V7.4H1.6zM1.8,7.2H2V7.4H1.8zM2,7.2H2.2V7.4H2zM2.4,7.2H2.6V7.4H2.4zM2.6,7.2H2.8V7.4H2.6zM3,7.2H3.2V7.4H3zM3.8,7.2H4V7.4H3.8zM4,7.2H4.2V7.4H4zM4.4,7.2H4.6V7.4H4.4zM4.6,7.2H4.8V7.4H4.6zM5.6,7.2H5.8V7.4H5.6zM6.2,7.2H6.4V7.4H6.2zM6.4,7.2H6.6V7.4H6.4zM6.8,7.2H7V7.4H6.8z" id="qr-path" fill="#000000" fill-opacity="1" fill-rule="nonzero" stroke="none"/></svg>