<?xml version="1.0" encoding="UTF-8" standalone="no"?>
<!-- Created with Inkscape (http://www.inkscape.org/) -->

<svg
   version="1.1"
   id="svg1"
   width="43.49601"
   height="63.767746"
   viewBox="0 0 43.49601 63.767746"
   sodipodi:docname="10.svg"
   inkscape:version="1.4.3 (0d15f75, 2025-12-25)"
   inkscape:export-filename="..\Documents\zazemli-brand\doodles\9.svg"
   inkscape:export-xdpi="96"
   inkscape:export-ydpi="96"
   xmlns:inkscape="http://www.inkscape.org/namespaces/inkscape"
   xmlns:sodipodi="http://sodipodi.sourceforge.net/DTD/sodipodi-0.dtd"
   xmlns="http://www.w3.org/2000/svg"
   xmlns:svg="http://www.w3.org/2000/svg">
  <defs
     id="defs1" />
  <sodipodi:namedview
     id="namedview1"
     pagecolor="#ffffff"
     bordercolor="#000000"
     borderopacity="0.25"
     inkscape:showpageshadow="2"
     inkscape:pageopacity="0.0"
     inkscape:pagecheckerboard="0"
     inkscape:deskcolor="#d1d1d1"
     inkscape:zoom="1.1844758"
     inkscape:cx="-412.41873"
     inkscape:cy="-298.02213"
     inkscape:window-width="2401"
     inkscape:window-height="1368"
     inkscape:window-x="-7"
     inkscape:window-y="0"
     inkscape:window-maximized="0"
     inkscape:current-layer="g1">
    <inkscape:page
       x="0"
       y="0"
       inkscape:label="1"
       id="page1"
       width="43.49601"
       height="63.767746"
       margin="0"
       bleed="0" />
  </sodipodi:namedview>
  <g
     id="g1"
     inkscape:groupmode="layer"
     inkscape:label="1"
     transform="translate(-376.81671,-591.73358)">
    <path
       id="path7"
       d="m 305.04794,252.45325 v 0 l 4.03308,1.4929 1.84635,1.8526 2.22134,2.85655 1.4382,2.7454 -0.20657,0.33691 0.85413,2.82419 -0.22422,0.64541 0.21616,0.65601 -0.55972,2.93323 -0.5857,1.73227 -1.10287,1.43512 -0.54642,1.17096 -0.41629,0.42605 -0.5683,1.05368 -1.58004,1.28403 -2.45035,1.29196 -3.69748,1.14404 -0.97898,-0.22299 -0.30029,0.2204 -0.64258,0.0466 -1.27703,-0.0466 -0.30027,-0.2204 -0.9613,0.26248 -1.89993,3.4e-4 -2.43149,-0.66284 -0.57688,-0.44965 -0.31533,0.007 -2.61695,-1.34775 -1.27832,-1.27982 -0.81817,-2.43615 0.20803,-0.33805 -0.52206,-0.93332 0.19739,-0.32629 -0.20676,-0.3089 3.4e-4,-0.96817 0.52359,-0.62582 -0.18988,-0.31754 1.10745,-1.4797 0.82959,-0.52927 0.94693,-1.2652 0.78021,-1.71402 1.9289,-2.56302 2.20385,-1.25122 2.75263,-0.81915 0.3295,0.20126 0.30889,-0.20675 1.59211,-0.0424 2.84387,0.57855 0.34088,-0.21164 1.1716,0.50199 1.87592,1.37237 0.65719,1.11627 0.84052,3.12052 -0.21042,0.65408 0.24869,0.6355 -0.0378,1.60336 -0.51263,1.16293 -1.05609,1.24247 -0.63532,0.42974 -2.01608,0.75184 -1.93069,-0.005 -1.16205,-0.81403 -0.83286,-0.81628 -1.30987,-0.80585 -0.55972,-0.5968 0.16107,-0.25192 -0.29526,-0.1799 -0.53568,-0.76105 0.19724,-0.32614 -0.19943,-0.32807 0.49075,-1.15969 0.8652,-0.53022 1.61142,0.003 1.51661,1.1691 0.80679,1.15426 v 0.96827 l -0.95603,0.94253 0.53031,0.42615 1.17953,-0.50583 1.27558,-0.95843 0.51257,-1.16291 0.0423,-0.97021 -0.0423,-0.65286 -0.51263,-1.16297 -0.65314,-0.65332 -1.90915,-1.27249 -2.09613,-0.81381 -3.17859,0.53964 -0.33099,-0.20206 -0.17157,0.26697 -2.89911,1.79773 -0.9393,0.75168 -0.86176,1.38446 0.003,0.65967 0.22787,0.51367 -0.58658,0.73291 0.0371,2.25284 1.1337,2.73401 0.67474,0.99362 1.56562,1.24832 2.43258,1.14783 0.97016,0.0426 2.22863,-0.0471 3.46344,-2.12936 0.75776,0.10568 -0.1055,0.47891 -0.73041,0.8006 0.42117,0.10672 0.82663,-0.60755 1.95108,-2.13653 1.80759,-2.93765 0.9107,-4.89594 -0.55587,-3.00937 -0.56678,-1.65075 -0.76007,-1.25104 -2.85083,-1.7041 -1.70382,-0.74347 -0.6655,0.22067 -1.89203,-0.53665 -3.01053,0.56955 -0.77563,0.29214 -0.65311,-0.20907 -0.31723,0.18988 -0.32608,-0.19721 -1.8067,0.81601 -0.72168,0.64993 -0.3291,-0.20053 -1.4946,0.50892 -0.9328,0.61639 -1.45416,1.43823 -1.09436,0.47608 -1.60486,1.60473 -1.97318,2.92612 -2.01721,4.25217 -0.0381,1.60257 1.16172,3.40499 1.59686,2.84021 2.88586,2.88675 3.92475,2.35547 1.11841,0.9513 0.24307,-0.17838 0.9675,1.5e-4 0.40902,0.36155 2.73673,1.45056 0.5357,0.0756 0.75123,0.85568 0.32577,-0.19696 0.84467,0.48844 2.06582,1.58465 -0.12967,0.18054 1.58237,1.43607 1.2691,1.90433 0.61478,1.20654 0.83752,3.43143 -0.5578,2.26516 -0.34423,0.60129 -0.48243,0.4205 -0.42852,-0.40387 -0.0378,-0.32449 0.58322,-2.20166 -9.8e-4,-2.25839 -0.51349,-1.16385 -1.57376,-2.20822 -0.33682,-0.3371 -1.01279,-0.52216 -1.60492,-1.33276 -4.67587,-2.90088 -2.68118,-1.4285 -0.48542,-0.47036 -3.00332,-1.43262 -0.50287,-0.48679 -1.70654,-1.08798 -1.14811,-1.13226 -0.75497,-0.45365 -0.97137,-0.97106 -0.6102,-1.03721 -0.9747,-1.18246 -0.62735,-1.26077 -0.50922,-1.49488 0.2005,-0.32894 -0.24872,-0.63553 0.0372,-1.92118 0.82913,-2.42871 0.33393,-0.40652 -0.20673,-0.30908 -0.004,-0.9784 0.49021,-1.17367 2.86471,-5.68549 0.95355,-1.11609 0.16742,0.12592 0.5477,-1.00269 1.36786,-1.37753 0.49258,-0.79294 1.55814,-0.92566 5.07117,-2.14657 4.02752,-0.59353 0.65442,0.21142 0.63547,-0.24869 m -0.31137,1.01321 v 0 l -0.008,0.18814 m -0.61997,-0.19661 v 0 l -0.42676,0.0996 0.42157,0.1055 m -0.95361,-0.19679 v 0 l -0.32144,0.18832 -0.31024,-0.20781 -0.97907,-0.005 -1.55493,0.53931 -0.32025,-0.21424 -0.33441,0.003 -0.17523,0.30998 -0.62772,0.42558 -1.63702,0.69849 -0.81818,0.57728 0.72806,0.15125 0.63556,-0.24843 0.3262,0.19728 1.867,-0.93703 3.18711,-0.85669 0.32907,0.20046 0.41195,-0.41216 m 4.43775,-0.31025 v 0 l -0.18814,-0.008 m -0.20743,0.79446 v 0 l -1.92444,0.0515 0.008,0.25743 0.30829,0.27533 0.65207,-0.21078 4.01462,2.07303 1.37012,0.97924 0.10287,-0.0871 -0.0452,-0.42127 -0.44479,-0.75744 -0.66437,-0.66445 -2.42202,-1.45183 m -4.87299,0.37604 v 0 l -0.55164,0.48564 0.33258,0.0366 0.41553,-0.092 0.6041,-0.43399 m -2.38047,0.37015 v 0 l 0.18812,0.008 m -1.35779,0.22355 v 0 l -0.008,0.18813 m 11.64508,0.21423 v 0 l 0.18812,0.008 m -0.72345,-0.0936 v 0 l -0.008,0.18814 m -10.05615,-0.40626 v 0 l -0.18811,-0.008 m -5.93735,0.0936 v 0 l 0.008,-0.18812 m 6.34902,0.63823 v 0 l -0.008,0.18814 m -4.11493,-0.18814 v 0 l -0.008,0.18814 m 1.81274,0.21267 v 0 l 0.40668,0.15635 0.41544,-0.14786 -0.41291,-0.14826 m -1.89379,0.046 v 0 l -2.93244,1.42994 0.70151,0.0945 0.63556,-0.24841 0.32629,0.19738 1.73792,-1.1116 m -2.37448,-0.35168 v 0 l -0.008,0.18811 m -0.85791,-0.40622 v 0 l -0.18811,-0.008 m -0.52505,0.21811 v 0 l -0.42765,0.0435 -0.67999,0.4808 -0.60736,0.64087 0.003,0.2035 0.43896,0.10903 0.14389,-0.10763 1.11585,-1.11865 m 17.75546,-0.0587 v 0 l 0.008,-0.18811 m 0.32257,0.63821 v 0 l -0.008,0.18815 m 0.32562,0.12905 v 0 l -0.008,0.18811 m 0.32559,0.12906 v 0 l -0.008,0.18814 m 0.95999,0.12903 v 0 l -0.008,0.18814 m -0.68704,-0.14605 v 0 l -0.0618,1.02017 0.51263,1.16293 1.12164,1.45566 1.07804,1.87173 0.0577,-0.72192 -0.74503,-2.02393 -0.70737,-1.34564 m -2.78054,-1.46109 v 0 l -0.008,0.18811 m -0.94311,-0.18811 v 0 l -0.008,0.18814 m -14.58184,0.12906 v 0 l -0.008,0.18811 m -1.88855,-0.19674 v 0 l -0.48117,0.099 -0.26153,0.32059 0.4212,0.10675 0.40457,-0.42825 m -2.0061,-0.22235 v 0 l 0.008,-0.18814 m -0.31177,0.32107 v 0 l -0.008,0.18811 m 20.30798,0.12906 v 0 l -0.008,0.18814 m -19.0145,0.11875 v 0 l -0.53341,-0.0233 -0.53525,0.75351 0.42816,0.11499 0.62534,-0.59186 m 21.57553,0.0742 v 0 l -0.008,0.18814 m -23.78009,-0.18814 v 0 l -0.008,0.18814 m 24.11417,0.12903 v 0 l -0.008,0.18814 m -24.41449,-0.18814 v 0 l -0.008,0.18814 m 13.34864,0.10715 v 0 l -1.94828,-0.003 -2.26205,0.57761 -0.88175,0.60266 -0.84335,0.0796 -0.53604,0.75385 0.095,0.11105 3.16217,-1.17072 2.55331,-0.039 0.63547,0.24869 0.30854,-0.20371 0.64303,0.20374 0.32984,-0.20175 2.26901,0.56729 1.42618,0.87646 0.84976,0.99878 0.30829,-0.10748 0.003,-0.65057 -0.61282,-0.83072 -1.49515,-0.98844 m -16.07572,-0.80215 v 0 l -0.008,0.18811 m -0.32257,0.31332 v 0 l 0.008,-0.18814 m -1.5805,0.32105 v 0 l -0.008,0.18814 m 25.46808,-0.0891 v 0 l -0.18811,-0.008 m -10.91321,-4.74926 v 0 l -0.18811,-0.008 m -6.15548,4.76612 v 0 l -0.18814,-0.008 m -5.70536,0.31177 v 0 l 0.18811,0.008 m -2.88931,0.24777 v 0 l -1.12579,1.95358 0.11065,0.42947 0.25162,-0.19558 0.81702,-1.46811 m 13.93326,-0.64453 v 0 l -0.18811,-0.008 m 11.28942,0.6428 v 0 l -0.18811,-0.008 m -17.02484,0.22656 v 0 l -0.008,0.18815 m 13.41519,0.22808 v 0 l -0.18811,-0.008 m -2.43454,0.22659 v 0 l -0.008,0.18814 m -0.22382,-0.40472 v 0 l -0.41552,-0.11377 -0.0894,0.10544 0.42267,0.10522 m 6.34088,1.07123 v 0 l -0.008,0.18814 m -5.06647,-0.18814 v 0 l -0.008,0.18814 m -12.04441,-0.18814 v 0 l -0.008,0.18814 m -0.30875,0.12903 v 0 l -0.008,0.18814 m 18.08771,0.12906 v 0 l -0.008,0.18814 m -5.28766,-0.41055 v 0 l -0.20825,-0.0123 0.10519,0.42267 m -13.63168,-0.18793 v 0 l -0.008,0.18814 m 20.40396,-0.0933 v 0 l -0.20825,-0.0124 0.1052,0.4227 m -6.25135,-0.0889 v 0 l -0.18811,-0.008 m -22.09973,0.22659 v 0 l -0.008,0.18811 m 26.75033,-0.093 v 0 l -0.21334,-0.0124 -0.0459,0.32791 6e-5,1.58338 0.1535,0.41424 0.15348,-0.41421 m -3.54187,-1.88907 v 0 l -0.0996,-0.42673 -0.10547,0.42154 m -0.83856,0.21765 v 0 l -0.11377,0.4155 0.10543,0.0894 0.1052,-0.4227 m -8.02796,0.86911 v 0 l -0.008,0.18814 m 2.54587,0.12903 v 0 l -0.008,0.18814 m 10.87777,-0.0891 v 0 l -0.18814,-0.008 m -4.27594,0.25272 v 0 l -0.48758,0.69183 0.20426,0.33478 -0.48789,0.84412 -2.05371,1.43527 -0.41522,0.41537 -0.009,0.25528 1.74741,-0.55929 0.73801,-0.6037 1.11636,-2.41986 m -1.28101,-0.63806 v 0 l -0.18811,-0.008 m -9.10916,-10.05612 v 0 l 0.008,-0.18811 m 4.65345,11.18308 v 0 l 0.10287,0.74441 0.10681,-0.73752 m -3.58899,-0.0848 v 0 l -0.008,0.18812 m -15.85058,-0.18812 v 0 l -0.008,0.18808 m 8.25513,0.12909 v 0 l -0.008,0.18814 m -1.89466,-0.18814 v 0 l -0.008,0.18814 m 21.25952,0.12903 v 0 l -0.008,0.18814 m -9.28885,-0.1029 v 0 l 0.18811,0.008 m -11.61511,-0.0144 v 0 l 0.0996,0.42675 0.10547,-0.42157 m -1.04911,-0.0844 v 0 l -0.008,0.18814 m 23.16263,0.12906 v 0 l -0.008,0.18811 m -4.11489,-0.18811 v 0 l -0.008,0.18811 m -0.52993,-5.16818 v 0 l -0.20829,-0.0124 0.10523,0.42264 m -17.86267,4.96606 v 0 l 0.0905,0.43659 0.42264,-0.10474 -0.26218,-0.31857 m 22.06534,0.53335 v 0 l -0.64685,0.19519 -0.25217,-0.16104 -1.12994,2.2695 0.11108,0.42987 0.52323,-0.27954 1.47775,-2.35586 m -5.07889,-14.89789 v 0 l -0.18811,-0.008 m -16.82675,15.20244 v 0 l -0.0968,0.6647 -0.42722,-0.10192 -0.10656,0.42117 0.65429,0.70209 0.49405,1.75024 0.93134,1.24686 0.88498,0.82794 0.10672,-0.42121 -1.61591,-2.6184 m 21.814,-1.90552 v 0 l -0.008,0.18808 m -5.70083,-0.18808 v 0 l -0.008,0.18808 m -1.57749,0.44629 v 0 l -0.008,0.18808 m -16.80216,-0.18808 v 0 l -0.008,0.18808 m -6.3352,0.12909 v 0 l -0.008,0.18811 m 27.60315,0.76343 v 0 l -0.008,0.18814 m -0.30875,0.12905 v 0 l -0.008,0.18808 m -0.30875,0.12909 v 0 l -0.008,0.18808 m 1.27713,0.12909 v 0 l -0.008,0.18814 m -18.70523,-15.41281 v 0 l -0.008,0.18814 m 0.95999,15.03653 v 0 l -0.008,0.18814 m -10.14135,-0.18814 v 0 l -0.008,0.18811 m 26.65158,-15.09558 v 0 l -0.008,0.18811 m 0.95996,15.03656 v 0 l -0.008,0.18808 m -0.30267,0.12046 v 0 l -0.48166,0.099 -0.57819,0.63779 0.42117,0.10669 0.62537,-0.59189 m -1.57867,-0.24295 v 0 l -0.008,0.18814 m -18.07086,0.12903 v 0 l -0.008,0.18811 m -7.28674,-0.18811 v 0 l -0.008,0.18811 m 25.06571,0.12909 v 0 l -0.008,0.18808 m -17.43652,-0.18808 v 0 l -0.008,0.18808 m 18.09381,0.12051 v 0 l -0.43659,0.0906 0.10474,0.42264 0.31857,-0.26218 m -0.62719,0.39194 v 0 l -0.008,0.18814 m -15.3153,-0.10297 v 0 l 0.18814,0.008 m 0.22809,0.22354 v 0 l -0.008,0.18811 m 11.43289,0.1206 v 0 l -0.42675,0.0996 0.42157,0.10547 m -0.7342,0.20575 v 0 l 0.18815,0.008 m -9.38639,-0.008 v 0 l 0.18814,0.008 m 8.15763,0.22354 v 0 l -0.008,0.18811 m -19.65673,-0.18811 v 0 l -0.008,0.18811 m 14.91593,0.12909 v 0 l -0.008,0.18808 m -11.72726,2.34936 v 0 l -0.008,0.18814 m 3.4974,2.98368 v 0 l -0.008,0.18807 m 6.66922,2.98371 v 0 l -0.008,0.18811 m 2.54586,1.3978 v 0 l -0.008,0.18811 m -0.30875,0.12909 v 0 l -0.008,0.18808 m 1.27713,0.12908 v 0 l -0.008,0.18808 m 1.91153,1.08063 v 0 l -0.008,0.18811 m 3.8146,4.25244 v 0 l -0.008,0.18808"
       style="fill:#000000;fill-opacity:1;fill-rule:nonzero;stroke:none"
       transform="matrix(1.3333336,0,0,-1.3333336,0,992.00014)" />
  </g>
</svg>
