<?xml version="1.0" encoding="UTF-8" standalone="no"?>
<!-- Created with Inkscape (http://www.inkscape.org/) -->

<svg
   version="1.1"
   id="svg1"
   width="37.901196"
   height="56.820637"
   viewBox="0 0 37.901195 56.820637"
   sodipodi:docname="5.svg"
   inkscape:version="1.4.3 (0d15f75, 2025-12-25)"
   inkscape:export-filename="..\Documents\zazemli-brand\doodles\4.svg"
   inkscape:export-xdpi="96"
   inkscape:export-ydpi="96"
   xmlns:inkscape="http://www.inkscape.org/namespaces/inkscape"
   xmlns:sodipodi="http://sodipodi.sourceforge.net/DTD/sodipodi-0.dtd"
   xmlns="http://www.w3.org/2000/svg"
   xmlns:svg="http://www.w3.org/2000/svg">
  <defs
     id="defs1" />
  <sodipodi:namedview
     id="namedview1"
     pagecolor="#ffffff"
     bordercolor="#000000"
     borderopacity="0.25"
     inkscape:showpageshadow="2"
     inkscape:pageopacity="0.0"
     inkscape:pagecheckerboard="0"
     inkscape:deskcolor="#d1d1d1"
     inkscape:zoom="1.1844758"
     inkscape:cx="-550.03234"
     inkscape:cy="17.729362"
     inkscape:window-width="2401"
     inkscape:window-height="1368"
     inkscape:window-x="-7"
     inkscape:window-y="0"
     inkscape:window-maximized="0"
     inkscape:current-layer="g1">
    <inkscape:page
       x="0"
       y="0"
       inkscape:label="1"
       id="page1"
       width="37.901196"
       height="56.820637"
       margin="0"
       bleed="0" />
  </sodipodi:namedview>
  <g
     id="g1"
     inkscape:groupmode="layer"
     inkscape:label="1"
     transform="translate(-513.90851,-276.23044)">
    <path
       id="path13"
       d="m 392.02521,494.2117 v 0 l 0.37027,0.18951 0.55056,0.76255 -0.68338,0.72204 -0.49023,-1.02041 0.19919,-0.32791 -0.18948,-0.31833 m 1.4663,1.88986 v 0 l 0.10141,0.65591 0.52478,0.62699 -0.20361,0.30868 0.003,0.33438 0.30685,0.17319 0.53577,0.76108 -0.51435,0.64313 0.41193,0.41211 0.31757,-0.18992 0.41192,0.41193 -0.18988,0.31757 0.52063,0.62552 -0.17572,0.57821 0.39111,0.53375 -0.10122,0.1662 0.5202,0.62488 -0.20343,0.64325 0.52341,0.62592 3.3e-4,0.65084 -0.20642,0.31006 0.3075,0.18692 0.30786,0.47196 0.85022,2.18582 -0.1969,0.32709 0.30743,0.18689 0.30942,0.4747 0.5351,1.5458 -0.2006,0.32914 0.33277,0.40441 1.74551,3.94849 0.22922,0.19568 0.47754,-0.10748 0.58008,-0.56684 0.83609,-0.50024 0.65969,0.003 0.31012,0.20642 0.11188,-0.31579 -0.34076,-0.40662 0.35861,-0.29327 1.13767,-0.75989 0.31845,0.1897 1.0502,-0.97876 3.69959,-2.38977 -0.0876,0.41995 0.26645,0.12076 0.57022,-1.0141 0.82657,-0.49103 0.65906,0.008 -0.0154,0.5289 0.63364,-0.21338 0.64298,0.20362 0.31848,-0.18961 0.0934,0.0935 -0.27902,0.52301 -1.30136,0.81399 -0.58386,0.56717 -0.46796,-0.0948 -0.51807,0.27695 -0.83783,1.00729 -1.6998,0.89588 -0.53906,0.70837 -0.83691,0.52954 -1.04813,1.039 -1.01275,0.52308 -0.55076,0.57421 0.1301,0.18079 -1.01852,0.81879 -0.69037,-0.50135 -0.0534,0.71137 0.20639,0.3103 -0.34326,-0.0673 -0.49847,0.68268 0.51632,1.84155 0.62729,1.26074 0.34632,0.39563 -0.20346,0.64331 1.15948,1.88544 -0.21542,0.66089 1.16702,1.87653 -0.21548,0.66094 0.6564,1.02887 1.1463,2.74939 -0.18121,0.58686 0.49932,0.49188 -0.21008,0.52698 1.47431,1.57586 0.0147,0.52704 -0.70129,0.51612 -0.48761,-0.4151 -0.0797,0.54168 -0.50964,0.49182 0.16171,0.25293 -0.0866,0.10218 -0.42365,-0.0479 -0.60226,-0.44238 0.16803,-0.25812 -0.60977,-0.79297 -0.54767,-1.09204 0.52811,-10e-4 v -0.64948 l -0.42438,0.10248 -0.4119,-0.41193 0.20356,-0.3081 0.006,-0.34522 -0.83377,-2.43786 -0.32709,-0.39777 0.19733,-0.32642 -0.80371,-1.4765 -0.48788,-0.50494 -1.77823,-3.70105 0.0533,-0.40308 0.6962,0.79749 0.11264,-0.43152 -0.51657,-1.31122 -0.55103,0.47382 -0.0936,-0.0936 0.47513,-0.55664 -1.00543,-0.55194 0.0856,-0.47864 -0.41192,-0.41193 -0.31739,0.18988 -0.3085,-0.20361 -0.33374,0.004 0.13034,0.59387 -2.08856,1.17657 0.15683,0.23743 -0.18305,0.23853 -0.87094,0.54644 0.0105,0.26081 -0.25049,-0.16034 -1.01104,1.12878 -0.52707,0.0792 -1.05963,1.18969 -0.65085,3.1e-4 -0.31076,-0.20697 -0.18857,0.61334 -1.07004,0.862 -0.65091,2.4e-4 -0.50909,-0.22747 -1.23209,1.38482 -0.85519,0.69965 -0.18094,-0.13019 -1.0119,1.12476 -0.478,-0.10773 -0.26749,-0.32684 0.83701,-1.19281 2.11053,-1.43775 0.25818,0.16809 0.46533,-0.63208 -0.83236,-0.69671 0.11847,-0.15894 0.31625,-0.25873 0.24939,0.16046 2.38718,-2.53515 0.8443,-0.48786 0.64492,0.5149 0.10309,-0.0874 -0.17071,-0.57397 0.6391,-0.49121 0.52975,-0.83698 0.8985,-0.89215 1.16974,-0.79706 0.75213,0.84412 0.19861,-0.003 -0.0654,-0.36274 0.49564,-0.69983 -0.75507,0.10517 -0.099,-0.43115 2.07467,-1.33881 -0.50308,-0.72846 1.1687,-0.78198 -0.42056,-0.10614 -0.6258,0.25733 -0.54837,-0.22937 -0.50869,-1.49573 0.0985,-0.11389 0.5737,0.20459 0.7684,1.23486 0.34585,-0.38361 -0.50711,-0.63421 0.19718,-0.32623 -1.10745,-2.37745 -0.36496,0.47516 0.52996,0.63422 -0.10949,0.73791 -0.319,-0.19024 -0.31845,0.18963 0.0962,-0.41204 -0.50705,-0.63404 0.18945,-0.31671 -0.16052,-0.24921 1.11249,-1.02017 -0.32144,-0.39053 -0.76398,-3.31073 -1.32459,-3.89224 -0.65332,-1.09433 -0.61593,0.12234 0.52398,0.62766 0.0794,1.48254 0.55981,0.54135 -0.21124,0.52204 0.50705,0.63406 -0.18951,0.31814 0.26684,0.17161 0.56638,1.08554 -0.19925,0.32791 0.18994,0.31723 -0.18976,0.3183 0.30741,0.18685 0.30941,0.47471 0.5351,1.54599 -0.35504,0.39492 -0.79706,-1.01748 0.18994,-0.3176 -0.32355,-0.39304 -1.77005,-5.60113 -0.32376,-0.65762 0.20426,-0.33478 -0.32633,-0.66492 -1.14877,-4.07321 0.19919,-0.32794 -0.20362,-0.30853 0.004,-0.33375 0.42371,0.10322 0.14743,-0.42713 -0.53339,-0.68558 0.55042,-0.56817 m 0.1578,1.81064 v 0 l -0.008,0.18811 m 0.64279,0.44626 v 0 l -0.008,0.18811 m 0.008,0.44622 v 0 l -0.008,0.18811 m -0.005,0.6305 v 0 l 0.008,-0.18811 m 0.40781,0.4201 v 0 l -0.18814,-0.008 m 0.95541,1.2633 v 0 l 0.18811,0.008 m -1.35779,-0.0936 v 0 l -0.008,0.18811 m 0.33359,0.12277 v 0 l -0.12177,0.42334 0.0983,0.10071 0.711,-0.0486 m -1.0127,0.16519 v 0 l -0.008,0.18811 m 1.4845,0.5357 v 0 l 0.20828,0.0123 -0.10523,-0.42267 m 0.54209,1.67481 v 0 l 0.18811,0.008 m 0.22812,1.49228 v 0 l -0.008,0.18811 m 0.22657,0.21426 v 0 l 0.18811,0.008 m 0.53143,1.99371 v 0 l 0.008,-0.18811 m -1.58047,-4.75384 v 0 l -0.008,0.18811 m 15.86747,5.52114 v 0 l -0.008,0.18811 m 1.27716,0.12906 v 0 l -0.008,0.18811 m -0.94311,-0.18811 v 0 l -0.008,0.18811 m 0.32563,0.12906 v 0 l -0.008,0.18814 m -0.94156,-0.18783 v 0 l -0.15634,0.40668 0.14786,0.4154 0.14825,-0.41287 m -13.46292,-0.0923 v 0 l -0.008,0.18811 m 12.38004,0.44654 v 0 l -0.11377,0.41546 0.1054,0.0894 0.10523,-0.42267 m -0.73123,-0.0822 v 0 l -0.11377,0.41546 0.10544,0.0894 0.10522,-0.42267 m -0.67648,0.25906 v 0 l -0.53241,0.39148 -0.27222,-0.0141 2.1e-4,0.64896 0.11365,0.0955 1.03916,-0.73755 m -1.67347,0.2258 v 0 l -0.008,0.18811 m -9.28885,-0.10291 v 0 l 0.18811,0.008 m 11.01227,0.22354 v 0 l -0.008,0.18811 m -2.21185,-0.18811 v 0 l -0.008,0.18811 m 1.27713,0.12909 v 0 l -0.008,0.18811 m -0.94153,-0.18787 v 0 l -0.11377,0.41553 0.10541,0.0894 0.10525,-0.42267 m 0.53592,0.23474 v 0 l -0.008,0.18811 m -1.26028,0.12903 v 0 l -0.008,0.18811 m -0.94314,-0.18811 v 0 l -0.008,0.18811 m 0.3256,0.12909 v 0 l -0.008,0.18811 m -0.72497,-0.10291 v 0 l 0.18811,0.008 m -6.74985,-0.0936 v 0 l -0.008,0.18811 m -0.62592,0.12909 v 0 l -0.008,0.18811 m 8.26251,0.11834 v 0 l -0.74389,0.10132 0.41238,0.41364 0.31689,-0.26178 m -1.5787,-0.2425 v 0 l -0.008,0.18812 m -0.63977,-0.32105 v 0 l 0.008,-0.18811 m -5.80292,0.40625 v 0 l 0.18814,0.008 m 5.52112,0.30878 v 0 l 0.18811,0.008 m -5.48111,-0.0936 v 0 l -0.008,0.18812 m 6.88736,0.21429 v 0 l 0.18811,0.008 m -0.83097,-0.0144 v 0 l 0.0996,0.42676 0.10547,-0.42157 m -1.46533,7.9e-4 v 0 l 0.18811,0.008 m -0.51608,0.63013 v 0 l 0.20828,0.0124 -0.10522,-0.42273 m -1.8963,0.32092 v 0 l -0.008,0.18811 m -2.5429,-0.26068 v 0 l 0.016,-0.25757 -0.33539,-9.1e-4 -0.0954,0.43109 m 5.08737,0.30237 v 0 l 0.18811,0.008 m -1.04062,-0.0936 v 0 l -0.008,0.18811 m -3.48056,-0.18811 v 0 l -0.008,0.18811 m 4.13333,0.12934 v 0 l -0.11374,0.41546 0.10541,0.0894 0.10522,-0.42267 m -1.044,-0.0909 v 0 l -0.42676,0.0997 0.42157,0.10547 m -0.95233,-0.19666 v 0 l -0.008,0.18811 m -3.89679,-5.17779 v 0 l 0.18811,0.008 m 4.98581,5.29843 v 0 l -0.008,0.18811 m -3.479,-0.18787 v 0 l -0.11374,0.41553 0.1054,0.0894 0.10523,-0.42267 m -2.01538,-4.97311 v 0 l 0.008,-0.18812 m 5.40485,5.7031 v 0 l -0.42758,0.0995 0.41494,0.41516 m -1.91323,-0.63782 v 0 l 0.15631,-0.40668 -0.14783,-0.41546 -0.14826,0.4129 m -0.47763,0.85986 v 0 l -0.11373,0.41553 0.1054,0.0894 0.10523,-0.42267 m -1.3656,-0.0822 v 0 l -0.11377,0.41553 0.10544,0.0894 0.10522,-0.42267 m -1.05002,-0.0825 v 0 l -0.008,0.18811 m 3.49741,0.12909 v 0 l -0.008,0.18811 m -3.16339,-0.18811 v 0 l -0.008,0.18811 m 2.86304,0.12909 v 0 l -0.008,0.18811 m -2.52743,-0.18787 v 0 l -0.11377,0.41553 0.10541,0.0893 0.10525,-0.42266 m 1.17026,0.23474 v 0 l -0.008,0.18811 m -0.62592,-0.18811 v 0 l -0.008,0.18811 m 1.9115,0.12909 v 0 l -0.008,0.18811 m -0.94311,-0.18811 v 0 l -0.008,0.18811 m -1.97165,-0.15113 v 0 l -0.24421,0.15216 -0.32186,-0.19232 -0.10633,0.42041 1.05286,0.72895 0.11944,-0.43689 m 0.53019,-0.0747 v 0 l -0.11374,0.41553 0.1054,0.0893 0.10523,-0.42267 m -2.6359,-10.2322 v 0 l -0.008,0.18811 m 0.64279,9.96164 v 0 l -0.008,0.18811 m -0.94311,-0.18811 v 0 l -0.008,0.18811 m 4.02198,0.20684 v 0 l -0.0134,0.66645 0.86496,2.18371 -0.18115,0.58673 0.50848,0.4917 -0.22922,1.16858 0.42108,-0.10223 0.23172,0.17499 0.50901,1.4934 -0.20014,0.32978 0.26724,0.17193 0.88111,1.72144 -0.19721,0.32629 0.32816,0.39887 0.48767,1.24713 0.16531,-0.12573 0.44681,0.45007 0.3479,-0.38464 -0.3327,-0.40436 -0.50104,-1.17066 0.19937,-0.32818 -0.83783,-0.94269 0.21094,-0.65216 -0.65643,-1.02875 -0.50196,-1.17157 0.19938,-0.32818 -0.84406,-0.95295 0.3364,-0.62091 -0.47971,-0.43823 -0.27667,-0.5459 -0.7988,-2.09454 -0.25598,-0.20099 m -0.3205,-0.12909 v 0 l 0.008,-0.18811 m -2.92249,0.68707 v 0 l -0.11706,0.85089 -1.40149,0.87268 -0.23841,-0.15747 -0.50522,0.95661 -0.64148,0.49206 0.10703,0.30603 0.47757,-0.10443 2.69415,-2.06134 0.0717,-0.24621 m 1.53699,-0.65052 v 0 l -0.42759,0.0995 0.41492,0.41516 m -0.9389,-0.51684 v 0 l -0.43787,0.0942 0.0977,0.43586 0.73843,-0.10694 m -3.2529,0.21289 v 0 l -0.74441,0.10279 0.73751,0.10681 m 4.7573,0.11816 v 0 l -0.008,0.18811 m -2.76099,-5.16394 v 0 l -0.18814,-0.008 m -1.48297,4.98425 v 0 l -0.008,0.18811 m 6.03485,0.12909 v 0 l -0.008,0.18811 m -1.25873,-0.18786 v 0 l -0.11377,0.41552 0.10541,0.0894 0.10526,-0.42267 m -0.73282,-0.0825 v 0 l -0.008,0.18811 m -2.21183,-0.18811 v 0 l -0.008,0.18811 m -3.48056,-0.18811 v 0 l -0.008,0.18811 m 5.40048,0.12909 v 0 l -0.008,0.18811 m -4.74927,-0.18811 v 0 l -0.008,0.18811 m -0.93714,-0.19659 v 0 l -0.42679,0.0996 0.4216,0.10546 m 0.31638,0.12055 v 0 l -0.008,0.18811 m 6.66922,0.12909 v 0 l -0.008,0.18811 m -6.96072,0.1167 v 0 l -0.64719,-0.0484 -0.41537,0.15112 0.20706,0.31067 -3.3e-4,0.96814 -0.52359,0.6261 0.34439,0.3833 0.79702,-1.01752 -0.20657,-0.30914 0.005,-0.65015 0.52878,0.0156 m 1.48822,-0.10016 v 0 l -0.008,0.18817 m -1.26031,0.12842 v 0 l -0.32272,0.25915 -0.009,0.25537 0.43112,-0.0955 m 8.46478,-0.10125 v 0 l -0.008,0.18811 m -11.41006,-0.18811 v 0 l -0.008,0.18811 m 1.27713,0.12903 v 0 l -0.008,0.18817 m -1.8931,-0.18787 v 0 l -0.11374,0.41553 0.10541,0.0893 0.10523,-0.42267 m 3.39053,0.23475 v 0 l -0.008,0.18811 m -1.89466,-0.18811 v 0 l -0.008,0.18811 m -1.26031,0.12908 v 0 l -0.008,0.18812 m -0.62594,-0.18812 v 0 l -0.008,0.18812 m 1.91007,0.12884 v 0 l -0.63962,0.57593 -0.008,0.25531 0.42361,-0.0479 0.60236,-0.44159 m 10.72488,-0.0244 v 0 l -0.008,0.18811 m -1.57593,-0.18786 v 0 l -0.11374,0.41552 0.10541,0.0894 0.10522,-0.42267 m -11.52059,-0.0881 v 0 l -1.70508,1.16638 0.28781,0.52515 0.77951,-0.73621 0.24869,0.15997 0.49847,-0.68298 m 11.93326,-10.07495 v 0 l 0.008,-0.18811 m -0.94613,10.47076 v 0 l -0.008,0.18817 m -10.45855,-0.18817 v 0 l -0.008,0.18817 m -0.30874,0.12903 v 0 l -0.008,0.18811 m -2.52902,-0.18811 v 0 l -0.008,0.18811 m 1.59445,0.13007 v 0 l -0.11612,0.4154 0.42792,0.4054 0.10669,-0.42121 m 14.07266,0.63617 v 0 l 0.18811,0.008 m -16.89963,0.54071 v 0 l -0.008,0.18817 m -1.5715,1.07208 v 0 l -0.42676,0.0997 0.42157,0.10547 m 19.2482,1.15729 v 0 l 0.18811,0.008 m -0.40613,0.22449 v 0 l -0.11612,0.41546 0.42792,0.4054 0.10669,-0.4212 m -1.37015,-0.0834 v 0 l -0.008,0.18811 m 0.26443,0.17121 v 0 l -0.054,0.69342 0.43286,0.0953 0.045,-0.20099 m 0.5889,0.005 v 0 l -0.008,0.18811 m -0.30875,0.12909 v 0 l -0.008,0.18811 m 0.64276,0.44623 v 0 l -0.008,0.18817 m -0.62438,-0.18787 v 0 l -0.11374,0.41553 0.1054,0.0893 0.10523,-0.42266 m 0.21887,0.86999 v 0 l -0.1217,0.42597 0.5758,1.06768 0.81586,-0.0222 0.30871,-0.27832 0.008,-0.25507 -0.9743,0.21478 0.24243,-0.41076 m 0.41373,-0.42578 v 0 l -0.008,0.18811 m 0.64276,0.12909 v 0 l -0.008,0.18811 m 0.008,0.44622 v 0 l -0.008,0.18811 m -1.57748,-4.62866 v 0 l -0.008,0.18817 m 0.3256,4.88672 v 0 l -0.008,0.18817"
       style="fill:#000000;fill-opacity:1;fill-rule:nonzero;stroke:none"
       transform="matrix(1.3333336,0,0,-1.3333336,0,992.00014)" />
  </g>
</svg>
