<?xml version="1.0" encoding="UTF-8" standalone="no"?>
<!-- Created with Inkscape (http://www.inkscape.org/) -->

<svg
   version="1.1"
   id="svg1"
   width="101.77216"
   height="110.63601"
   viewBox="0 0 101.77216 110.63601"
   sodipodi:docname="6.svg"
   inkscape:version="1.4.3 (0d15f75, 2025-12-25)"
   inkscape:export-filename="..\Documents\zazemli-brand\doodles\5.svg"
   inkscape:export-xdpi="96"
   inkscape:export-ydpi="96"
   xmlns:inkscape="http://www.inkscape.org/namespaces/inkscape"
   xmlns:sodipodi="http://sodipodi.sourceforge.net/DTD/sodipodi-0.dtd"
   xmlns="http://www.w3.org/2000/svg"
   xmlns:svg="http://www.w3.org/2000/svg">
  <defs
     id="defs1" />
  <sodipodi:namedview
     id="namedview1"
     pagecolor="#ffffff"
     bordercolor="#000000"
     borderopacity="0.25"
     inkscape:showpageshadow="2"
     inkscape:pageopacity="0.0"
     inkscape:pagecheckerboard="0"
     inkscape:deskcolor="#d1d1d1"
     inkscape:zoom="1.1844758"
     inkscape:cx="-65.429788"
     inkscape:cy="-76.827234"
     inkscape:window-width="2401"
     inkscape:window-height="1368"
     inkscape:window-x="-7"
     inkscape:window-y="0"
     inkscape:window-maximized="0"
     inkscape:current-layer="g1">
    <inkscape:page
       x="0"
       y="0"
       inkscape:label="1"
       id="page1"
       width="101.77216"
       height="110.63601"
       margin="0"
       bleed="0" />
  </sodipodi:namedview>
  <g
     id="g1"
     inkscape:groupmode="layer"
     inkscape:label="1"
     transform="translate(-29.46633,-370.8017)">
    <path
       id="path5"
       d="m 102.01998,481.31395 v 0 l 0.0107,-0.87605 -0.34741,-0.83651 0.19588,-0.55001 0.66772,0.81792 1.45109,1.12792 0.14631,-0.984 -2.17134,-2.65663 -2.295716,-3.9652 -0.650347,-0.67277 -3.805067,-7.18857 -2.21804,-5.15734 -1.398907,-2.3394 0.265866,-0.43762 -0.806226,-1.95105 -0.756801,-0.72221 0.28168,-0.69543 -0.25316,-0.42301 0.271654,-0.41135 -7.6e-4,-0.44507 -2.670081,-1.82552 -0.579307,0.1328 -0.004,0.86858 0.916201,1.37329 1.501347,3.24288 -0.151574,0.99703 -0.33376,-0.25794 -2.091814,-3.35782 -0.651253,-1.90104 -0.721293,-0.6788 -0.868507,0.004 -0.132934,0.5793 0.992867,1.48336 3.378268,6.73674 2.62948,4.7447 2.538841,3.38583 1.2658,1.06832 -0.214027,0.33256 1.287667,1.80554 0.845427,1.69161 2.29952,5.70231 0.857976,1.66158 0.74434,0.70084 m 0.86683,-2.55908 v 0 l -0.0107,-0.25081 m -0.8346,0.25081 v 0 l -0.0107,-0.25081 m -0.41168,-0.17208 v 0 l -0.0107,-0.25085 m 0.54775,-0.72706 v 0 l -0.25082,0.0107 m -0.7086,-1.14787 v 0 l -0.0107,-0.25086 m -52.67161,-0.2718 v 0 l 0.46548,-0.25282 0.75247,-1.44754 -0.26515,-0.43832 0.35634,-0.22928 2.65429,-4.5523 0.99596,-2.71456 0.86201,-1.67415 2.96082,-4.65361 1.08837,-1.11047 1.86958,-2.69462 1.82477,-1.413 2.64768,-3.07919 0.60484,-1.00663 1.39573,-1.39999 0.47286,-0.24242 2.84085,-3.97539 -0.13571,-0.99829 -0.56337,0.0623 -1.11812,0.65516 -0.87871,-0.0107 0.25516,-0.84522 0.69243,-0.64376 -0.53831,-0.0729 -1.11397,0.66447 -1.62097,1.61234 -1.56142,2.3947 -2.35553,2.79952 -1.45064,2.27535 -1.0868,1.1079 -1.45064,2.27536 -1.08682,1.10787 -2.53742,3.38325 -1.36672,2.22404 -1.5511,3.17046 -1.96436,5.03268 0.26584,0.43761 -0.70332,0.84868 0.66606,0.93038 -0.51198,0.46188 -0.42558,-0.25367 -0.14032,0.11707 -0.012,0.88045 m 1.00942,0.52116 v 0 l -0.0107,-0.25085 m -0.29808,-0.30412 v 0 l -0.25083,0.0107 m 51.30905,-0.72501 v 0 l -0.01067,-0.25081 M 49.8756,470.8422 v 0 l -0.0107,-0.25086 m -0.83457,0.25086 v 0 l -0.0107,-0.25086 m 47.799783,-0.17208 v 0 l -0.01067,-0.25081 m -2.526214,-2.70955 v 0 l -0.01067,-0.25081 M 50.41432,467.7498 v 0 l -0.25083,0.0107 m 43.273796,-1.99373 v 0 l -0.01067,-0.25082 m 0.857054,-0.17208 v 0 L 94.273,465.09302 m -1.6804,-0.17204 v 0 l -0.01067,-0.25085 m -39.74206,-0.17208 v 0 l -0.0107,-0.25082 m 19.441312,-0.15344 v 0 l 0.619881,-0.44246 0.80656,-3.91072 -0.288094,-0.42774 -0.0093,-0.46196 1.147867,-5.88737 -0.702974,-1.03007 -1.255546,4.304 -0.307081,0.22872 -0.136213,-0.1156 0.284413,-0.84489 -0.1324,-0.57857 -0.738333,-0.009 -0.279112,0.3986 -0.84353,5.22674 0.004,2.58666 0.73201,0.97763 0.689325,-0.28085 M 51.97641,463.40752 v 0 l 0.0107,0.25081 m 20.306782,-1.27388 v 0 l -0.01067,-0.25081 m 19.887898,-1.01791 v 0 l -0.01067,-0.25081 m -1.6804,-0.59497 v 0 l -0.01067,-0.25086 m -0.54372,-1.5544 v 0 l 0.250813,-0.0107 m 1.017894,-0.83459 v 0 l 0.25084,-0.0107 m -0.541693,-0.29805 v 0 l -0.01067,-0.25085 M 59.18601,456.04194 v 0 l -0.0107,-0.25086 m -0.72098,0.5417 v 0 l -0.25083,0.0107 m -0.29133,-1.13355 v 0 l -0.0164,-0.2777 0.56356,0.14029 m 15.219734,-0.009 v 0 l -0.25084,0.0107 m 16.207723,-1.5708 v 0 l -0.01067,-0.25085 M 60.87879,453.08049 v 0 l -0.0107,-0.25085 m -1.2575,0.25085 v 0 l -0.0107,-0.25085 m 1.70286,-0.17208 v 0 l -0.0107,-0.25078 m 0.4343,-0.17338 v 0 l -0.15484,-0.55391 0.90187,-0.96997 1.86088,-2.6847 2.02308,-1.55529 0.44504,0.005 -0.0107,0.34061 -0.75454,0.77584 -0.60483,1.00664 -1.44571,1.21952 m 42.27212,-1.91516 v 0 l -0.26279,-0.86508 0.25305,-0.42276 -0.25316,-0.42293 0.27148,-0.41131 -0.003,-0.44677 -0.83229,-0.24165 -0.72861,-0.99175 0.007,-0.45821 0.56737,-0.53723 0.84556,0.67611 0.4234,-0.25322 0.84773,0.6766 0.19584,-0.55009 -0.31468,-0.73885 -2.40886,-1.08895 -0.43504,0.26289 -0.53922,-0.44368 -3.24386,-1.52778 -1.114177,-0.0212 -0.978627,0.67997 -0.60308,0.75211 0.99672,1.08138 1.991724,0.73478 0.77317,1.00049 0.94457,0.71875 1.0593,1.46196 1.95926,1.50769 m -41.83543,-0.45048 v 0 l -0.0107,-0.25081 m 41.32409,-0.2857 v 0 l 0.25084,-0.0107 m -18.623297,-0.32687 v 0 l 3.670041,-1.51567 0.719427,-0.1008 1.734454,-1.9759 0.63588,-1.46034 1.058213,-1.07909 0.77472,-1.37089 2.021987,-5.25379 -8e-5,-3.43278 -1.489173,-4.9115 -0.87024,-1.69747 -1.267774,-2.11357 -1.088427,-1.11063 -1.450627,-2.2754 -1.086893,-1.10799 -0.655187,-1.05628 -1.244054,-0.8208 -3.269107,-1.15759 -2.559654,0.0508 -2.921147,1.13956 -0.426334,-0.28804 -0.881546,-0.005 -4.192681,2.04817 -1.613934,1.62346 -1.024517,1.847 -1.08986,1.1132 -1.236,2.43644 -1.10873,3.75789 0.28576,0.42698 -1.5e-4,0.446 -0.29384,0.40034 -0.0567,2.12292 1.52601,7.03521 0.57108,1.41162 1.15972,1.57455 1.308814,1.30883 1.56032,1.06344 0.42404,-0.25256 0.220827,0.33516 2.867187,1.40516 4.920374,1.50186 1.305747,-0.007 0.400361,-0.29383 0.845826,0.28988 0.857321,-0.27144 0.410506,0.27132 m -21.546653,-0.022 v 0 l -0.0107,-0.25085 m 19.487936,-0.99215 v 0 l -5.366614,-1.304 1.52972,-0.68527 2.533281,0.72039 1.61748,-0.68608 0.9044,0.74171 1.297987,-0.0551 0.40044,-0.29369 0.445,0.004 0.157174,0.35106 m -20.881044,1.18124 v 0 l -0.0107,-0.25081 m 0.97066,0.11867 v 0 l -0.25083,0.0107 m 20.859697,-0.72497 v 0 l -0.01067,-0.25085 m 15.235923,-0.17208 v 0 l -0.0107,-0.25082 m -25.786112,0.25082 v 0 l -0.01067,-0.25082 m 25.385682,-0.17208 v 0 l -0.0107,-0.25081 m -24.940309,0.25081 v 0 l -0.01067,-0.25081 m -0.41168,-0.17208 v 0 l -0.01067,-0.25085 m -0.834587,0.25085 v 0 l -0.01067,-0.25085 m 26.654416,-0.17208 v 0 l -0.0107,-0.25082 m -15.61252,0.27772 v 0 l -2.14608,0.0553 -1.270201,-0.40348 -1.295213,0.35286 -3.358094,-0.77621 -0.856361,0.33513 -2.408973,-1.08793 -1.677214,-1.25383 -1.65392,-1.82482 -1.358454,-2.43194 -0.93727,-2.19535 -0.61259,-0.65564 -0.3601,0.0205 1.513667,-8.04082 0.828146,-1.98409 2.157654,-2.58272 2.816414,-1.91879 0.344387,0.22434 1.359893,-1.48332 0.846041,0.32494 0.97056,-0.27266 2.27128,1.42424 0.976574,1.33162 0.57824,-0.13253 0.004,-0.86844 -0.275933,-0.41435 0.573186,-0.14816 5.358335,2.79395 3.712054,3.50232 0.561587,1.5522 0.650533,2.42587 0.0496,3.82942 -1.54544,5.79774 -1.443041,2.51224 -1.562573,0.92184 m -15.521923,1.04353 v 0 l -0.01067,-0.25081 m -0.403547,-0.16056 v 0 l -0.642226,-0.132 -2.669041,-2.25065 -1.088337,-1.95788 -0.0512,-0.86699 0.20534,-0.57544 0.82725,0.78149 0.686507,1.34018 0.688854,0.65564 -0.21504,0.3348 0.368693,0.68993 1.87144,1.64543 M 56.35265,436.9683 v 0 l 1.11974,-0.65678 4.09723,-0.1016 0.68722,-0.93295 -0.94325,-0.63997 -0.8592,0.34074 -0.93187,-0.11426 0.94474,-0.71431 -0.009,-0.771 -0.41357,0.2753 -1.57417,0.1104 -0.5515,0.47022 -0.847,-0.50656 -0.27718,0.0349 -0.64665,0.67603 -0.13389,-0.27479 -2.72103,-0.81543 -0.88364,0.0107 -0.13093,1.00078 0.57995,-0.14912 1.41646,0.75581 -0.16105,0.35503 -0.41301,-0.27491 -0.8678,5.3e-4 -0.53784,0.57039 0.25746,0.33159 1.12506,0.65169 0.43526,-0.26315 0.84539,0.67611 0.42315,-0.25317 0.41066,0.2714 m 14.40031,-0.44491 v 0 l -0.0107,-0.25085 m -11.96223,-0.70854 v 0 l 0.25081,-0.0107 m -3.502,-0.2981 v 0 l -0.0107,-0.25082 m 3.82537,-0.16076 v 0 l -0.56902,-0.1328 0.5621,-0.14067 m -3.38431,-0.16072 v 0 l -0.0107,-0.25081 m 15.10384,-0.28574 v 0 l 0.25083,-0.0107 m -9.42272,-0.12081 v 0 l -0.0107,0.25086 m 34.689635,-0.85095 v 0 l -0.01067,-0.25085 m 9.854135,-5.71026 v 0 l 1.97731,-1.06465 0.43512,0.26299 0.8454,-0.67611 0.43762,0.26583 3.77718,-1.5472 0.45185,0.27852 4.75387,-2.18059 2.71336,-0.99487 2.9472,-1.43917 0.65564,-0.68864 0.34657,0.22505 2.80394,-1.22806 0.65537,-0.68855 0.6126,0.24283 0.76892,-0.58634 0.23407,0.14563 0.9868,-0.7151 -0.004,-0.26338 -0.26084,-0.0899 -1.5658,0.64864 -0.84898,-0.71073 -1.72566,-0.004 -1.66847,1.12565 -0.43757,-0.26578 -7.05978,2.78377 -1.52008,1.07344 -3.86733,1.77784 -2.15639,1.27632 -4.58967,1.68799 -0.86798,0.82361 0.0548,0.45548 0.56618,0.18596 m 5.50798,-2.19015 v 0 l -0.0107,-0.25081 m 7.6236,-2.70952 v 0 l -0.0107,-0.25081 m 0.85705,-0.17212 v 0 l -0.0107,-0.25082 m 1.27997,-0.17206 v 0 l -0.0107,-0.25082 m -1.68038,0.25082 v 0 l -0.0107,-0.25082 m -0.83456,0.25082 v 0 l -0.0107,-0.25082 m 1.70288,-0.17208 v 0 l -0.0107,-0.25081 m 1.70286,-0.17212 v 0 l -0.0107,-0.25081 m 1.27998,-0.59498 v 0 l -0.0107,-0.25085 m -38.605396,0.13724 v 0 l 0.250814,-0.0107 m 41.326172,-0.72098 v 0 l -0.0107,-0.25082 m -50.737667,0.25082 v 0 l -0.01067,-0.25082 m -4.090733,0.14714 v 0 l -0.13404,-0.64408 -0.55897,-0.55444 -4.80751,-2.71633 -0.96785,-0.901 -0.77099,0.23434 -0.72075,-0.51254 -0.1244,0.088 -0.59669,-0.60062 -0.33785,0.21505 -0.22011,-0.33456 -1.8774,-0.77721 -0.86343,0.69058 -0.14212,-0.56017 0.22656,-0.29904 -3.35049,-1.48945 -2.94174,-1.67408 -0.67298,-0.65031 -2.0314,-0.83659 -3.97952,-1.14461 -2.74151,-1.64461 -0.43529,0.26318 -4.22777,-3.21305 -0.33733,0.21573 -0.59528,-0.60245 -0.46321,0.5118 1.52122,1.27271 -0.98338,0.14542 -2.22008,-1.73421 -2.28417,-1.03907 -0.55954,-0.46208 -0.83423,0.69418 -0.63802,-0.14371 -0.63129,-0.57227 -0.98393,0.14624 0.67653,0.84774 -0.27143,0.41153 0.14249,0.56161 0.43734,-0.2635 7.46734,3.60977 2.96036,1.69165 2.80352,1.93442 4.80882,2.7176 3.36742,2.26705 0.72195,0.77161 0.54607,0.086 0.72237,0.74646 0.69601,-0.28166 0.83403,0.69414 0.85769,-0.27124 0.53037,0.436 3.14765,1.02876 3.90892,1.77459 0.46089,-0.0107 0.13559,-0.99829 -2.39009,-2.52866 0.5759,-0.15112 1.98116,0.68973 0.53011,0.43608 0.42345,-0.25321 0.95307,0.85889 1.99176,0.73482 1.68352,1.22095 m 57.12514,-0.45072 v 0 l -0.0107,-0.25082 m -43.976405,0.26876 v 0 l -0.0053,-0.3392 0.42488,-0.35106 0.550014,0.55168 m 4.534134,-0.72515 v 0 l -0.01067,-0.25081 m -5.901534,0.26213 v 0 l -0.569014,-0.1328 0.56212,-0.14063 m -19.869745,0.27348 v 0 l -0.569,-0.1328 0.56209,-0.14062 m 25.373403,-0.16078 v 0 l -0.01067,-0.25081 m -0.8346,0.25158 v 0 l -0.430253,-0.34541 -0.012,-0.34057 0.57484,0.1272 m -6.052828,0.55794 v 0 l -0.01067,-0.25081 m -3.79492,0.25081 v 0 l -0.01067,-0.25081 m 6.468441,0.1188 v 0 l -0.250813,0.0107 m -0.285694,-0.30214 v 0 l -0.01067,-0.25081 M 61.74844,416.7123 v 0 l -0.0107,-0.25081 m 22.848233,-0.59501 v 0 l -0.01067,-0.25082 m -24.085913,0.26218 v 0 l -5.96255,-1.56812 -1.66653,-1.2295 -0.33253,0.21399 -1.05356,-1.25081 -1.56124,-0.72851 -1.83224,-1.49496 0.57452,-0.14941 3.05026,1.34709 4.50318,1.47549 4.13143,2.91976 0.25905,0.33522 m 3.68779,-1.15031 v 0 l -0.0107,-0.25081 m -2.5262,0.25081 v 0 l -0.0107,-0.25081 m -10.56145,-1.4408 v 0 l -0.0107,-0.25086 m 45.021955,-1.55526 v 0 l 0.890734,-0.66422 0.715307,-1.11784 0.209093,0.16374 2.989481,-4.8497 0.70691,-2.00105 -0.0569,-1.7002 -0.5751,-0.56584 -0.82892,0.79859 -1.795105,3.45158 -1.909507,2.77644 -0.73584,1.99308 -0.373307,0.42726 4e-5,0.86792 0.573147,0.53966 M 49.06386,408.67702 v 0 l -0.0107,-0.25081 m -0.83457,0.25081 v 0 l -0.0107,-0.25081 m -2.52621,0.25081 v 0 l -0.0107,-0.25081 m -0.83457,-0.17203 v 0 l -0.0107,-0.25082 m 4.66322,-0.17211 v 0 l -0.0107,-0.25083 m -5.90947,-0.1721 v 0 l -0.0107,-0.25082 m 29.319044,-0.69865 v 0 l -0.13408,-0.64404 -1.604614,-1.62345 -1.25103,-2.09604 -3.59668,-7.58106 -0.31988,0.21045 -0.13631,-0.11586 0.26619,-0.8567 -0.9724,-0.97217 -0.51273,0.46379 0.52173,0.71102 0.13572,1.07796 -0.71604,0.82324 -0.004,0.87956 3.44827,5.61117 1.44536,3.10994 0.33501,0.26311 0.41068,-0.271 0.44605,4.1e-4 1.246087,1.13891 m -26.622897,-0.0256 v 0 l -0.0107,-0.25081 m -5.06813,-2.27955 v 0 l -0.94123,-0.63281 0.94814,-0.0647 0.12883,0.58048 m 29.89517,-0.31299 v 0 l -0.0107,-0.25081 m -31.2839,-0.59497 v 0 l -0.0112,-0.25082 m -6.75528,-0.59505 v 0 l -0.0112,-0.25081 m 53.93904,-0.1308 v 0 l 0.757026,-1.41838 -0.34404,-0.86165 0.03653,-1.54086 0.795493,-0.97648 9.2e-4,-6.78369 -0.331573,-0.84725 0.324933,-0.84587 -0.324947,-0.84579 0.331587,-0.84733 v -7.18644 l -0.349453,-0.86523 0.824053,-6.56625 0.27072,-0.51139 -1.294787,-0.63053 -0.651813,0.9366 0.277427,0.87117 -0.116534,0.13721 -0.854933,-0.26505 -0.2934,0.21045 -0.69848,7.50935 0.293693,0.42977 0.062,0.85686 -0.06213,1.27986 -0.2938,0.40039 0.271493,0.85735 -0.270853,0.44075 0.71144,5.88493 -0.27088,0.44076 0.27168,0.41137 -1.47e-4,0.44596 -0.29384,0.4004 -0.05667,1.69987 0.827307,3.81021 -0.343747,0.83302 0.27144,0.85734 -0.275586,0.41186 -0.0556,0.8553 0.20356,0.62778 m -48.864929,0.22787 v 0 l 0.38607,-0.43271 1e-5,-0.26521 -2.49171,-2.27117 h -0.39983 l -0.31313,0.33766 0.52173,0.71101 -0.009,0.42147 0.53188,0.5328 1.66477,0.64908 -0.20762,0.31128 m -1.13417,-1.14835 v 0 l -0.0112,-0.25081 m 51.183076,-4.82415 v 0 l -0.01067,-0.25081 m 0.54772,-0.72706 v 0 l -0.250813,0.0107 m -1.554401,-10.87484 v 0 l -0.01067,-0.25082 m 0.01067,-2.70946 v 0 l -0.01067,-0.25091 m 1.28,-2.28653 v 0 l -0.01067,-0.2509"
       style="fill:#000000;fill-opacity:1;fill-rule:nonzero;stroke:none;stroke-width:1.33333" />
  </g>
</svg>
