<?xml version="1.0" encoding="UTF-8" standalone="no"?>
<!-- Created with Inkscape (http://www.inkscape.org/) -->

<svg
   version="1.1"
   id="svg1"
   width="46.827789"
   height="97.483688"
   viewBox="0 0 46.827789 97.483688"
   sodipodi:docname="1.svg"
   inkscape:version="1.4.3 (0d15f75, 2025-12-25)"
   inkscape:export-filename="..\Documents\zazemli-brand\doodles\1.svg"
   inkscape:export-xdpi="96"
   inkscape:export-ydpi="96"
   xmlns:inkscape="http://www.inkscape.org/namespaces/inkscape"
   xmlns:sodipodi="http://sodipodi.sourceforge.net/DTD/sodipodi-0.dtd"
   xmlns="http://www.w3.org/2000/svg"
   xmlns:svg="http://www.w3.org/2000/svg">
  <defs
     id="defs1" />
  <sodipodi:namedview
     id="namedview1"
     pagecolor="#ffffff"
     bordercolor="#000000"
     borderopacity="0.25"
     inkscape:showpageshadow="2"
     inkscape:pageopacity="0.0"
     inkscape:pagecheckerboard="0"
     inkscape:deskcolor="#d1d1d1"
     inkscape:zoom="1.1844758"
     inkscape:cx="-143.10128"
     inkscape:cy="111.4417"
     inkscape:window-width="1278"
     inkscape:window-height="668"
     inkscape:window-x="1273"
     inkscape:window-y="700"
     inkscape:window-maximized="0"
     inkscape:current-layer="g1">
    <inkscape:page
       x="1.6175956e-07"
       y="6.6435467e-07"
       inkscape:label="1"
       id="page1"
       width="46.827789"
       height="97.483688"
       margin="0"
       bleed="0" />
  </sodipodi:namedview>
  <g
     id="g1"
     inkscape:groupmode="layer"
     inkscape:label="1"
     transform="translate(-106.9957,-182.69443)">
    <path
       id="path1"
       d="m 140.76392,279.69232 v 0 l 0.36998,-0.41894 0.007,-1.30794 -0.68016,-2.39161 -0.89893,-0.69841 0.30337,-0.67903 0.006,-1.30542 -0.71913,-2.07324 0.28321,-0.4554 -1.19382,-5.48382 0.0627,-2.54484 0.47907,0.0999 0.59627,-0.60221 0.33937,0.21622 0.14133,-0.56102 -0.56716,-0.53794 -0.41164,0.27166 -0.73336,-0.24015 -0.68977,-3.271 0.26956,-0.44003 -0.25326,-0.42293 0.25318,-0.42294 -0.27485,-0.41105 -0.0146,-0.72876 0.47516,-0.55688 -0.43555,-0.48511 0.76812,-5.19881 1.98217,-3.90429 0.66693,-0.69035 1.02453,-1.84694 1.07342,-1.09586 1.46564,-2.71306 1.08673,-1.1079 0.75768,-1.40495 1.78143,-1.55811 1.02451,-1.847 1.93768,-2.38493 0.43062,-0.82683 1.9268,-5.77751 -0.006,-0.88232 -0.27548,-0.41194 0.2532,-0.42302 -0.27064,-0.44058 0.71826,-5.05478 -0.72115,-2.53434 0.72053,-1.2509 -0.2773,-0.86905 0.25317,-0.42293 -0.25323,-0.42294 0.26584,-0.43742 -0.66811,-1.56079 -0.7437,-0.69352 -0.98317,0.91878 -1.01978,0.61523 -0.94631,6.79518 -1.3937,6.94734 -0.63701,0.65642 -0.6502,1.12474 0.22435,0.34448 -0.85322,0.65683 -1.00686,1.82894 -2.74898,1.92562 -2.24541,2.24552 0.0879,0.53247 -0.85217,0.6552 -1.66623,2.51155 -0.63693,1.4615 -0.60856,0.7177 -1.11492,-2.70207 0.22857,-0.35132 -0.60231,-0.59595 0.23437,-0.32584 -0.27125,-0.85645 0.27133,-0.41048 0.01,-0.46183 -0.76599,-3.01701 -0.37017,-0.75121 0.27669,-0.45012 -1.52769,-4.95769 -0.43132,-0.52409 0.32499,-0.84611 -0.34713,-0.83488 5.1e-4,-0.86677 2.23921,-1.41163 0.71422,-0.10093 3.02596,-3.26303 1.71099,-3.3767 1.53767,-5.37191 -0.3253,-0.84466 0.33156,-0.84724 v -2.5345 l -0.33159,-0.84734 0.28032,-0.70125 -0.66579,-0.65584 0.23383,-0.32389 3.5e-4,-0.44507 -0.27164,-0.41139 0.25362,-0.42529 -0.56062,-0.14176 -0.83952,0.8562 -0.38777,-0.48723 -1.03107,-2.31396 -0.10091,-0.72729 -0.59059,-0.77816 0.0882,-0.1244 -0.60067,-0.59668 0.22586,-0.34904 -1.49435,-2.81396 -2.35407,-2.79998 -1.57412,-4.28516 -1.50488,0.0304 -1.55051,0.68343 -0.43395,0.43481 -1.90259,5.68336 -0.31722,0.24455 -0.31558,-0.24147 -1.10149,-1.986 -0.11232,-0.71728 -2.48111,-1.17017 -0.93231,-0.75064 -0.87196,-0.87353 -0.77302,-1.84238 -1.00151,-0.72925 -0.64945,0.14941 -0.64237,0.55063 -1.69135,-1.1154 -1.01235,0.72217 0.002,0.53816 1.77471,1.1399 0.85652,1.67618 1.06625,3.25863 -0.67507,3.68571 -1.57556,0.67985 -0.56301,-0.56078 0.20988,-0.31779 -1.32777,-0.68156 -0.87077,0.2788 -0.42465,-0.25276 -0.12453,0.12453 0.35906,0.65699 4.0803,1.98852 -0.20985,0.31755 0.27069,0.41032 -0.005,0.44498 -0.34066,-0.0107 -0.64458,-0.54923 -0.43742,0.26563 -4.4957,-1.4913 -0.69145,-0.76221 0.69388,-0.83365 -0.0734,-0.52939 -1.33912,-0.0537 -7e-4,0.77117 -0.42169,0.34872 -0.33254,-0.21404 -1.08571,1.34562 2e-5,0.86792 1.22673,1.06755 1.33932,2.82739 0.74891,2.43205 0.93868,1.71916 1.39116,3.59123 1.80839,5.58496 0.8364,1.68123 0.63392,0.65544 0.77292,1.84245 1.98699,1.74145 3.67522,1.51391 0.45449,-0.28213 3.34899,0.70873 0.42898,-0.29199 1.12843,-0.0168 1.68116,2.9275 0.73925,1.44286 0.10493,2.01067 0.47099,0.55232 -0.46568,0.86166 0.72185,2.08212 -0.28254,0.455 0.7187,2.49478 -0.29895,0.8606 0.28998,1.29175 -0.27159,0.41137 0.27159,0.41138 -1.5e-4,0.44589 -0.28983,0.39989 v 0.44596 l 0.29383,0.4004 0.0625,1.27971 -0.0623,1.27977 -0.27564,0.41187 0.25311,0.42293 -0.27163,0.41139 v 0.44596 l 0.28117,0.42309 -0.64944,0.92229 -0.88641,-0.84302 -1.00641,-0.60564 -0.36244,-0.56444 -3.01849,-1.97063 -1.51858,-1.49633 -2.53927,-1.29517 -3.57282,-1.45532 -2.53733,-1.26856 -1.99583,-1.3003 -1.4119,-1.2613 -2.09979,-2.94507 -1.22685,-2.0354 -1.6277,-3.95395 -0.77937,0.17261 -0.004,1.2907 0.23794,0.32437 -0.66877,0.94564 1.42006,1.91651 2.22628,5.56771 0.98325,1.65266 1.8587,1.57268 0.70275,0.1056 1.33291,1.56886 1.25371,1.67682 0.77305,1.8427 0.94317,0.71957 1.44107,2.2653 1.0884,1.11068 1.02452,1.847 1.51367,1.5345 1.44594,1.85043 1.31114,1.30981 3.52017,2.44816 2.26933,2.51676 -0.19823,1.0468 0.19731,0.6259 0.42293,0.34594 0.33729,-0.21573 0.59628,0.60229 0.33938,-0.21622 0.1365,0.116 -0.22764,0.76539 0.82553,0.62418 0.90063,5.82259 0.589,2.52653 0.85976,1.69011 -0.27142,0.4108 -0.008,0.46037 1.15296,2.91048 0.10146,1.14942 0.67875,0.65584 -0.21476,0.33643 0.6882,-0.0133 -0.30565,1.55811 0.59832,0.7666 -0.16386,0.48999 0.87441,0.6512 m -2.27741,-13.19938 v 0 l -0.13284,0.56901 -0.14061,-0.56218 m -0.27437,-1.13558 v 0 l -0.0112,-0.25081 m -1.38955,-0.28564 v 0 l 0.25081,-0.0107 m 0.30415,-5.79581 v 0 l -0.0112,-0.25082 m 0.0134,-1.0183 v 0 l -0.22184,-0.96859 0.21051,-0.9734 0.21056,0.97372 m -1.47006,-1.14592 v 0 l -0.0112,-0.25081 m -2.09654,-0.48519 v 0 l -1.42363,-2.53613 -2.30759,-2.4795 -3.56516,-4.81282 -1.33381,-1.56803 -0.53373,-0.0864 -1.23259,-1.66683 -1.448,-0.82048 -0.25549,-0.48633 -2.0259,-1.57975 0.14325,-0.41121 1.7135,-0.004 0.54538,0.48209 2.36048,1.20141 2.62021,0.74887 0.79515,0.45629 1.6119,1.62013 2.28716,3.11124 0.85217,0.6552 -0.21406,0.33268 1.5214,2.1132 -0.26569,0.43749 1.14033,3.34327 0.0492,2.56152 -0.20169,0.55094 m 0.85208,-2.96402 v 0 l -0.0112,-0.25082 m -4.21784,0.25082 v 0 l -0.0112,-0.25082 m 6.7593,0.005 v 0 l 0.0112,0.25089 m -7.1822,-0.42805 v 0 l -0.0112,-0.2509 m 5.91347,0.005 v 0 l 0.0112,0.25081 m -6.33638,-0.42805 v 0 l -0.0112,-0.25082 m 6.35692,-0.17244 v 0 l -0.15167,-0.55404 0.14055,-0.1192 0.14032,0.56356 m -6.88967,0.12147 v 0 l -0.64223,-0.13213 -0.77487,-0.75716 -1.00667,-0.60483 -1.30879,-1.30876 -0.71561,-1.12597 -1.80685,-1.81966 -0.72853,-1.5612 -1.40091,-1.41398 -0.65059,-1.12858 0.12686,-0.14828 0.63614,0.13827 1.72065,1.97355 2.21402,1.9646 1.45064,2.2754 1.5097,1.53076 1.35928,1.78238 m 5.93034,-0.0989 v 0 l -0.0112,-0.25081 m -8.86983,-0.59498 v 0 l -0.0112,-0.25081 m 9.73939,-0.17212 v 0 l -0.30982,-0.22241 -1.126,-6.64055 0.002,-0.89754 0.5272,-1.104 0.61487,1.53613 -0.34014,0.8606 0.77712,5.89526 m -2.70201,-0.096 v 0 l 0.0112,0.25082 m 4.3499,11.28125 v 0 l -0.25083,0.0107 m -0.70859,-13.41227 v 0 l -0.0112,-0.25081 m -4.21784,-1.8637 v 0 l -0.0112,-0.25081 m -0.12082,-1.13151 v 0 l 0.25083,-0.0107 m 6.51569,32.99806 v 0 l 0.25081,-0.0107 m -1.81038,-33.70777 v 0 l -0.0112,-0.25081 m -0.55074,-0.23291 v 0 l -0.44156,-0.47437 -0.006,-1.30403 1.10701,-2.81739 0.31953,-0.24454 0.20107,0.55094 -0.0497,0.8689 m 1.95072,3.23568 v 0 l 0.0112,0.25081 m -2.10734,-0.42806 v 0 l -0.0112,-0.25082 m 2.41662,-0.28564 v 0 l 0.25083,-0.0107 m -20.84123,-0.29802 v 0 l -0.0112,-0.25082 m 21.01018,-0.29133 v 0 l 0.27771,-0.0164 -0.14032,0.56348 m -2.10537,-0.42904 v 0 l -0.16239,-0.56804 2.35725,-5.34081 3.29341,-3.7387 -0.12617,-0.62524 0.39436,-0.24048 1.51458,-2.16454 1.08669,-1.10791 0.65055,-1.12549 -0.26322,-0.43531 2.74249,-4.31999 0.12622,0.93539 -0.34969,1.2819 0.27112,0.41235 -0.3582,0.23072 -1.53358,3.88216 -1.70707,3.36475 -1.27014,1.69425 -2.77844,2.79956 -1.45063,2.27539 m -21.7774,2.65919 v 0 l -0.25083,0.0107 m 22.55133,-1.14786 v 0 l -0.0112,-0.25082 m -3.39048,0.42806 v 0 l 0.0112,0.25081 m 3.81339,-0.85099 v 0 l -0.0112,-0.25081 m 0.43622,-0.17245 v 0 l -0.15166,-0.55395 0.14056,-0.1192 0.14029,0.56364 m -7.45276,-0.004 v 0 l 0.25082,-0.0107 m -11.24641,0.0107 v 0 l 0.25083,-0.0107 m 0.30414,-0.29809 v 0 l -0.0112,-0.25081 m -1.24894,0.26212 v 0 l -0.57242,-0.0597 -0.80484,-0.57714 0.94759,-0.0687 0.54006,0.57495 m 19.33481,-0.30371 v 0 l -0.0112,-0.25081 m -3.8134,7.19457 v 0 l 0.0112,0.25082 m -3.39452,-7.01734 v 0 l 0.0112,0.25081 m -11.41128,-0.42805 v 0 l -0.0112,-0.25081 m -5.90135,0.26237 v 0 l -0.64154,-0.132 -0.34871,-0.42749 0.5616,-0.14226 0.53944,0.57096 m 19.75986,-0.30402 v 0 l -0.20846,-0.54224 0.19711,-0.55396 0.1977,0.55062 m 4.46351,0.12307 v 0 l -0.0112,-0.25081 m -3.79492,0.25081 v 0 l -0.0112,-0.25081 m -17.34642,0.34741 v 0 l 0.0213,0.34367 -0.44664,0.004 -0.53829,-0.5695 0.56138,-0.14217 m 22.41193,-0.15576 v 0 l -0.0112,-0.25081 m -8.33329,0.54166 v 0 l -0.25084,0.0107 m -0.72705,-0.1248 v 0 l 0.0112,0.25081 m -15.10384,-0.13721 v 0 l -0.25083,0.0107 m 19.59114,-0.72623 v 0 l -0.15482,-0.55388 0.57051,-0.54061 0.14229,0.56161 m -19.47539,0.82495 v 0 l -0.25083,0.0107 m -0.27832,-0.28189 v 0 l -0.8649,0.40689 -0.137,-0.1164 0.12786,-0.5782 0.86728,0.003 m -1.98527,0.54655 v 0 l -0.13552,0.56998 -0.97647,-0.97616 0.5616,-0.14225 m 23.25753,-0.1556 v 0 l -0.0112,-0.25081 m -22.28926,0.54166 v 0 l -0.25083,0.0107 m -1.68647,-0.41569 v 0 l 0.25083,-0.0107 m -0.96458,0.1248 v 0 l -0.0112,-0.25081 m 0.43415,-0.17212 v 0 l -0.0112,-0.25082 m 24.11697,-0.17212 v 0 l -0.0112,-0.25081 m -5.06365,0.25081 v 0 l -0.0112,-0.25081 m -17.6229,0.54737 v 0 l -0.2777,0.0164 0.1403,-0.56354 m 24.11515,-0.1723 v 0 l -0.0112,-0.25081 m -0.8325,0.25049 v 0 l -0.15167,-0.55404 0.14056,-0.1192 0.14029,0.56356 m -24.23699,0.10987 v 0 l -0.0112,-0.25081 m 24.79925,-0.5791 v 0 l -0.40646,-0.14558 0.65181,-1.13079 1.17988,-1.104 0.14229,0.5616 m -30.16169,0.53411 v 0 l -0.0112,-0.25082 m 34.68965,-0.17204 v 0 l -0.0112,-0.25081 m -4.21783,-0.59505 v 0 l -0.0112,-0.25082 m 5.93193,-0.17204 v 0 l -0.0112,-0.25081 m -5.48657,0.25081 v 0 l -0.0112,-0.25081 m -9.71564,0.25081 v 0 l -0.0112,-0.25081 m 0.71369,-0.27775 v 0 l 0.13283,-0.56901 0.14065,0.56209 m 15.94037,-0.73332 v 0 l -0.0112,-0.25081 m -5.48657,0.25081 v 0 l -0.0112,-0.25081 m 6.35483,-0.59497 v 0 l -0.0112,-0.25082 m -41.43371,-1.0179 v 0 l -0.0112,-0.25082 m -2.10329,-2.28661 v 0 l -0.0112,-0.25082 m 44.41858,-0.59537 v 0 l -0.15165,-0.55396 0.14055,-0.1192 0.14032,0.56356 m -4.36035,0.11 v 0 l -0.0112,-0.25081 m 5.08613,-1.01799 v 0 l -0.0112,-0.25081 m -0.83249,0.25049 v 0 l -0.2148,-0.54379 0.20349,-0.97526 0.20419,0.55241 m -1.4637,-1.14755 v 0 l -0.0112,-0.25081 m -28.45562,-1.55436 v 0 l 0.25083,-0.0107 m 27.79521,-0.29842 v 0 l -0.15168,-0.55395 0.14054,-0.1192 0.14032,0.56356 m -17.89337,-0.31299 v 0 l -0.0112,-0.25081 m -8.48697,0.28271 v 0 l 0.58258,0.26701 -0.11904,0.1438 -0.88037,0.012 -2.18146,-1.07731 0.9622,-0.0776 m 8.45453,0.29736 v 0 l -1.30108,0.005 -0.82295,-0.71607 h -0.44612 l -0.82321,0.71597 -0.87964,0.004 -2.80458,-1.51196 -2.09252,-1.42122 -1.93755,-2.58667 -1.48243,-1.50113 -1.52096,-4.94622 -1.22569,-2.01083 -1.51099,-1.5332 -1.8688,-3.95898 -0.48385,-0.54842 0.006,-0.86621 0.2669,-0.0648 4.32383,2.43596 2.729,1.22323 2.45922,3.31429 1.4661,3.13508 0.81698,1.07544 1.49697,-0.64404 0.2607,-0.30567 -0.14326,-0.63672 -0.55052,-0.64216 0.2626,-0.43473 -1.09993,-3.27019 -0.4319,-0.52645 0.56037,-0.142 0.20682,0.15633 0.7679,1.66495 -0.27569,0.44939 1.29029,2.20882 1.06499,3.15763 1.16659,1.0922 0.1524,-0.99764 -0.77621,-2.09089 0.19773,-0.62558 0.56835,-0.62956 0.009,-0.46125 -0.68982,-1.98112 -0.45388,-0.51783 -0.0107,-0.46224 1.12081,-6.64013 0.44771,-0.51091 -0.29719,-1.3055 1.4979,-3.16602 0.69442,1.1954 1.41817,3.99568 0.86074,1.67278 1.07313,1.09545 1.56828,3.00741 0.65233,-0.28988 0.73971,0.66578 0.73394,2.00105 -1.16826,5.81487 -1.48473,1.50545 -2.86963,5.20915 m 18.43691,0.70076 v 0 l -0.0112,-0.25081 m -29.46167,0.122 v 0 l -0.57162,0.15185 -1.48968,-1.22249 -0.76824,-1.43587 0.0129,-0.45899 0.34035,0.012 1.75845,1.51123 0.7294,1.00496 m -1.72022,0.43465 v 0 l -0.25082,0.0107 m 13.24736,39.87411 v 0 l -0.0112,-0.25081 m 2.54867,-40.34831 v 0 l -0.0112,-0.25082 m 16.39826,-0.66504 v 0 l -0.10752,-3.43449 0.21292,-0.56013 0.71768,0.58154 -0.31107,0.60051 0.16324,1.09367 m -1.54677,1.67537 v 0 l 0.25082,-0.0107 m -14.92052,0.1248 v 0 l -0.0112,-0.25081 m -0.29807,0.54167 v 0 l -0.25083,0.0107 m 1.40607,-1.14916 v 0 l -0.16235,-0.56804 2.14236,-5.07478 1.49262,-4.71387 0.1063,1.35262 -0.35009,1.28174 0.2841,0.42569 -1.1094,3.3445 -1.65659,3.27408 m -2.43662,0.25602 v 0 l -0.15168,-0.55396 0.14055,-0.11906 0.14032,0.56356 m -14.51012,0.10986 v 0 l -0.0112,-0.25081 m 17.77334,-0.17212 v 0 l -0.0112,-0.25081 m -20.15677,0.124 v 0 l -0.47288,-0.13 -1.51262,-2.80363 0.0746,-0.95972 1.9184,3.0402 m 17.62307,0.13412 v 0 l -0.0112,-0.25081 m 16.08171,-1.44084 v 0 l -0.0112,-0.25082 m -14.79053,0.25082 v 0 l -0.0112,-0.25082 m -0.85304,0.42806 v 0 l 0.0112,0.25081 m 16.07771,-1.69677 v 0 l -0.0112,-0.25082 m -36.2452,-0.72705 v 0 l -0.25082,0.0107 m 20.55036,5.90942 v 0 l -0.25081,0.0107 m -20.2944,-8.45094 v 0 l 0.25083,-0.0107 m 11.29974,-0.72095 v 0 l -0.0112,-0.25081 m -11.83017,0.25081 v 0 l -0.0112,-0.25081 m 23.69407,-0.17212 v 0 l -0.0112,-0.25082 m -12.67599,0.25082 v 0 l -0.0112,-0.25082 m -14.92438,26.35792 v 0 l 0.25082,-0.0107 m 1.4408,-27.05486 v 0 l 0.25083,-0.0107 m 13.83719,-0.29809 v 0 l -0.0112,-0.25081 m -1.25538,-1.8641 v 0 l -0.22184,-0.96858 0.21051,-0.97331 0.21058,0.97363 m -1.89299,0.12293 v 0 l -0.0112,-0.25089 m -1.25673,0.25106 v 0 l -1.52139,-2.08805 -1.31854,-1.40439 0.63366,-0.54484 1.68237,1.93083 0.66702,1.11475 m 16.77455,0.14526 v 0 l -0.20847,-0.54216 0.1971,-0.55394 0.19773,0.55053 m -15.13361,0.44035 v 0 l 0.13284,-0.56902 0.14062,0.5621 m 8.75096,33.52223 v 0 l -0.0112,-0.25083 m 1.27995,-20.04875 v 0 l -0.0112,-0.25081 m 0.85704,-13.28214 v 0 l -0.0112,-0.2509 m -1.38954,0.13729 v 0 l 0.25081,-0.0107 m 0.30415,60.60068 v 0 l -0.0112,-0.25081 m 3.81741,-60.64788 v 0 l -0.0112,-0.25081 m -1.2575,0.25081 v 0 l -0.0112,-0.25081 m 2.54868,-0.17212 v 0 l -0.0112,-0.25082 m -3.79493,0.25082 v 0 l -0.0112,-0.25082 m -0.83459,0.25082 v 0 l -0.0112,-0.25082 m -12.25308,0.25082 v 0 l -0.0112,-0.25082 m -4.21784,0.25082 v 0 l -0.0112,-0.25082 m 15.65882,40.42701 v 0 l -0.0112,-0.25081 m 2.54869,-40.34832 v 0 l -0.0112,-0.25081 m -10.98436,0.25081 v 0 l -0.0112,-0.25081 m -0.83458,0.25081 v 0 l -0.0112,-0.25081 m -1.68364,0.25016 v 0 l -1.11973,-0.78768 -2.41812,-2.70663 0.004,-1.28988 0.33325,-0.2028 0.98828,-2.83276 0.84757,1.06421 2.35502,4.07211 -0.68867,2.45394 m 12.89517,-0.2286 v 0 l -0.66088,-1.27938 -0.78856,-0.59057 0.21399,-0.33244 -0.33099,-0.84644 0.12808,-1.35888 1.49878,3.02921 m -9.75716,8.04883 v 0 l -0.25083,0.0107 m -7.47511,-7.49154 v 0 l -0.0112,-0.25081 m -1.68039,0.25081 v 0 l -0.0112,-0.25081 m 0.86696,-0.58155 v 0 l -0.58703,-0.1232 0.14283,-0.98592 0.56953,0.53826 m -8.17047,0.55745 v 0 l -0.0112,-0.25081 m 24.11696,-0.17212 v 0 l -0.0112,-0.25082 m -15.09984,0.54167 v 0 l -0.25082,0.0107 m 13.24944,-1.14819 v 0 l -0.15167,-0.55404 0.14054,-0.1192 0.14032,0.56355 m -6.05198,-0.31299 v 0 l -0.0112,-0.25081 m -2.10329,7.01733 v 0 l -0.0112,-0.25081 m 0.43414,-6.51571 v 0 l -0.0112,-0.25081 m 9.73811,-0.17204 v 0 l -0.0112,-0.25082 m -15.97702,0.21591 v 0 l -0.65691,-0.93457 0.71619,-1.24463 -0.27726,-0.86915 0.33157,-0.84724 -10e-6,-2.11157 -0.40305,-1.27019 0.19585,-0.55004 0.97456,0.97265 -0.25313,0.42318 0.27161,0.41137 -0.27161,0.85735 0.25316,0.42293 -0.25326,0.42293 0.2684,0.4393 -0.7187,2.49471 0.28062,0.87238 m 6.22626,0.12254 v 0 l -0.0112,-0.25082 m -8.86982,0.25082 v 0 l -0.0112,-0.25082 m -7.17022,0.26214 v 0 l -0.569,-0.1328 0.56208,-0.14063 m 25.79631,-0.16081 v 0 l -0.0112,-0.25082 m -2.10331,0.25082 v 0 l -0.0112,-0.25082 m -23.24866,0.25082 v 0 l -0.0112,-0.25082 m 15.66089,-0.17244 v 0 l -0.15167,-0.55404 0.14057,-0.11906 0.1403,0.56356 m -5.20616,0.11 v 0 l -0.0112,-0.25082 m -10.13854,0.25082 v 0 l -0.0112,-0.25082 m 16.79547,-0.28573 v 0 l 0.25083,-0.0107 m -2.65621,0.1248 v 0 l -0.0112,-0.25081 m 10.16102,-0.17212 v 0 l -0.0112,-0.25082 m -1.2575,0.25082 v 0 l -0.0112,-0.25082 m -8.44692,0.25163 v 0 l -0.57648,-0.53516 0.14216,-0.56136 0.56954,0.53825 m 7.98355,-0.32422 v 0 l -0.66759,-1.33098 0.14971,-0.5747 0.57373,0.5389 m -9.86624,1.40267 v 0 l -0.0112,-0.25081 m -2.94911,0.25081 v 0 l -0.0112,-0.25081 m 3.81548,-0.17188 v 0 l -0.57456,-0.53459 0.15304,-0.57048 0.92533,0.64951 m -3.03933,6.79891 v 0 l -0.0112,-0.25082 m 0.43415,-6.51571 v 0 l -0.0112,-0.25081 m 7.91442,-0.28565 v 0 l 0.25082,-0.0107 m -8.99187,0.13615 v 0 l -0.569,-0.13294 0.5621,-0.14062 m -1.26977,0.26221 v 0 l -0.0112,-0.25081 m -0.72097,6.88525 v 0 l -0.25082,0.0107 m 8.17246,-7.0686 v 0 l -0.0112,-0.25082 m -3.79284,0.2505 v 0 l -0.15168,-0.55404 0.14056,-0.1192 0.14031,0.56356 m 8.74978,-0.73584 v 0 l -0.0112,-0.25082 m -1.68038,0.25082 v 0 l -0.0112,-0.25082 m -8.44692,13.78386 v 0 l -0.0112,-0.25089 m 0.85706,-13.28215 v 0 l -0.0112,-0.25082 m 5.50915,-0.59626 v 0 l -0.16218,-0.56788 0.66779,-1.35123 0.84198,0.61905 m -2.19352,0.87842 v 0 l -0.0112,-0.25082 m -6.75528,-0.17212 v 0 l -0.0112,-0.25081 m -2.94911,-0.17212 v 0 l -0.0112,-0.25081 m 11.42974,-1.0179 v 0 l -0.0112,-0.25081 m -10.13854,0.25081 v 0 l -0.0112,-0.25081 m -1.25748,-1.44084 v 0 l -0.0112,-0.25081 m -0.41167,-0.17204 v 0 l -0.0112,-0.25082"
       style="display:inline;fill:#000000;fill-opacity:1;fill-rule:nonzero;stroke:none;stroke-width:1.33333" />
  </g>
</svg>
